<?xml version="1.0" encoding="utf-8"?>
<!-- Generator: Adobe Illustrator 24.0.1, SVG Export Plug-In . SVG Version: 6.00 Build 0)  -->
<svg version="1.1" id="Layer_1" xmlns="http://www.w3.org/2000/svg" xmlns:xlink="http://www.w3.org/1999/xlink" x="0px" y="0px"
	 viewBox="0 0 1920 1080" enable-background="new 0 0 1920 1080" xml:space="preserve">
<g>
	
		<linearGradient id="SVGID_1_" gradientUnits="userSpaceOnUse" x1="752.5745" y1="422.5025" x2="752.5745" y2="655.3464" gradientTransform="matrix(1 0 0 -1 0 1080)">
		<stop  offset="3.196674e-07" style="stop-color:#1A1A1A"/>
		<stop  offset="0.9749" style="stop-color:#666666"/>
	</linearGradient>
	<path fill="url(#SVGID_1_)" d="M838.37,430.78c-4.81-4.12-10.48-6.12-17.3-6.12c-6.55,0-12.07,2-16.87,6.12
		c-4.24,3.64-6.32,9.22-6.32,17.06v119.29c0,27.96-16.5,44-45.29,44c-28.78,0-45.29-16.03-45.29-44V447.84
		c0-7.83-2.06-13.42-6.32-17.06c-4.81-4.12-10.48-6.12-17.3-6.12c-6.55,0-12.07,2-16.87,6.12c-4.24,3.64-6.32,9.22-6.32,17.06
		v108.52c0,69,29.54,101.14,92.95,101.14c62.25,0,91.23-32.14,91.23-101.14V447.84C844.68,440.01,842.61,434.43,838.37,430.78z"/>
	
		<linearGradient id="SVGID_2_" gradientUnits="userSpaceOnUse" x1="968.7867" y1="422.4902" x2="968.7867" y2="655.783" gradientTransform="matrix(1 0 0 -1 0 1080)">
		<stop  offset="3.196674e-07" style="stop-color:#1A1A1A"/>
		<stop  offset="0.9749" style="stop-color:#666666"/>
	</linearGradient>
	<path fill="url(#SVGID_2_)" d="M1036.62,446.26c-6.11-6.48-14.14-11.81-23.85-15.87c-9.8-4.1-21.78-6.17-35.59-6.17h-72.35
		c-16.27,0-22.33,6.4-22.33,23.62v186.05c0,8.21,1.84,14.31,5.48,18.13c3.47,3.65,9.57,5.49,18.13,5.49c17,0,23.62-6.86,23.62-24.48
		V467.58h50.46c21.61,0,34.52,11.77,34.52,31.51v0.32l-0.01,0.32c-0.46,8.76-3.4,15.62-8.74,20.43c-4.14,3.72-9.1,6.52-14.73,8.34
		c-4.63,1.49-9.59,2.64-14.75,3.44c-3.46,0.55-6.72,1.52-9.69,2.89c-2.12,0.98-3.82,2.39-5.17,4.27c-0.38,0.52-1.59,2.68-1.59,8.63
		c0,8.82,1.54,16.72,20.17,16.72h11.63c10.08,0,19.03-1.95,26.59-5.8c7.85-3.99,14.55-9.22,19.94-15.56
		c5.43-6.39,9.6-13.82,12.39-22.08c2.86-8.48,4.32-17.3,4.32-26.27c0-8.86-1.56-17.69-4.66-26.23
		C1047.4,460.26,1042.75,452.76,1036.62,446.26z"/>
	
		<linearGradient id="SVGID_3_" gradientUnits="userSpaceOnUse" x1="1178.0986" y1="422.5146" x2="1178.0986" y2="656.2196" gradientTransform="matrix(1 0 0 -1 0 1080)">
		<stop  offset="3.196674e-07" style="stop-color:#1A1A1A"/>
		<stop  offset="0.9749" style="stop-color:#666666"/>
	</linearGradient>
	<path fill="url(#SVGID_3_)" d="M1272.54,430.79c-2.7-2.18-5.77-3.93-9.13-5.19c-3.26-1.22-6.37-1.82-9.53-1.82
		c-4.2,0-7.98,1.16-11.57,3.57c-3.47,2.32-6.35,6.35-8.56,11.98l-55.65,142.65l-55.64-142.62c-2.22-5.66-5.12-9.7-8.57-12.01
		c-3.6-2.4-7.4-3.57-11.58-3.57c-3.41,0-6.55,0.58-9.62,1.77c-3.26,1.26-6.29,3.02-9.03,5.23c-2.43,1.96-4.28,4.22-5.68,6.9
		c-1.26,2.44-1.88,5.2-1.88,8.43c0,3.12,0.62,5.94,1.88,8.65l0.12,0.25l76.47,185.59c8.76,15.12,18.59,16.89,25.26,16.89
		c6.72,0,15.23-1.86,21.56-16.3l76.71-186.18l0.11-0.24c1.26-2.72,1.88-5.55,1.88-8.66c0-3.23-0.62-5.99-1.87-8.43
		C1276.83,435.02,1274.97,432.75,1272.54,430.79z"/>
	
		<linearGradient id="SVGID_4_" gradientUnits="userSpaceOnUse" x1="1334.8601" y1="422.9269" x2="1334.8601" y2="655.3464" gradientTransform="matrix(1 0 0 -1 0 1080)">
		<stop  offset="3.196674e-07" style="stop-color:#1A1A1A"/>
		<stop  offset="0.9749" style="stop-color:#666666"/>
	</linearGradient>
	<path fill="url(#SVGID_4_)" d="M1351.95,430.78c-4.81-4.12-10.33-6.12-16.87-6.12c-6.84,0-12.49,2-17.3,6.12
		c-4.24,3.64-6.32,9.22-6.32,17.06v186.05c0,7.85,2.06,13.42,6.32,17.06c4.8,4.12,10.47,6.12,17.3,6.12c6.54,0,12.07-2,16.87-6.12
		c4.26-3.65,6.32-9.23,6.32-17.06V447.84C1358.25,440.01,1356.19,434.43,1351.95,430.78z"/>
	
		<linearGradient id="SVGID_5_" gradientUnits="userSpaceOnUse" x1="1481.0592" y1="422.4782" x2="1481.0592" y2="655.7709" gradientTransform="matrix(1 0 0 -1 0 1080)">
		<stop  offset="3.196674e-07" style="stop-color:#1A1A1A"/>
		<stop  offset="0.9749" style="stop-color:#666666"/>
	</linearGradient>
	<path fill="url(#SVGID_5_)" d="M1541.15,471.46c10.21,0,14.73-3.72,17.24-6.52c4.29-4.78,6.37-10.37,6.37-17.1
		c0-6.72-2.09-12.31-6.37-17.09c-2.52-2.8-7.05-6.52-17.26-6.52h-120.59c-16.9,0-23.19,6.4-23.19,23.62V633.9
		c0,17.22,6.28,23.62,23.19,23.62h120.59c10.21,0,14.73-3.72,17.24-6.52c4.29-4.78,6.37-10.37,6.37-17.09
		c0-6.72-2.09-12.31-6.37-17.09c-2.52-2.8-7.05-6.52-17.24-6.52h-97.4v-45.79h80.17c10.21,0,14.73-3.72,17.24-6.52
		c4.29-4.78,6.37-10.37,6.37-17.1c0-6.72-2.09-12.31-6.37-17.09c-2.52-2.8-7.05-6.52-17.24-6.52h-80.17v-45.79h97.41V471.46z"/>
	
		<linearGradient id="SVGID_6_" gradientUnits="userSpaceOnUse" x1="1750.8713" y1="421.6415" x2="1750.8713" y2="658.366" gradientTransform="matrix(1 0 0 -1 0 1080)">
		<stop  offset="3.196674e-07" style="stop-color:#1A1A1A"/>
		<stop  offset="0.9749" style="stop-color:#666666"/>
	</linearGradient>
	<path fill="url(#SVGID_6_)" d="M1902.4,436.04c-1.46-2.91-3.26-5.29-5.54-7.28c-2.33-2.04-4.89-3.55-7.81-4.63
		c-3.01-1.1-5.87-1.64-8.76-1.64c-4.06,0-7.68,1.16-11.07,3.58c-3.04,2.17-5.37,6.16-6.91,11.88l-42.56,170.27l-47.18-170.08
		c-1.53-5.53-4.17-9.51-8.06-12.16c-4.29-2.93-8.68-4.35-13.41-4.35c-4.68,0-8.96,1.39-13.08,4.28c-3.78,2.64-6.38,6.6-7.92,12.09
		l-42.55,170.22l-47.21-170.19c-1.53-5.72-3.89-9.73-7.03-11.9c-3.55-2.46-7.29-3.66-11.4-3.66c-3.18,0-6.18,0.53-9.17,1.62
		c-2.93,1.08-5.49,2.6-7.82,4.63c-2.32,2.03-4.15,4.38-5.61,7.2c-1.26,2.44-1.88,5.2-1.88,8.43c0,1.54,0.28,4.32,1.59,8.8
		l64.91,188.73c1.96,5.47,4.95,9.43,9.13,12.13c4.5,2.9,9.18,4.3,14.31,4.3c4.92,0,9.51-1.37,14.05-4.2
		c3.94-2.45,6.68-6.32,8.39-11.81l41.76-129.43l44.55,128.97c1.96,5.51,4.95,9.48,9.14,12.19c4.5,2.9,9.18,4.3,14.31,4.3
		c4.92,0,9.51-1.37,14.05-4.2c3.94-2.45,6.68-6.32,8.39-11.81l60.72-188.17c1.08-3.69,1.61-6.84,1.61-9.35
		C1904.35,441.53,1903.71,438.66,1902.4,436.04z"/>
</g>
<g>
	<g>
		<path fill="none" d="M182.56,760.37c0.36,0.42,0.72,0.84,1.09,1.26C183.29,761.2,182.92,760.79,182.56,760.37z"/>
		<path fill="none" d="M155.31,715.22c0.24,0.63,0.5,1.26,0.75,1.89C155.81,716.48,155.55,715.85,155.31,715.22z"/>
		<path fill="none" d="M153.99,711.7c0.23,0.65,0.47,1.3,0.72,1.94C154.45,713,154.22,712.36,153.99,711.7z"/>
		<path fill="none" d="M158.22,722.17c0.27,0.59,0.52,1.18,0.8,1.77C158.76,723.35,158.49,722.76,158.22,722.17z"/>
		<path fill="none" d="M159.81,725.59c0.27,0.57,0.55,1.14,0.82,1.71C160.36,726.73,160.08,726.16,159.81,725.59z"/>
		<path fill="none" d="M156.73,718.71c0.25,0.61,0.51,1.21,0.76,1.82C157.24,719.93,156.99,719.32,156.73,718.71z"/>
		<path fill="none" d="M150.51,700.96c0.21,0.72,0.41,1.43,0.62,2.15C150.91,702.4,150.7,701.69,150.51,700.96z"/>
		<path fill="none" d="M149.52,697.33c0.19,0.74,0.39,1.48,0.58,2.22C149.9,698.81,149.71,698.07,149.52,697.33z"/>
		<path fill="none" d="M148.62,693.68c0.18,0.76,0.36,1.53,0.55,2.29C148.98,695.21,148.8,694.45,148.62,693.68z"/>
		<path fill="none" d="M152.74,708.15c0.23,0.67,0.45,1.35,0.69,2.01C153.19,709.5,152.96,708.82,152.74,708.15z"/>
		<path fill="none" d="M151.58,704.56c0.22,0.69,0.44,1.39,0.65,2.09C152.01,705.96,151.8,705.26,151.58,704.56z"/>
		<path fill="none" d="M175.41,751.47c0.34,0.45,0.67,0.9,1.01,1.35C176.07,752.38,175.75,751.92,175.41,751.47z"/>
		<path fill="none" d="M163.22,732.32c0.29,0.53,0.57,1.08,0.87,1.61C163.79,733.39,163.51,732.85,163.22,732.32z"/>
		<path fill="none" d="M180.1,757.46c0.35,0.42,0.7,0.86,1.06,1.29C180.8,758.32,180.46,757.88,180.1,757.46z"/>
		<path fill="none" d="M173.17,748.4c0.33,0.46,0.64,0.92,0.98,1.38C173.83,749.32,173.5,748.86,173.17,748.4z"/>
		<path fill="none" d="M177.71,754.49c0.34,0.44,0.68,0.89,1.03,1.32C178.4,755.37,178.06,754.92,177.71,754.49z"/>
		<path fill="none" d="M171.03,745.27c0.32,0.47,0.63,0.95,0.96,1.42C171.66,746.23,171.34,745.74,171.03,745.27z"/>
		<path fill="none" d="M165.05,735.62c0.29,0.52,0.59,1.04,0.89,1.55C165.64,736.66,165.35,736.14,165.05,735.62z"/>
		<path fill="none" d="M166.95,738.88c0.3,0.51,0.61,1.02,0.92,1.52C167.56,739.9,167.27,739.39,166.95,738.88z"/>
		<path fill="none" d="M168.95,742.09c0.32,0.5,0.62,0.98,0.93,1.47C169.57,743.08,169.26,742.59,168.95,742.09z"/>
		<path fill="none" d="M161.47,728.97c0.28,0.56,0.56,1.12,0.85,1.66C162.03,730.08,161.75,729.52,161.47,728.97z"/>
		<path fill="none" d="M146.35,633.79c-0.18,1.13-0.34,2.27-0.5,3.4C146.01,636.06,146.17,634.93,146.35,633.79z"/>
		<path fill="none" d="M145.37,641.3c-0.12,1.09-0.22,2.18-0.32,3.29C145.14,643.49,145.25,642.39,145.37,641.3z"/>
		<path fill="none" d="M145.8,637.55c-0.15,1.12-0.28,2.22-0.4,3.33C145.53,639.77,145.66,638.65,145.8,637.55z"/>
		<path fill="none" d="M145,645.06c-0.08,1.08-0.17,2.15-0.23,3.23C144.83,647.2,144.92,646.13,145,645.06z"/>
		<path fill="none" d="M146.98,630.05c-0.21,1.15-0.4,2.29-0.58,3.44C146.58,632.36,146.78,631.21,146.98,630.05z"/>
		<path fill="none" d="M150.44,615.24c-0.34,1.2-0.68,2.41-0.98,3.61C149.77,617.65,150.1,616.44,150.44,615.24z"/>
		<path fill="none" d="M144.74,648.83c-0.06,1.05-0.11,2.1-0.16,3.15C144.63,650.92,144.68,649.88,144.74,648.83z"/>
		<path fill="none" d="M149.43,618.92c-0.3,1.19-0.61,2.39-0.89,3.59C148.84,621.31,149.13,620.11,149.43,618.92z"/>
		<path fill="none" d="M148.52,622.62c-0.28,1.18-0.53,2.36-0.78,3.54C147.99,624.97,148.25,623.8,148.52,622.62z"/>
		<path fill="none" d="M144.57,652.6c-0.04,1.03-0.06,2.06-0.07,3.09C144.51,654.66,144.53,653.63,144.57,652.6z"/>
		<path fill="none" d="M145.9,678.89c0.12,0.86,0.24,1.72,0.36,2.58C146.13,680.61,146.01,679.75,145.9,678.89z"/>
		<path fill="none" d="M145.44,675.15c0.1,0.89,0.21,1.77,0.32,2.67C145.64,676.92,145.54,676.04,145.44,675.15z"/>
		<path fill="none" d="M146.45,682.61c0.13,0.84,0.27,1.67,0.41,2.51C146.71,684.29,146.58,683.45,146.45,682.61z"/>
		<path fill="none" d="M145.07,671.41c0.08,0.91,0.16,1.83,0.25,2.74C145.23,673.24,145.15,672.32,145.07,671.41z"/>
		<path fill="none" d="M144.5,660.13c0.01,0.98,0.04,1.96,0.07,2.96C144.53,662.11,144.51,661.11,144.5,660.13z"/>
		<path fill="none" d="M144.79,667.65c0.06,0.93,0.12,1.88,0.19,2.81C144.91,669.53,144.85,668.59,144.79,667.65z"/>
		<path fill="none" d="M147.08,686.31c0.15,0.81,0.3,1.63,0.46,2.44C147.38,687.95,147.24,687.14,147.08,686.31z"/>
		<path fill="none" d="M144.48,656.37c-0.01,1.01-0.01,2.01,0,3.02C144.48,658.38,144.48,657.38,144.48,656.37z"/>
		<path fill="none" d="M144.59,663.9c0.04,0.96,0.08,1.93,0.13,2.89C144.68,665.82,144.63,664.86,144.59,663.9z"/>
		<path fill="none" d="M147.71,626.33c-0.24,1.16-0.47,2.33-0.68,3.49C147.24,628.66,147.47,627.5,147.71,626.33z"/>
		<path fill="none" d="M427.8,746.82c0.24-0.35,0.5-0.7,0.74-1.07C428.3,746.12,428.04,746.47,427.8,746.82z"/>
		<path fill="none" d="M193.2,771.45c0.4,0.38,0.8,0.76,1.21,1.14C194,772.22,193.6,771.84,193.2,771.45z"/>
		<path fill="none" d="M211.75,786.44c0.35,0.24,0.69,0.49,1.04,0.73C212.45,786.94,212.1,786.68,211.75,786.44z"/>
		<path fill="none" d="M190.43,768.78c0.39,0.39,0.78,0.78,1.16,1.15C191.21,769.56,190.82,769.17,190.43,768.78z"/>
		<path fill="none" d="M216.13,789.36v-0.01V789.36z"/>
		<path fill="none" d="M425.13,750.56c0.27-0.36,0.55-0.74,0.81-1.1C425.68,749.82,425.41,750.18,425.13,750.56z"/>
		<path fill="none" d="M208.39,784.06c0.39,0.28,0.76,0.57,1.15,0.84C209.15,784.63,208.78,784.34,208.39,784.06z"/>
		<path fill="none" d="M148.32,692.37c-0.18-0.79-0.34-1.58-0.51-2.36C147.98,690.8,148.13,691.59,148.32,692.37z"/>
		<path fill="none" d="M196.05,774.08c0.41,0.36,0.81,0.74,1.22,1.1C196.86,774.82,196.46,774.46,196.05,774.08z"/>
		<path fill="none" d="M201.98,779.14c0.44,0.35,0.86,0.7,1.29,1.04C202.82,779.84,202.4,779.49,201.98,779.14z"/>
		<path fill="none" d="M419.77,757.43c0.06-0.07,0.11-0.15,0.17-0.22C419.88,757.29,419.82,757.36,419.77,757.43z"/>
		<path fill="none" d="M185.11,763.23c0.38,0.41,0.74,0.82,1.12,1.22C185.85,764.05,185.48,763.64,185.11,763.23z"/>
		<path fill="none" d="M422.47,754.06c0.23-0.29,0.46-0.59,0.68-0.89C422.94,753.47,422.71,753.77,422.47,754.06z"/>
		<path fill="none" d="M198.99,776.65c0.41,0.35,0.82,0.72,1.24,1.05C199.82,777.37,199.4,777.02,198.99,776.65z"/>
		<path fill="none" d="M187.74,766.04c0.38,0.4,0.75,0.8,1.14,1.19C188.49,766.83,188.11,766.43,187.74,766.04z"/>
		<path fill="none" d="M205.09,781.6c0.42,0.33,0.85,0.65,1.27,0.98C205.94,782.26,205.52,781.93,205.09,781.6z"/>
		
			<linearGradient id="SVGID_7_" gradientUnits="userSpaceOnUse" x1="680.0649" y1="-456.1348" x2="849.1062" y2="-456.1348" gradientTransform="matrix(0.8427 0.5384 0.5384 -0.8427 28.4829 -55.3988)">
			<stop  offset="0" style="stop-color:#11BAEE"/>
			<stop  offset="1" style="stop-color:#0054A3"/>
		</linearGradient>
		<path fill="url(#SVGID_7_)" d="M431,742.03L431,742.03c-0.3,0.49-0.63,0.96-0.95,1.44C430.37,743,430.68,742.53,431,742.03z"/>
		
			<linearGradient id="SVGID_8_" gradientUnits="userSpaceOnUse" x1="457.4194" y1="-457.6869" x2="768.4415" y2="-457.6869" gradientTransform="matrix(0.8427 0.5384 0.5384 -0.8427 28.4829 -55.3988)">
			<stop  offset="0" style="stop-color:#11BAEE"/>
			<stop  offset="1" style="stop-color:#0054A3"/>
		</linearGradient>
		<path fill="url(#SVGID_8_)" d="M394.33,539.77l-81.14,126.98c-12.64,19.77-32.31,32.61-53.81,37.35l0.04,0.19
			c-21.43,4.67-44.67,1.22-64.55-11.47c-17.47-11.17-29.55-27.7-35.46-46.06c-7.36-22.97-4.38-49.43,8.19-70.3
			c-7.64,12.36-13.34,25.41-17.16,38.77v0.01c-0.34,1.2-0.68,2.41-0.98,3.61c0,0.02-0.01,0.04-0.01,0.06
			c-0.32,1.19-0.61,2.39-0.89,3.59c-0.01,0.04-0.01,0.07-0.02,0.11c-0.28,1.18-0.53,2.36-0.78,3.54c-0.01,0.06-0.02,0.12-0.04,0.17
			c-0.24,1.16-0.47,2.33-0.68,3.49c-0.01,0.07-0.02,0.16-0.05,0.23c-0.21,1.15-0.4,2.29-0.58,3.44c-0.01,0.1-0.02,0.19-0.05,0.28
			c-0.18,1.13-0.34,2.27-0.5,3.4c-0.01,0.12-0.04,0.24-0.05,0.35c-0.15,1.12-0.28,2.22-0.4,3.33c-0.01,0.13-0.02,0.28-0.05,0.41
			c-0.12,1.09-0.22,2.18-0.32,3.29c-0.01,0.16-0.02,0.32-0.04,0.47c-0.08,1.08-0.17,2.15-0.23,3.23c-0.01,0.18-0.02,0.36-0.04,0.55
			c-0.06,1.05-0.11,2.1-0.16,3.15c-0.01,0.21-0.01,0.41-0.02,0.62c-0.04,1.03-0.06,2.06-0.07,3.09c0,0.23,0,0.45-0.01,0.68
			c-0.01,1.01-0.01,2.01,0,3.02c0,0.24,0.01,0.5,0.01,0.74c0.01,0.98,0.04,1.96,0.07,2.96c0.01,0.27,0.02,0.55,0.04,0.81
			c0.04,0.96,0.08,1.93,0.13,2.89c0.01,0.29,0.04,0.58,0.05,0.87c0.06,0.93,0.12,1.88,0.19,2.81c0.02,0.32,0.05,0.63,0.08,0.95
			c0.08,0.91,0.16,1.83,0.25,2.74c0.04,0.34,0.07,0.67,0.11,1.01c0.1,0.89,0.21,1.77,0.32,2.67c0.05,0.36,0.1,0.72,0.15,1.08
			c0.12,0.86,0.24,1.72,0.36,2.58c0.06,0.38,0.12,0.75,0.18,1.14c0.13,0.84,0.27,1.67,0.41,2.51c0.07,0.4,0.15,0.8,0.22,1.19
			c0.15,0.81,0.3,1.63,0.46,2.44c0.08,0.41,0.17,0.84,0.25,1.25c0.17,0.79,0.33,1.58,0.51,2.36c0.1,0.44,0.21,0.87,0.3,1.31
			c0.18,0.76,0.36,1.53,0.55,2.29c0.11,0.45,0.23,0.91,0.35,1.36c0.19,0.74,0.39,1.48,0.58,2.22c0.13,0.47,0.27,0.95,0.4,1.42
			c0.21,0.72,0.41,1.43,0.62,2.15c0.15,0.49,0.3,0.97,0.45,1.46c0.22,0.69,0.44,1.39,0.65,2.09c0.17,0.5,0.34,1.01,0.51,1.5
			c0.23,0.67,0.45,1.35,0.69,2.01c0.18,0.52,0.38,1.03,0.56,1.54c0.23,0.65,0.47,1.3,0.72,1.94c0.19,0.52,0.4,1.04,0.61,1.56
			c0.24,0.63,0.5,1.26,0.75,1.89c0.22,0.53,0.45,1.07,0.67,1.6c0.25,0.61,0.51,1.21,0.76,1.82c0.24,0.55,0.49,1.09,0.73,1.64
			c0.27,0.59,0.52,1.18,0.8,1.77c0.25,0.56,0.52,1.1,0.79,1.65c0.27,0.57,0.55,1.14,0.82,1.71c0.28,0.56,0.56,1.12,0.84,1.67
			c0.28,0.56,0.56,1.12,0.85,1.66c0.29,0.56,0.59,1.13,0.9,1.69c0.29,0.53,0.57,1.08,0.87,1.61c0.32,0.57,0.64,1.13,0.96,1.7
			c0.29,0.52,0.59,1.04,0.89,1.55c0.33,0.57,0.68,1.13,1.02,1.7c0.3,0.51,0.61,1.02,0.92,1.52c0.35,0.57,0.72,1.13,1.08,1.7
			c0.32,0.5,0.62,0.98,0.93,1.47c0.38,0.57,0.75,1.14,1.14,1.71c0.32,0.47,0.63,0.95,0.96,1.42c0.39,0.57,0.8,1.14,1.2,1.7
			c0.33,0.46,0.64,0.92,0.98,1.38c0.41,0.57,0.84,1.13,1.25,1.69c0.34,0.45,0.67,0.9,1.01,1.35c0.42,0.56,0.86,1.12,1.3,1.67
			c0.34,0.44,0.68,0.89,1.03,1.32c0.45,0.56,0.9,1.1,1.36,1.65c0.35,0.42,0.7,0.86,1.06,1.29c0.46,0.55,0.93,1.09,1.41,1.63
			c0.36,0.42,0.72,0.84,1.09,1.26c0.47,0.53,0.97,1.07,1.46,1.6c0.38,0.41,0.74,0.82,1.12,1.22c0.5,0.53,1.01,1.06,1.5,1.58
			c0.38,0.4,0.75,0.8,1.14,1.19c0.51,0.52,1.04,1.04,1.56,1.55c0.39,0.39,0.78,0.78,1.16,1.15c0.52,0.51,1.07,1.01,1.6,1.52
			c0.4,0.38,0.8,0.76,1.21,1.14c0.55,0.5,1.1,0.99,1.65,1.49c0.41,0.36,0.81,0.74,1.22,1.1c0.57,0.5,1.14,0.98,1.71,1.47
			c0.41,0.35,0.82,0.72,1.24,1.05c0.57,0.47,1.16,0.95,1.75,1.42c0.44,0.35,0.86,0.7,1.29,1.04c0.61,0.47,1.21,0.95,1.83,1.41
			c0.42,0.33,0.85,0.65,1.27,0.98c0.67,0.5,1.35,0.99,2.03,1.49c0.39,0.28,0.76,0.57,1.15,0.84c0.73,0.52,1.47,1.03,2.21,1.53
			c0.35,0.24,0.69,0.49,1.04,0.73c1.09,0.74,2.21,1.47,3.32,2.18c0,0,0,0,0.01,0c2.85,1.82,5.74,3.49,8.66,5.11
			c0.8,0.45,1.61,0.87,2.43,1.3c2.39,1.26,4.8,2.46,7.24,3.59c0.61,0.28,1.21,0.58,1.82,0.86c2.96,1.32,5.95,2.55,8.96,3.67
			c0.73,0.28,1.47,0.52,2.21,0.78c2.43,0.86,4.85,1.66,7.3,2.4c0.82,0.25,1.66,0.51,2.49,0.74c3.07,0.87,6.15,1.66,9.25,2.34
			c0.38,0.08,0.75,0.15,1.13,0.22c2.76,0.58,5.54,1.07,8.33,1.5c0.9,0.13,1.81,0.27,2.7,0.39c2.67,0.36,5.34,0.65,8,0.87
			c0.52,0.04,1.03,0.11,1.55,0.15c3.12,0.23,6.23,0.34,9.35,0.38c0.85,0.01,1.69,0,2.52-0.01c2.46-0.01,4.92-0.07,7.37-0.21
			c0.81-0.04,1.64-0.07,2.45-0.12c3.09-0.21,6.17-0.49,9.25-0.87c0.61-0.07,1.21-0.18,1.82-0.27c2.55-0.35,5.08-0.76,7.62-1.25
			c0.9-0.17,1.79-0.34,2.69-0.52c2.79-0.58,5.58-1.21,8.33-1.94c0.28-0.07,0.57-0.13,0.86-0.21c3-0.81,5.95-1.73,8.9-2.72
			c0.86-0.29,1.71-0.59,2.56-0.9c2.32-0.81,4.61-1.69,6.89-2.62c0.72-0.29,1.43-0.56,2.13-0.86c2.84-1.2,5.64-2.5,8.4-3.87
			c0.69-0.34,1.37-0.72,2.06-1.07c2.18-1.12,4.33-2.29,6.45-3.52c15.66-9.02,29.92-20.83,41.89-35.29c0.06-0.07,0.11-0.15,0.17-0.22
			c0.86-1.04,1.7-2.1,2.53-3.15c0.23-0.29,0.46-0.59,0.68-0.89c0.67-0.86,1.32-1.73,1.98-2.62c0.27-0.36,0.55-0.74,0.81-1.1
			c0.63-0.86,1.25-1.75,1.86-2.63c0.24-0.35,0.5-0.7,0.74-1.07c0.84-1.22,1.66-2.46,2.46-3.72l0,0l80.56-126.08
			c-25.51,5.21-51.57,0.41-73.57-13.65C415.56,587.96,400.05,565.76,394.33,539.77z"/>
		
			<linearGradient id="SVGID_9_" gradientUnits="userSpaceOnUse" x1="317.5585" y1="-492.907" x2="768.4938" y2="-492.907" gradientTransform="matrix(0.8427 0.5384 0.5384 -0.8427 28.4829 -55.3988)">
			<stop  offset="0" style="stop-color:#00A2E9"/>
			<stop  offset="1" style="stop-color:#6E0082"/>
		</linearGradient>
		<path fill="url(#SVGID_9_)" d="M427.8,746.82c-0.61,0.89-1.22,1.76-1.86,2.63c-0.27,0.38-0.55,0.74-0.81,1.1
			c-0.65,0.89-1.31,1.76-1.98,2.62c-0.23,0.29-0.46,0.59-0.68,0.89c-0.84,1.07-1.67,2.12-2.53,3.15c-0.06,0.07-0.11,0.15-0.17,0.22
			c-49.26,59.53-136.96,74.53-203.63,31.93l0,0l0,0c0,0,0,0-0.01,0c-1.12-0.72-2.23-1.44-3.32-2.18c-0.35-0.24-0.7-0.49-1.04-0.73
			c-0.74-0.51-1.48-1.02-2.21-1.53c-0.39-0.28-0.76-0.56-1.15-0.84c-0.68-0.5-1.36-0.98-2.03-1.49c-0.42-0.33-0.85-0.65-1.27-0.98
			c-0.61-0.47-1.22-0.93-1.83-1.41c-0.44-0.34-0.86-0.7-1.29-1.04c-0.58-0.47-1.16-0.93-1.75-1.42c-0.42-0.35-0.82-0.7-1.24-1.06
			c-0.57-0.49-1.15-0.97-1.71-1.47c-0.41-0.36-0.81-0.74-1.22-1.1c-0.55-0.5-1.1-0.98-1.65-1.49c-0.41-0.38-0.8-0.76-1.21-1.14
			c-0.53-0.51-1.07-1.01-1.6-1.52c-0.39-0.38-0.78-0.78-1.16-1.15c-0.52-0.52-1.04-1.03-1.56-1.55c-0.39-0.39-0.76-0.79-1.14-1.19
			c-0.51-0.52-1.01-1.06-1.5-1.58c-0.38-0.4-0.74-0.81-1.12-1.22c-0.49-0.53-0.97-1.07-1.46-1.6c-0.36-0.41-0.73-0.84-1.09-1.26
			c-0.47-0.55-0.95-1.08-1.41-1.63c-0.35-0.42-0.7-0.86-1.06-1.29c-0.45-0.55-0.91-1.1-1.36-1.65c-0.35-0.44-0.69-0.87-1.03-1.32
			c-0.44-0.56-0.87-1.1-1.3-1.67c-0.34-0.45-0.67-0.9-1.01-1.35c-0.42-0.56-0.84-1.13-1.25-1.69c-0.33-0.46-0.65-0.92-0.98-1.38
			c-0.4-0.57-0.8-1.13-1.2-1.7c-0.33-0.47-0.64-0.95-0.96-1.42c-0.38-0.57-0.76-1.13-1.14-1.71c-0.32-0.49-0.63-0.98-0.93-1.47
			c-0.36-0.57-0.73-1.13-1.08-1.7c-0.32-0.51-0.62-1.01-0.92-1.52c-0.34-0.57-0.68-1.13-1.02-1.7c-0.3-0.52-0.59-1.04-0.89-1.55
			c-0.33-0.57-0.64-1.13-0.96-1.7c-0.29-0.53-0.58-1.07-0.87-1.61c-0.3-0.56-0.61-1.12-0.9-1.69c-0.29-0.56-0.57-1.1-0.85-1.66
			s-0.57-1.12-0.84-1.67c-0.28-0.57-0.55-1.14-0.82-1.71c-0.27-0.55-0.53-1.1-0.79-1.65c-0.27-0.58-0.53-1.18-0.8-1.77
			c-0.24-0.55-0.49-1.09-0.73-1.64c-0.27-0.61-0.51-1.21-0.76-1.82c-0.22-0.53-0.45-1.07-0.67-1.6c-0.25-0.63-0.5-1.26-0.75-1.89
			c-0.21-0.52-0.41-1.04-0.61-1.56c-0.24-0.64-0.49-1.3-0.72-1.94c-0.18-0.51-0.38-1.03-0.56-1.54c-0.23-0.67-0.46-1.33-0.69-2.01
			c-0.17-0.5-0.34-0.99-0.51-1.5c-0.23-0.69-0.44-1.38-0.65-2.09c-0.15-0.49-0.3-0.97-0.45-1.46c-0.22-0.72-0.42-1.43-0.62-2.15
			c-0.13-0.47-0.27-0.95-0.4-1.42c-0.21-0.74-0.4-1.48-0.58-2.22c-0.12-0.45-0.24-0.91-0.35-1.36c-0.19-0.76-0.38-1.53-0.55-2.29
			c-0.1-0.44-0.21-0.87-0.3-1.31c-0.18-0.79-0.34-1.58-0.51-2.36c-0.08-0.41-0.18-0.84-0.25-1.25c-0.16-0.81-0.32-1.63-0.46-2.44
			c-0.07-0.4-0.15-0.8-0.22-1.19c-0.15-0.84-0.28-1.67-0.41-2.51c-0.06-0.38-0.12-0.75-0.18-1.14c-0.13-0.86-0.25-1.72-0.36-2.58
			c-0.05-0.36-0.1-0.72-0.15-1.08c-0.11-0.89-0.22-1.77-0.32-2.67c-0.04-0.34-0.07-0.67-0.11-1.01c-0.1-0.91-0.18-1.83-0.25-2.74
			c-0.02-0.32-0.06-0.63-0.08-0.95c-0.07-0.93-0.15-1.88-0.19-2.81c-0.01-0.29-0.04-0.58-0.05-0.87c-0.06-0.96-0.1-1.93-0.13-2.89
			c-0.01-0.27-0.02-0.55-0.04-0.81c-0.04-0.98-0.05-1.96-0.07-2.96c0-0.24-0.01-0.5-0.01-0.74c-0.01-1.01-0.01-2.01,0-3.02
			c0-0.23,0-0.45,0.01-0.68c0.01-1.03,0.04-2.06,0.07-3.09c0.01-0.21,0.01-0.41,0.02-0.62c0.04-1.06,0.1-2.1,0.16-3.15
			c0.01-0.18,0.02-0.36,0.04-0.55c0.06-1.08,0.15-2.15,0.23-3.23c0.01-0.16,0.02-0.32,0.04-0.47c0.1-1.09,0.19-2.18,0.32-3.29
			c0.01-0.13,0.02-0.28,0.05-0.41c0.12-1.12,0.25-2.22,0.4-3.33c0.01-0.12,0.04-0.24,0.05-0.35c0.16-1.13,0.32-2.27,0.5-3.4
			c0.01-0.1,0.02-0.19,0.05-0.28c0.18-1.15,0.38-2.3,0.58-3.44c0.01-0.07,0.02-0.16,0.05-0.23c0.22-1.16,0.44-2.33,0.68-3.49
			c0.01-0.06,0.02-0.12,0.04-0.17c0.24-1.19,0.51-2.36,0.78-3.54c0.01-0.04,0.01-0.07,0.02-0.11c0.28-1.2,0.57-2.39,0.89-3.59
			c0-0.02,0.01-0.04,0.01-0.06c0.32-1.21,0.64-2.41,0.98-3.61v-0.01c4.03-14.08,10.11-27.79,18.37-40.73l79.3-124.09
			c-24.39,4.14-49.13-0.89-70.18-14.35c-0.42-0.27-0.85-0.55-1.26-0.82c-0.42-0.27-0.85-0.53-1.27-0.8
			c-22.25-14.22-37.68-36.15-43.52-61.8L50.99,499.21c-33.42,52.31-42.43,113.49-30,169.87l0.23,0.15
			c12.42,56.39,46.21,108.07,98.37,141.4c52.14,33.32,113.24,42.27,169.63,29.84l0.24,0.16c55.87-12.31,107.15-45.68,140.58-97.15
			c-0.5,0.76-0.99,1.53-1.52,2.28C428.3,746.12,428.04,746.47,427.8,746.82z"/>
		
			<linearGradient id="SVGID_10_" gradientUnits="userSpaceOnUse" x1="457.4979" y1="-543.2914" x2="768.6093" y2="-543.2914" gradientTransform="matrix(0.8427 0.5384 0.5384 -0.8427 28.4829 -55.3988)">
			<stop  offset="0" style="stop-color:#11BAEE"/>
			<stop  offset="1" style="stop-color:#0054A3"/>
		</linearGradient>
		<path fill="url(#SVGID_10_)" d="M144.57,663.09c0.01,0.27,0.02,0.55,0.04,0.81C144.59,663.62,144.58,663.35,144.57,663.09z"/>
		
			<linearGradient id="SVGID_11_" gradientUnits="userSpaceOnUse" x1="317.6447" y1="-543.2914" x2="768.6093" y2="-543.2914" gradientTransform="matrix(0.8427 0.5384 0.5384 -0.8427 28.4829 -55.3988)">
			<stop  offset="0" style="stop-color:#00A2E9"/>
			<stop  offset="1" style="stop-color:#6E0082"/>
		</linearGradient>
		<path fill="url(#SVGID_11_)" d="M144.57,663.09c0.01,0.27,0.02,0.55,0.04,0.81C144.59,663.62,144.58,663.35,144.57,663.09z"/>
		
			<linearGradient id="SVGID_12_" gradientUnits="userSpaceOnUse" x1="457.4979" y1="-552.2684" x2="768.6093" y2="-552.2684" gradientTransform="matrix(0.8427 0.5384 0.5384 -0.8427 28.4829 -55.3988)">
			<stop  offset="0" style="stop-color:#11BAEE"/>
			<stop  offset="1" style="stop-color:#0054A3"/>
		</linearGradient>
		<path fill="url(#SVGID_12_)" d="M145.32,674.15c0.04,0.34,0.07,0.67,0.11,1.01C145.4,674.81,145.36,674.49,145.32,674.15z"/>
		
			<linearGradient id="SVGID_13_" gradientUnits="userSpaceOnUse" x1="317.6447" y1="-552.2684" x2="768.6093" y2="-552.2684" gradientTransform="matrix(0.8427 0.5384 0.5384 -0.8427 28.4829 -55.3988)">
			<stop  offset="0" style="stop-color:#00A2E9"/>
			<stop  offset="1" style="stop-color:#6E0082"/>
		</linearGradient>
		<path fill="url(#SVGID_13_)" d="M145.32,674.15c0.04,0.34,0.07,0.67,0.11,1.01C145.4,674.81,145.36,674.49,145.32,674.15z"/>
		
			<linearGradient id="SVGID_14_" gradientUnits="userSpaceOnUse" x1="457.4979" y1="-540.1962" x2="768.6093" y2="-540.1962" gradientTransform="matrix(0.8427 0.5384 0.5384 -0.8427 28.4829 -55.3988)">
			<stop  offset="0" style="stop-color:#11BAEE"/>
			<stop  offset="1" style="stop-color:#0054A3"/>
		</linearGradient>
		<path fill="url(#SVGID_14_)" d="M144.48,659.39c0,0.24,0.01,0.5,0.01,0.74C144.5,659.89,144.5,659.63,144.48,659.39z"/>
		
			<linearGradient id="SVGID_15_" gradientUnits="userSpaceOnUse" x1="317.6447" y1="-540.1962" x2="768.6093" y2="-540.1962" gradientTransform="matrix(0.8427 0.5384 0.5384 -0.8427 28.4829 -55.3988)">
			<stop  offset="0" style="stop-color:#00A2E9"/>
			<stop  offset="1" style="stop-color:#6E0082"/>
		</linearGradient>
		<path fill="url(#SVGID_15_)" d="M144.48,659.39c0,0.24,0.01,0.5,0.01,0.74C144.5,659.89,144.5,659.63,144.48,659.39z"/>
		
			<linearGradient id="SVGID_16_" gradientUnits="userSpaceOnUse" x1="457.4979" y1="-462.6303" x2="768.6093" y2="-462.6303" gradientTransform="matrix(0.8427 0.5384 0.5384 -0.8427 28.4829 -55.3988)">
			<stop  offset="0" style="stop-color:#11BAEE"/>
			<stop  offset="1" style="stop-color:#0054A3"/>
		</linearGradient>
		<path fill="url(#SVGID_16_)" d="M425.94,749.44c0.63-0.86,1.25-1.75,1.86-2.63C427.19,747.71,426.57,748.58,425.94,749.44z"/>
		
			<linearGradient id="SVGID_17_" gradientUnits="userSpaceOnUse" x1="317.6447" y1="-462.6303" x2="768.6093" y2="-462.6303" gradientTransform="matrix(0.8427 0.5384 0.5384 -0.8427 28.4829 -55.3988)">
			<stop  offset="0" style="stop-color:#00A2E9"/>
			<stop  offset="1" style="stop-color:#6E0082"/>
		</linearGradient>
		<path fill="url(#SVGID_17_)" d="M425.94,749.44c0.63-0.86,1.25-1.75,1.86-2.63C427.19,747.71,426.57,748.58,425.94,749.44z"/>
		
			<linearGradient id="SVGID_18_" gradientUnits="userSpaceOnUse" x1="457.4979" y1="-467.2518" x2="768.6093" y2="-467.2518" gradientTransform="matrix(0.8427 0.5384 0.5384 -0.8427 28.4829 -55.3988)">
			<stop  offset="0" style="stop-color:#11BAEE"/>
			<stop  offset="1" style="stop-color:#0054A3"/>
		</linearGradient>
		<path fill="url(#SVGID_18_)" d="M423.15,753.18c0.67-0.86,1.32-1.73,1.98-2.62C424.49,751.44,423.82,752.32,423.15,753.18z"/>
		
			<linearGradient id="SVGID_19_" gradientUnits="userSpaceOnUse" x1="317.6447" y1="-467.2518" x2="768.6093" y2="-467.2518" gradientTransform="matrix(0.8427 0.5384 0.5384 -0.8427 28.4829 -55.3988)">
			<stop  offset="0" style="stop-color:#00A2E9"/>
			<stop  offset="1" style="stop-color:#6E0082"/>
		</linearGradient>
		<path fill="url(#SVGID_19_)" d="M423.15,753.18c0.67-0.86,1.32-1.73,1.98-2.62C424.49,751.44,423.82,752.32,423.15,753.18z"/>
		
			<linearGradient id="SVGID_20_" gradientUnits="userSpaceOnUse" x1="457.4979" y1="-555.1404" x2="768.6093" y2="-555.1404" gradientTransform="matrix(0.8427 0.5384 0.5384 -0.8427 28.4829 -55.3988)">
			<stop  offset="0" style="stop-color:#11BAEE"/>
			<stop  offset="1" style="stop-color:#0054A3"/>
		</linearGradient>
		<path fill="url(#SVGID_20_)" d="M145.76,677.81c0.05,0.36,0.1,0.72,0.15,1.08C145.85,678.54,145.79,678.17,145.76,677.81z"/>
		
			<linearGradient id="SVGID_21_" gradientUnits="userSpaceOnUse" x1="317.6447" y1="-555.1404" x2="768.6093" y2="-555.1404" gradientTransform="matrix(0.8427 0.5384 0.5384 -0.8427 28.4829 -55.3988)">
			<stop  offset="0" style="stop-color:#00A2E9"/>
			<stop  offset="1" style="stop-color:#6E0082"/>
		</linearGradient>
		<path fill="url(#SVGID_21_)" d="M145.76,677.81c0.05,0.36,0.1,0.72,0.15,1.08C145.85,678.54,145.79,678.17,145.76,677.81z"/>
		
			<linearGradient id="SVGID_22_" gradientUnits="userSpaceOnUse" x1="457.4979" y1="-546.3391" x2="768.6093" y2="-546.3391" gradientTransform="matrix(0.8427 0.5384 0.5384 -0.8427 28.4829 -55.3988)">
			<stop  offset="0" style="stop-color:#11BAEE"/>
			<stop  offset="1" style="stop-color:#0054A3"/>
		</linearGradient>
		<path fill="url(#SVGID_22_)" d="M144.74,666.79c0.01,0.29,0.04,0.58,0.05,0.87C144.77,667.36,144.75,667.07,144.74,666.79z"/>
		
			<linearGradient id="SVGID_23_" gradientUnits="userSpaceOnUse" x1="317.6447" y1="-546.3391" x2="768.6093" y2="-546.3391" gradientTransform="matrix(0.8427 0.5384 0.5384 -0.8427 28.4829 -55.3988)">
			<stop  offset="0" style="stop-color:#00A2E9"/>
			<stop  offset="1" style="stop-color:#6E0082"/>
		</linearGradient>
		<path fill="url(#SVGID_23_)" d="M144.74,666.79c0.01,0.29,0.04,0.58,0.05,0.87C144.77,667.36,144.75,667.07,144.74,666.79z"/>
		
			<linearGradient id="SVGID_24_" gradientUnits="userSpaceOnUse" x1="457.4979" y1="-549.3257" x2="768.6093" y2="-549.3257" gradientTransform="matrix(0.8427 0.5384 0.5384 -0.8427 28.4829 -55.3988)">
			<stop  offset="0" style="stop-color:#11BAEE"/>
			<stop  offset="1" style="stop-color:#0054A3"/>
		</linearGradient>
		<path fill="url(#SVGID_24_)" d="M144.98,670.46c0.02,0.32,0.05,0.63,0.08,0.95C145.04,671.09,145.02,670.78,144.98,670.46z"/>
		
			<linearGradient id="SVGID_25_" gradientUnits="userSpaceOnUse" x1="317.6447" y1="-549.3257" x2="768.6093" y2="-549.3257" gradientTransform="matrix(0.8427 0.5384 0.5384 -0.8427 28.4829 -55.3988)">
			<stop  offset="0" style="stop-color:#00A2E9"/>
			<stop  offset="1" style="stop-color:#6E0082"/>
		</linearGradient>
		<path fill="url(#SVGID_25_)" d="M144.98,670.46c0.02,0.32,0.05,0.63,0.08,0.95C145.04,671.09,145.02,670.78,144.98,670.46z"/>
		
			<linearGradient id="SVGID_26_" gradientUnits="userSpaceOnUse" x1="457.4979" y1="-604.1678" x2="768.6093" y2="-604.1678" gradientTransform="matrix(0.8427 0.5384 0.5384 -0.8427 28.4829 -55.3988)">
			<stop  offset="0" style="stop-color:#11BAEE"/>
			<stop  offset="1" style="stop-color:#0054A3"/>
		</linearGradient>
		<path fill="url(#SVGID_26_)" d="M181.17,758.74c0.46,0.55,0.93,1.09,1.41,1.63C182.1,759.82,181.63,759.29,181.17,758.74z"/>
		
			<linearGradient id="SVGID_27_" gradientUnits="userSpaceOnUse" x1="317.6447" y1="-604.1678" x2="768.6093" y2="-604.1678" gradientTransform="matrix(0.8427 0.5384 0.5384 -0.8427 28.4829 -55.3988)">
			<stop  offset="0" style="stop-color:#00A2E9"/>
			<stop  offset="1" style="stop-color:#6E0082"/>
		</linearGradient>
		<path fill="url(#SVGID_27_)" d="M181.17,758.74c0.46,0.55,0.93,1.09,1.41,1.63C182.1,759.82,181.63,759.29,181.17,758.74z"/>
		
			<linearGradient id="SVGID_28_" gradientUnits="userSpaceOnUse" x1="457.4979" y1="-513.713" x2="768.6093" y2="-513.713" gradientTransform="matrix(0.8427 0.5384 0.5384 -0.8427 28.4829 -55.3988)">
			<stop  offset="0" style="stop-color:#11BAEE"/>
			<stop  offset="1" style="stop-color:#0054A3"/>
		</linearGradient>
		<path fill="url(#SVGID_28_)" d="M147.03,629.82c-0.01,0.07-0.02,0.16-0.05,0.23C146.99,629.98,147.01,629.91,147.03,629.82z"/>
		
			<linearGradient id="SVGID_29_" gradientUnits="userSpaceOnUse" x1="317.6447" y1="-513.713" x2="768.6093" y2="-513.713" gradientTransform="matrix(0.8427 0.5384 0.5384 -0.8427 28.4829 -55.3988)">
			<stop  offset="0" style="stop-color:#00A2E9"/>
			<stop  offset="1" style="stop-color:#6E0082"/>
		</linearGradient>
		<path fill="url(#SVGID_29_)" d="M147.03,629.82c-0.01,0.07-0.02,0.16-0.05,0.23C146.99,629.98,147.01,629.91,147.03,629.82z"/>
		
			<linearGradient id="SVGID_30_" gradientUnits="userSpaceOnUse" x1="457.4979" y1="-457.4867" x2="768.6093" y2="-457.4867" gradientTransform="matrix(0.8427 0.5384 0.5384 -0.8427 28.4829 -55.3988)">
			<stop  offset="0" style="stop-color:#11BAEE"/>
			<stop  offset="1" style="stop-color:#0054A3"/>
		</linearGradient>
		<path fill="url(#SVGID_30_)" d="M430.05,743.48c0.32-0.49,0.64-0.96,0.96-1.46c-0.8,1.26-1.63,2.5-2.46,3.72
			C429.05,745,429.54,744.24,430.05,743.48z"/>
		
			<linearGradient id="SVGID_31_" gradientUnits="userSpaceOnUse" x1="317.6447" y1="-457.4867" x2="768.6093" y2="-457.4867" gradientTransform="matrix(0.8427 0.5384 0.5384 -0.8427 28.4829 -55.3988)">
			<stop  offset="0" style="stop-color:#00A2E9"/>
			<stop  offset="1" style="stop-color:#6E0082"/>
		</linearGradient>
		<path fill="url(#SVGID_31_)" d="M430.05,743.48c0.32-0.49,0.64-0.96,0.96-1.46c-0.8,1.26-1.63,2.5-2.46,3.72
			C429.05,745,429.54,744.24,430.05,743.48z"/>
		
			<linearGradient id="SVGID_32_" gradientUnits="userSpaceOnUse" x1="457.4979" y1="-517.1795" x2="768.6093" y2="-517.1795" gradientTransform="matrix(0.8427 0.5384 0.5384 -0.8427 28.4829 -55.3988)">
			<stop  offset="0" style="stop-color:#11BAEE"/>
			<stop  offset="1" style="stop-color:#0054A3"/>
		</linearGradient>
		<path fill="url(#SVGID_32_)" d="M146.4,633.51c-0.01,0.1-0.02,0.19-0.05,0.28C146.36,633.69,146.37,633.61,146.4,633.51z"/>
		
			<linearGradient id="SVGID_33_" gradientUnits="userSpaceOnUse" x1="317.6447" y1="-517.1795" x2="768.6093" y2="-517.1795" gradientTransform="matrix(0.8427 0.5384 0.5384 -0.8427 28.4829 -55.3988)">
			<stop  offset="0" style="stop-color:#00A2E9"/>
			<stop  offset="1" style="stop-color:#6E0082"/>
		</linearGradient>
		<path fill="url(#SVGID_33_)" d="M146.4,633.51c-0.01,0.1-0.02,0.19-0.05,0.28C146.36,633.69,146.37,633.61,146.4,633.51z"/>
		
			<linearGradient id="SVGID_34_" gradientUnits="userSpaceOnUse" x1="457.4979" y1="-510.2129" x2="768.6093" y2="-510.2129" gradientTransform="matrix(0.8427 0.5384 0.5384 -0.8427 28.4829 -55.3988)">
			<stop  offset="0" style="stop-color:#11BAEE"/>
			<stop  offset="1" style="stop-color:#0054A3"/>
		</linearGradient>
		<path fill="url(#SVGID_34_)" d="M147.75,626.16c-0.01,0.06-0.02,0.12-0.04,0.17C147.72,626.27,147.73,626.22,147.75,626.16z"/>
		
			<linearGradient id="SVGID_35_" gradientUnits="userSpaceOnUse" x1="317.6447" y1="-510.2129" x2="768.6093" y2="-510.2129" gradientTransform="matrix(0.8427 0.5384 0.5384 -0.8427 28.4829 -55.3988)">
			<stop  offset="0" style="stop-color:#00A2E9"/>
			<stop  offset="1" style="stop-color:#6E0082"/>
		</linearGradient>
		<path fill="url(#SVGID_35_)" d="M147.75,626.16c-0.01,0.06-0.02,0.12-0.04,0.17C147.72,626.27,147.73,626.22,147.75,626.16z"/>
		
			<linearGradient id="SVGID_36_" gradientUnits="userSpaceOnUse" x1="457.4979" y1="-499.4698" x2="487.6962" y2="-499.4698" gradientTransform="matrix(0.8427 0.5384 0.5384 -0.8427 28.4829 -55.3988)">
			<stop  offset="0" style="stop-color:#11BAEE"/>
			<stop  offset="1" style="stop-color:#0054A3"/>
		</linearGradient>
		<path fill="url(#SVGID_36_)" d="M150.44,615.22v0.01C150.44,615.24,150.44,615.24,150.44,615.22z"/>
		
			<linearGradient id="SVGID_37_" gradientUnits="userSpaceOnUse" x1="448.8167" y1="-499.4698" x2="479.0148" y2="-499.4698" gradientTransform="matrix(0.8427 0.5384 0.5384 -0.8427 28.4829 -55.3988)">
			<stop  offset="0" style="stop-color:#00A2E9"/>
			<stop  offset="1" style="stop-color:#6E0082"/>
		</linearGradient>
		<path fill="url(#SVGID_37_)" d="M150.44,615.22v0.01C150.44,615.24,150.44,615.24,150.44,615.22z"/>
		
			<linearGradient id="SVGID_38_" gradientUnits="userSpaceOnUse" x1="457.4979" y1="-503.088" x2="616.7787" y2="-503.088" gradientTransform="matrix(0.8427 0.5384 0.5384 -0.8427 28.4829 -55.3988)">
			<stop  offset="0" style="stop-color:#11BAEE"/>
			<stop  offset="1" style="stop-color:#0054A3"/>
		</linearGradient>
		<path fill="url(#SVGID_38_)" d="M149.46,618.86c0,0.02-0.01,0.04-0.01,0.06C149.44,618.9,149.44,618.87,149.46,618.86z"/>
		
			<linearGradient id="SVGID_39_" gradientUnits="userSpaceOnUse" x1="317.6447" y1="-503.088" x2="476.9255" y2="-503.088" gradientTransform="matrix(0.8427 0.5384 0.5384 -0.8427 28.4829 -55.3988)">
			<stop  offset="0" style="stop-color:#00A2E9"/>
			<stop  offset="1" style="stop-color:#6E0082"/>
		</linearGradient>
		<path fill="url(#SVGID_39_)" d="M149.46,618.86c0,0.02-0.01,0.04-0.01,0.06C149.44,618.9,149.44,618.87,149.46,618.86z"/>
		
			<linearGradient id="SVGID_40_" gradientUnits="userSpaceOnUse" x1="457.4979" y1="-506.6671" x2="764.3038" y2="-506.6671" gradientTransform="matrix(0.8427 0.5384 0.5384 -0.8427 28.4829 -55.3988)">
			<stop  offset="0" style="stop-color:#11BAEE"/>
			<stop  offset="1" style="stop-color:#0054A3"/>
		</linearGradient>
		<path fill="url(#SVGID_40_)" d="M148.55,622.5c-0.01,0.04-0.01,0.07-0.02,0.11C148.53,622.58,148.55,622.54,148.55,622.5z"/>
		
			<linearGradient id="SVGID_41_" gradientUnits="userSpaceOnUse" x1="317.6447" y1="-506.6671" x2="624.4506" y2="-506.6671" gradientTransform="matrix(0.8427 0.5384 0.5384 -0.8427 28.4829 -55.3988)">
			<stop  offset="0" style="stop-color:#00A2E9"/>
			<stop  offset="1" style="stop-color:#6E0082"/>
		</linearGradient>
		<path fill="url(#SVGID_41_)" d="M148.55,622.5c-0.01,0.04-0.01,0.07-0.02,0.11C148.53,622.58,148.55,622.54,148.55,622.5z"/>
		
			<linearGradient id="SVGID_42_" gradientUnits="userSpaceOnUse" x1="457.4979" y1="-533.8524" x2="768.6093" y2="-533.8524" gradientTransform="matrix(0.8427 0.5384 0.5384 -0.8427 28.4829 -55.3988)">
			<stop  offset="0" style="stop-color:#11BAEE"/>
			<stop  offset="1" style="stop-color:#0054A3"/>
		</linearGradient>
		<path fill="url(#SVGID_42_)" d="M144.59,651.98c-0.01,0.21-0.01,0.41-0.02,0.62C144.58,652.39,144.58,652.19,144.59,651.98z"/>
		
			<linearGradient id="SVGID_43_" gradientUnits="userSpaceOnUse" x1="317.6447" y1="-533.8524" x2="768.6093" y2="-533.8524" gradientTransform="matrix(0.8427 0.5384 0.5384 -0.8427 28.4829 -55.3988)">
			<stop  offset="0" style="stop-color:#00A2E9"/>
			<stop  offset="1" style="stop-color:#6E0082"/>
		</linearGradient>
		<path fill="url(#SVGID_43_)" d="M144.59,651.98c-0.01,0.21-0.01,0.41-0.02,0.62C144.58,652.39,144.58,652.19,144.59,651.98z"/>
		
			<linearGradient id="SVGID_44_" gradientUnits="userSpaceOnUse" x1="457.4979" y1="-566.0904" x2="768.6093" y2="-566.0904" gradientTransform="matrix(0.8427 0.5384 0.5384 -0.8427 28.4829 -55.3988)">
			<stop  offset="0" style="stop-color:#11BAEE"/>
			<stop  offset="1" style="stop-color:#0054A3"/>
		</linearGradient>
		<path fill="url(#SVGID_44_)" d="M148.62,693.68c-0.1-0.44-0.21-0.87-0.3-1.31C148.41,692.81,148.52,693.25,148.62,693.68z"/>
		
			<linearGradient id="SVGID_45_" gradientUnits="userSpaceOnUse" x1="317.6447" y1="-566.0904" x2="768.6093" y2="-566.0904" gradientTransform="matrix(0.8427 0.5384 0.5384 -0.8427 28.4829 -55.3988)">
			<stop  offset="0" style="stop-color:#00A2E9"/>
			<stop  offset="1" style="stop-color:#6E0082"/>
		</linearGradient>
		<path fill="url(#SVGID_45_)" d="M148.62,693.68c-0.1-0.44-0.21-0.87-0.3-1.31C148.41,692.81,148.52,693.25,148.62,693.68z"/>
		
			<linearGradient id="SVGID_46_" gradientUnits="userSpaceOnUse" x1="457.4979" y1="-542.5674" x2="768.6093" y2="-542.5674" gradientTransform="matrix(0.8427 0.5384 0.5384 -0.8427 28.4829 -55.3988)">
			<stop  offset="0" style="stop-color:#11BAEE"/>
			<stop  offset="1" style="stop-color:#0054A3"/>
		</linearGradient>
		<path fill="url(#SVGID_46_)" d="M419.77,757.43c-11.98,14.45-26.23,26.27-41.89,35.29c-2.12,1.22-4.28,2.4-6.45,3.52
			c-0.69,0.35-1.37,0.73-2.06,1.07c-2.76,1.37-5.58,2.66-8.4,3.87c-0.7,0.3-1.43,0.57-2.13,0.86c-2.28,0.92-4.57,1.79-6.89,2.62
			c-0.85,0.3-1.7,0.61-2.56,0.9c-2.95,0.98-5.91,1.9-8.9,2.72c-0.28,0.07-0.57,0.13-0.86,0.21c-2.76,0.73-5.54,1.37-8.33,1.94
			c-0.9,0.18-1.79,0.35-2.69,0.52c-2.52,0.47-5.07,0.9-7.62,1.25c-0.61,0.08-1.21,0.19-1.82,0.27c-3.07,0.39-6.16,0.67-9.25,0.87
			c-0.81,0.05-1.64,0.08-2.45,0.12c-2.45,0.12-4.91,0.19-7.37,0.21c-0.84,0-1.69,0.01-2.52,0.01c-3.12-0.04-6.23-0.16-9.35-0.38
			c-0.52-0.04-1.03-0.1-1.55-0.15c-2.67-0.22-5.34-0.52-8-0.87c-0.9-0.12-1.81-0.25-2.7-0.39c-2.79-0.42-5.57-0.92-8.33-1.5
			c-0.38-0.07-0.75-0.13-1.13-0.22c-3.1-0.68-6.18-1.47-9.25-2.34c-0.84-0.23-1.66-0.5-2.49-0.74c-2.45-0.74-4.89-1.54-7.3-2.4
			c-0.74-0.27-1.48-0.51-2.21-0.78c-3.01-1.13-6-2.35-8.96-3.67c-0.61-0.28-1.21-0.58-1.82-0.86c-2.44-1.13-4.84-2.33-7.24-3.59
			c-0.81-0.42-1.62-0.86-2.43-1.3c-2.91-1.61-5.81-3.29-8.66-5.11l0,0C282.81,831.96,370.51,816.96,419.77,757.43z"/>
		
			<linearGradient id="SVGID_47_" gradientUnits="userSpaceOnUse" x1="317.6447" y1="-542.5674" x2="768.6093" y2="-542.5674" gradientTransform="matrix(0.8427 0.5384 0.5384 -0.8427 28.4829 -55.3988)">
			<stop  offset="0" style="stop-color:#00A2E9"/>
			<stop  offset="1" style="stop-color:#6E0082"/>
		</linearGradient>
		<path fill="url(#SVGID_47_)" d="M419.77,757.43c-11.98,14.45-26.23,26.27-41.89,35.29c-2.12,1.22-4.28,2.4-6.45,3.52
			c-0.69,0.35-1.37,0.73-2.06,1.07c-2.76,1.37-5.58,2.66-8.4,3.87c-0.7,0.3-1.43,0.57-2.13,0.86c-2.28,0.92-4.57,1.79-6.89,2.62
			c-0.85,0.3-1.7,0.61-2.56,0.9c-2.95,0.98-5.91,1.9-8.9,2.72c-0.28,0.07-0.57,0.13-0.86,0.21c-2.76,0.73-5.54,1.37-8.33,1.94
			c-0.9,0.18-1.79,0.35-2.69,0.52c-2.52,0.47-5.07,0.9-7.62,1.25c-0.61,0.08-1.21,0.19-1.82,0.27c-3.07,0.39-6.16,0.67-9.25,0.87
			c-0.81,0.05-1.64,0.08-2.45,0.12c-2.45,0.12-4.91,0.19-7.37,0.21c-0.84,0-1.69,0.01-2.52,0.01c-3.12-0.04-6.23-0.16-9.35-0.38
			c-0.52-0.04-1.03-0.1-1.55-0.15c-2.67-0.22-5.34-0.52-8-0.87c-0.9-0.12-1.81-0.25-2.7-0.39c-2.79-0.42-5.57-0.92-8.33-1.5
			c-0.38-0.07-0.75-0.13-1.13-0.22c-3.1-0.68-6.18-1.47-9.25-2.34c-0.84-0.23-1.66-0.5-2.49-0.74c-2.45-0.74-4.89-1.54-7.3-2.4
			c-0.74-0.27-1.48-0.51-2.21-0.78c-3.01-1.13-6-2.35-8.96-3.67c-0.61-0.28-1.21-0.58-1.82-0.86c-2.44-1.13-4.84-2.33-7.24-3.59
			c-0.81-0.42-1.62-0.86-2.43-1.3c-2.91-1.61-5.81-3.29-8.66-5.11l0,0C282.81,831.96,370.51,816.96,419.77,757.43z"/>
		
			<linearGradient id="SVGID_48_" gradientUnits="userSpaceOnUse" x1="457.4979" y1="-520.6003" x2="768.6093" y2="-520.6003" gradientTransform="matrix(0.8427 0.5384 0.5384 -0.8427 28.4829 -55.3988)">
			<stop  offset="0" style="stop-color:#11BAEE"/>
			<stop  offset="1" style="stop-color:#0054A3"/>
		</linearGradient>
		<path fill="url(#SVGID_48_)" d="M145.85,637.19c-0.01,0.12-0.04,0.24-0.05,0.35C145.83,637.43,145.84,637.31,145.85,637.19z"/>
		
			<linearGradient id="SVGID_49_" gradientUnits="userSpaceOnUse" x1="317.6447" y1="-520.6003" x2="768.6093" y2="-520.6003" gradientTransform="matrix(0.8427 0.5384 0.5384 -0.8427 28.4829 -55.3988)">
			<stop  offset="0" style="stop-color:#00A2E9"/>
			<stop  offset="1" style="stop-color:#6E0082"/>
		</linearGradient>
		<path fill="url(#SVGID_49_)" d="M145.85,637.19c-0.01,0.12-0.04,0.24-0.05,0.35C145.83,637.43,145.84,637.31,145.85,637.19z"/>
		
			<linearGradient id="SVGID_50_" gradientUnits="userSpaceOnUse" x1="457.4979" y1="-537.0539" x2="768.6093" y2="-537.0539" gradientTransform="matrix(0.8427 0.5384 0.5384 -0.8427 28.4829 -55.3988)">
			<stop  offset="0" style="stop-color:#11BAEE"/>
			<stop  offset="1" style="stop-color:#0054A3"/>
		</linearGradient>
		<path fill="url(#SVGID_50_)" d="M144.5,655.69c0,0.23,0,0.45-0.01,0.68C144.5,656.14,144.5,655.91,144.5,655.69z"/>
		
			<linearGradient id="SVGID_51_" gradientUnits="userSpaceOnUse" x1="317.6447" y1="-537.0539" x2="768.6093" y2="-537.0539" gradientTransform="matrix(0.8427 0.5384 0.5384 -0.8427 28.4829 -55.3988)">
			<stop  offset="0" style="stop-color:#00A2E9"/>
			<stop  offset="1" style="stop-color:#6E0082"/>
		</linearGradient>
		<path fill="url(#SVGID_51_)" d="M144.5,655.69c0,0.23,0,0.45-0.01,0.68C144.5,656.14,144.5,655.91,144.5,655.69z"/>
		
			<linearGradient id="SVGID_52_" gradientUnits="userSpaceOnUse" x1="457.4979" y1="-472.0099" x2="768.6093" y2="-472.0099" gradientTransform="matrix(0.8427 0.5384 0.5384 -0.8427 28.4829 -55.3988)">
			<stop  offset="0" style="stop-color:#11BAEE"/>
			<stop  offset="1" style="stop-color:#0054A3"/>
		</linearGradient>
		<path fill="url(#SVGID_52_)" d="M419.94,757.22c0.86-1.04,1.7-2.09,2.53-3.15C421.64,755.13,420.8,756.18,419.94,757.22z"/>
		
			<linearGradient id="SVGID_53_" gradientUnits="userSpaceOnUse" x1="317.6447" y1="-472.0099" x2="768.6093" y2="-472.0099" gradientTransform="matrix(0.8427 0.5384 0.5384 -0.8427 28.4829 -55.3988)">
			<stop  offset="0" style="stop-color:#00A2E9"/>
			<stop  offset="1" style="stop-color:#6E0082"/>
		</linearGradient>
		<path fill="url(#SVGID_53_)" d="M419.94,757.22c0.86-1.04,1.7-2.09,2.53-3.15C421.64,755.13,420.8,756.18,419.94,757.22z"/>
		
			<linearGradient id="SVGID_54_" gradientUnits="userSpaceOnUse" x1="457.4979" y1="-527.3192" x2="768.6093" y2="-527.3192" gradientTransform="matrix(0.8427 0.5384 0.5384 -0.8427 28.4829 -55.3988)">
			<stop  offset="0" style="stop-color:#11BAEE"/>
			<stop  offset="1" style="stop-color:#0054A3"/>
		</linearGradient>
		<path fill="url(#SVGID_54_)" d="M145.04,644.58c-0.01,0.16-0.02,0.32-0.04,0.47C145.02,644.9,145.03,644.74,145.04,644.58z"/>
		
			<linearGradient id="SVGID_55_" gradientUnits="userSpaceOnUse" x1="317.6447" y1="-527.3192" x2="768.6093" y2="-527.3192" gradientTransform="matrix(0.8427 0.5384 0.5384 -0.8427 28.4829 -55.3988)">
			<stop  offset="0" style="stop-color:#00A2E9"/>
			<stop  offset="1" style="stop-color:#6E0082"/>
		</linearGradient>
		<path fill="url(#SVGID_55_)" d="M145.04,644.58c-0.01,0.16-0.02,0.32-0.04,0.47C145.02,644.9,145.03,644.74,145.04,644.58z"/>
		
			<linearGradient id="SVGID_56_" gradientUnits="userSpaceOnUse" x1="457.4979" y1="-530.6102" x2="768.6093" y2="-530.6102" gradientTransform="matrix(0.8427 0.5384 0.5384 -0.8427 28.4829 -55.3988)">
			<stop  offset="0" style="stop-color:#11BAEE"/>
			<stop  offset="1" style="stop-color:#0054A3"/>
		</linearGradient>
		<path fill="url(#SVGID_56_)" d="M144.77,648.28c-0.01,0.18-0.02,0.36-0.04,0.55C144.75,648.65,144.76,648.46,144.77,648.28z"/>
		
			<linearGradient id="SVGID_57_" gradientUnits="userSpaceOnUse" x1="317.6445" y1="-530.6102" x2="768.6092" y2="-530.6102" gradientTransform="matrix(0.8427 0.5384 0.5384 -0.8427 28.4829 -55.3988)">
			<stop  offset="0" style="stop-color:#00A2E9"/>
			<stop  offset="1" style="stop-color:#6E0082"/>
		</linearGradient>
		<path fill="url(#SVGID_57_)" d="M144.77,648.28c-0.01,0.18-0.02,0.36-0.04,0.55C144.75,648.65,144.76,648.46,144.77,648.28z"/>
		
			<linearGradient id="SVGID_58_" gradientUnits="userSpaceOnUse" x1="457.4979" y1="-523.9843" x2="768.6093" y2="-523.9843" gradientTransform="matrix(0.8427 0.5384 0.5384 -0.8427 28.4829 -55.3988)">
			<stop  offset="0" style="stop-color:#11BAEE"/>
			<stop  offset="1" style="stop-color:#0054A3"/>
		</linearGradient>
		<path fill="url(#SVGID_58_)" d="M145.4,640.88c-0.01,0.13-0.02,0.28-0.05,0.41C145.38,641.16,145.39,641.02,145.4,640.88z"/>
		
			<linearGradient id="SVGID_59_" gradientUnits="userSpaceOnUse" x1="317.6447" y1="-523.9843" x2="768.6093" y2="-523.9843" gradientTransform="matrix(0.8427 0.5384 0.5384 -0.8427 28.4829 -55.3988)">
			<stop  offset="0" style="stop-color:#00A2E9"/>
			<stop  offset="1" style="stop-color:#6E0082"/>
		</linearGradient>
		<path fill="url(#SVGID_59_)" d="M145.4,640.88c-0.01,0.13-0.02,0.28-0.05,0.41C145.38,641.16,145.39,641.02,145.4,640.88z"/>
		
			<linearGradient id="SVGID_60_" gradientUnits="userSpaceOnUse" x1="457.4979" y1="-594.3273" x2="768.6093" y2="-594.3273" gradientTransform="matrix(0.8427 0.5384 0.5384 -0.8427 28.4829 -55.3988)">
			<stop  offset="0" style="stop-color:#11BAEE"/>
			<stop  offset="1" style="stop-color:#0054A3"/>
		</linearGradient>
		<path fill="url(#SVGID_60_)" d="M165.95,737.18c0.33,0.57,0.68,1.13,1.02,1.7C166.61,738.31,166.27,737.75,165.95,737.18z"/>
		
			<linearGradient id="SVGID_61_" gradientUnits="userSpaceOnUse" x1="317.6447" y1="-594.3273" x2="768.6093" y2="-594.3273" gradientTransform="matrix(0.8427 0.5384 0.5384 -0.8427 28.4829 -55.3988)">
			<stop  offset="0" style="stop-color:#00A2E9"/>
			<stop  offset="1" style="stop-color:#6E0082"/>
		</linearGradient>
		<path fill="url(#SVGID_61_)" d="M165.95,737.18c0.33,0.57,0.68,1.13,1.02,1.7C166.61,738.31,166.27,737.75,165.95,737.18z"/>
		
			<linearGradient id="SVGID_62_" gradientUnits="userSpaceOnUse" x1="457.4979" y1="-609.1998" x2="768.6093" y2="-609.1998" gradientTransform="matrix(0.8427 0.5384 0.5384 -0.8427 28.4829 -55.3988)">
			<stop  offset="0" style="stop-color:#11BAEE"/>
			<stop  offset="1" style="stop-color:#0054A3"/>
		</linearGradient>
		<path fill="url(#SVGID_62_)" d="M197.28,775.19c0.57,0.5,1.14,0.98,1.71,1.47C198.42,776.17,197.84,775.68,197.28,775.19z"/>
		
			<linearGradient id="SVGID_63_" gradientUnits="userSpaceOnUse" x1="317.6447" y1="-609.1998" x2="768.6093" y2="-609.1998" gradientTransform="matrix(0.8427 0.5384 0.5384 -0.8427 28.4829 -55.3988)">
			<stop  offset="0" style="stop-color:#00A2E9"/>
			<stop  offset="1" style="stop-color:#6E0082"/>
		</linearGradient>
		<path fill="url(#SVGID_63_)" d="M197.28,775.19c0.57,0.5,1.14,0.98,1.71,1.47C198.42,776.17,197.84,775.68,197.28,775.19z"/>
		
			<linearGradient id="SVGID_64_" gradientUnits="userSpaceOnUse" x1="457.4979" y1="-597.5633" x2="768.6093" y2="-597.5633" gradientTransform="matrix(0.8427 0.5384 0.5384 -0.8427 28.4829 -55.3988)">
			<stop  offset="0" style="stop-color:#11BAEE"/>
			<stop  offset="1" style="stop-color:#0054A3"/>
		</linearGradient>
		<path fill="url(#SVGID_64_)" d="M169.89,743.57c0.38,0.57,0.75,1.14,1.14,1.71C170.65,744.7,170.26,744.14,169.89,743.57z"/>
		
			<linearGradient id="SVGID_65_" gradientUnits="userSpaceOnUse" x1="317.6447" y1="-597.5633" x2="768.6093" y2="-597.5633" gradientTransform="matrix(0.8427 0.5384 0.5384 -0.8427 28.4829 -55.3988)">
			<stop  offset="0" style="stop-color:#00A2E9"/>
			<stop  offset="1" style="stop-color:#6E0082"/>
		</linearGradient>
		<path fill="url(#SVGID_65_)" d="M169.89,743.57c0.38,0.57,0.75,1.14,1.14,1.71C170.65,744.7,170.26,744.14,169.89,743.57z"/>
		
			<linearGradient id="SVGID_66_" gradientUnits="userSpaceOnUse" x1="457.4979" y1="-592.5937" x2="768.6093" y2="-592.5937" gradientTransform="matrix(0.8427 0.5384 0.5384 -0.8427 28.4829 -55.3988)">
			<stop  offset="0" style="stop-color:#11BAEE"/>
			<stop  offset="1" style="stop-color:#0054A3"/>
		</linearGradient>
		<path fill="url(#SVGID_66_)" d="M164.09,733.92c0.32,0.57,0.64,1.13,0.96,1.7C164.73,735.06,164.41,734.49,164.09,733.92z"/>
		
			<linearGradient id="SVGID_67_" gradientUnits="userSpaceOnUse" x1="317.6447" y1="-592.5937" x2="768.6093" y2="-592.5937" gradientTransform="matrix(0.8427 0.5384 0.5384 -0.8427 28.4829 -55.3988)">
			<stop  offset="0" style="stop-color:#00A2E9"/>
			<stop  offset="1" style="stop-color:#6E0082"/>
		</linearGradient>
		<path fill="url(#SVGID_67_)" d="M164.09,733.92c0.32,0.57,0.64,1.13,0.96,1.7C164.73,735.06,164.41,734.49,164.09,733.92z"/>
		
			<linearGradient id="SVGID_68_" gradientUnits="userSpaceOnUse" x1="457.4979" y1="-595.981" x2="768.6093" y2="-595.981" gradientTransform="matrix(0.8427 0.5384 0.5384 -0.8427 28.4829 -55.3988)">
			<stop  offset="0" style="stop-color:#11BAEE"/>
			<stop  offset="1" style="stop-color:#0054A3"/>
		</linearGradient>
		<path fill="url(#SVGID_68_)" d="M167.88,740.4c0.35,0.57,0.72,1.13,1.08,1.7C168.59,741.54,168.23,740.97,167.88,740.4z"/>
		
			<linearGradient id="SVGID_69_" gradientUnits="userSpaceOnUse" x1="317.6447" y1="-595.981" x2="768.6093" y2="-595.981" gradientTransform="matrix(0.8427 0.5384 0.5384 -0.8427 28.4829 -55.3988)">
			<stop  offset="0" style="stop-color:#00A2E9"/>
			<stop  offset="1" style="stop-color:#6E0082"/>
		</linearGradient>
		<path fill="url(#SVGID_69_)" d="M167.88,740.4c0.35,0.57,0.72,1.13,1.08,1.7C168.59,741.54,168.23,740.97,167.88,740.4z"/>
		
			<linearGradient id="SVGID_70_" gradientUnits="userSpaceOnUse" x1="457.4979" y1="-557.968" x2="768.6093" y2="-557.968" gradientTransform="matrix(0.8427 0.5384 0.5384 -0.8427 28.4829 -55.3988)">
			<stop  offset="0" style="stop-color:#11BAEE"/>
			<stop  offset="1" style="stop-color:#0054A3"/>
		</linearGradient>
		<path fill="url(#SVGID_70_)" d="M146.27,681.47c0.06,0.38,0.12,0.75,0.18,1.14C146.39,682.24,146.33,681.85,146.27,681.47z"/>
		
			<linearGradient id="SVGID_71_" gradientUnits="userSpaceOnUse" x1="317.6447" y1="-557.968" x2="768.6093" y2="-557.968" gradientTransform="matrix(0.8427 0.5384 0.5384 -0.8427 28.4829 -55.3988)">
			<stop  offset="0" style="stop-color:#00A2E9"/>
			<stop  offset="1" style="stop-color:#6E0082"/>
		</linearGradient>
		<path fill="url(#SVGID_71_)" d="M146.27,681.47c0.06,0.38,0.12,0.75,0.18,1.14C146.39,682.24,146.33,681.85,146.27,681.47z"/>
		
			<linearGradient id="SVGID_72_" gradientUnits="userSpaceOnUse" x1="457.4979" y1="-588.8973" x2="768.6093" y2="-588.8973" gradientTransform="matrix(0.8427 0.5384 0.5384 -0.8427 28.4829 -55.3988)">
			<stop  offset="0" style="stop-color:#11BAEE"/>
			<stop  offset="1" style="stop-color:#0054A3"/>
		</linearGradient>
		<path fill="url(#SVGID_72_)" d="M160.64,727.3c0.28,0.56,0.56,1.12,0.84,1.67C161.19,728.41,160.9,727.86,160.64,727.3z"/>
		
			<linearGradient id="SVGID_73_" gradientUnits="userSpaceOnUse" x1="317.6447" y1="-588.8973" x2="768.6093" y2="-588.8973" gradientTransform="matrix(0.8427 0.5384 0.5384 -0.8427 28.4829 -55.3988)">
			<stop  offset="0" style="stop-color:#00A2E9"/>
			<stop  offset="1" style="stop-color:#6E0082"/>
		</linearGradient>
		<path fill="url(#SVGID_73_)" d="M160.64,727.3c0.28,0.56,0.56,1.12,0.84,1.67C161.19,728.41,160.9,727.86,160.64,727.3z"/>
		
			<linearGradient id="SVGID_74_" gradientUnits="userSpaceOnUse" x1="457.4979" y1="-590.7888" x2="768.6093" y2="-590.7888" gradientTransform="matrix(0.8427 0.5384 0.5384 -0.8427 28.4829 -55.3988)">
			<stop  offset="0" style="stop-color:#11BAEE"/>
			<stop  offset="1" style="stop-color:#0054A3"/>
		</linearGradient>
		<path fill="url(#SVGID_74_)" d="M162.32,730.63c0.29,0.56,0.59,1.13,0.9,1.69C162.92,731.75,162.61,731.19,162.32,730.63z"/>
		
			<linearGradient id="SVGID_75_" gradientUnits="userSpaceOnUse" x1="317.6447" y1="-590.7888" x2="768.6093" y2="-590.7888" gradientTransform="matrix(0.8427 0.5384 0.5384 -0.8427 28.4829 -55.3988)">
			<stop  offset="0" style="stop-color:#00A2E9"/>
			<stop  offset="1" style="stop-color:#6E0082"/>
		</linearGradient>
		<path fill="url(#SVGID_75_)" d="M162.32,730.63c0.29,0.56,0.59,1.13,0.9,1.69C162.92,731.75,162.61,731.19,162.32,730.63z"/>
		
			<linearGradient id="SVGID_76_" gradientUnits="userSpaceOnUse" x1="457.4979" y1="-607.897" x2="768.6093" y2="-607.897" gradientTransform="matrix(0.8427 0.5384 0.5384 -0.8427 28.4829 -55.3988)">
			<stop  offset="0" style="stop-color:#11BAEE"/>
			<stop  offset="1" style="stop-color:#0054A3"/>
		</linearGradient>
		<path fill="url(#SVGID_76_)" d="M191.6,769.95c0.52,0.51,1.07,1.01,1.6,1.52C192.66,770.95,192.12,770.46,191.6,769.95z"/>
		
			<linearGradient id="SVGID_77_" gradientUnits="userSpaceOnUse" x1="317.6447" y1="-607.897" x2="768.6093" y2="-607.897" gradientTransform="matrix(0.8427 0.5384 0.5384 -0.8427 28.4829 -55.3988)">
			<stop  offset="0" style="stop-color:#00A2E9"/>
			<stop  offset="1" style="stop-color:#6E0082"/>
		</linearGradient>
		<path fill="url(#SVGID_77_)" d="M191.6,769.95c0.52,0.51,1.07,1.01,1.6,1.52C192.66,770.95,192.12,770.46,191.6,769.95z"/>
		
			<linearGradient id="SVGID_78_" gradientUnits="userSpaceOnUse" x1="457.4979" y1="-601.7798" x2="768.6093" y2="-601.7798" gradientTransform="matrix(0.8427 0.5384 0.5384 -0.8427 28.4829 -55.3988)">
			<stop  offset="0" style="stop-color:#11BAEE"/>
			<stop  offset="1" style="stop-color:#0054A3"/>
		</linearGradient>
		<path fill="url(#SVGID_78_)" d="M176.41,752.81c0.42,0.56,0.86,1.12,1.3,1.67C177.29,753.93,176.84,753.38,176.41,752.81z"/>
		
			<linearGradient id="SVGID_79_" gradientUnits="userSpaceOnUse" x1="317.6447" y1="-601.7798" x2="768.6093" y2="-601.7798" gradientTransform="matrix(0.8427 0.5384 0.5384 -0.8427 28.4829 -55.3988)">
			<stop  offset="0" style="stop-color:#00A2E9"/>
			<stop  offset="1" style="stop-color:#6E0082"/>
		</linearGradient>
		<path fill="url(#SVGID_79_)" d="M176.41,752.81c0.42,0.56,0.86,1.12,1.3,1.67C177.29,753.93,176.84,753.38,176.41,752.81z"/>
		
			<linearGradient id="SVGID_80_" gradientUnits="userSpaceOnUse" x1="457.4979" y1="-607.1022" x2="768.6093" y2="-607.1022" gradientTransform="matrix(0.8427 0.5384 0.5384 -0.8427 28.4829 -55.3988)">
			<stop  offset="0" style="stop-color:#11BAEE"/>
			<stop  offset="1" style="stop-color:#0054A3"/>
		</linearGradient>
		<path fill="url(#SVGID_80_)" d="M188.87,767.23c0.51,0.52,1.04,1.04,1.56,1.55C189.91,768.26,189.39,767.75,188.87,767.23z"/>
		
			<linearGradient id="SVGID_81_" gradientUnits="userSpaceOnUse" x1="317.6447" y1="-607.1022" x2="768.6093" y2="-607.1022" gradientTransform="matrix(0.8427 0.5384 0.5384 -0.8427 28.4829 -55.3988)">
			<stop  offset="0" style="stop-color:#00A2E9"/>
			<stop  offset="1" style="stop-color:#6E0082"/>
		</linearGradient>
		<path fill="url(#SVGID_81_)" d="M188.87,767.23c0.51,0.52,1.04,1.04,1.56,1.55C189.91,768.26,189.39,767.75,188.87,767.23z"/>
		
			<linearGradient id="SVGID_82_" gradientUnits="userSpaceOnUse" x1="457.4979" y1="-605.2382" x2="768.6093" y2="-605.2382" gradientTransform="matrix(0.8427 0.5384 0.5384 -0.8427 28.4829 -55.3988)">
			<stop  offset="0" style="stop-color:#11BAEE"/>
			<stop  offset="1" style="stop-color:#0054A3"/>
		</linearGradient>
		<path fill="url(#SVGID_82_)" d="M183.65,761.63c0.47,0.53,0.97,1.07,1.46,1.6C184.62,762.7,184.14,762.16,183.65,761.63z"/>
		
			<linearGradient id="SVGID_83_" gradientUnits="userSpaceOnUse" x1="317.6447" y1="-605.2382" x2="768.6093" y2="-605.2382" gradientTransform="matrix(0.8427 0.5384 0.5384 -0.8427 28.4829 -55.3988)">
			<stop  offset="0" style="stop-color:#00A2E9"/>
			<stop  offset="1" style="stop-color:#6E0082"/>
		</linearGradient>
		<path fill="url(#SVGID_83_)" d="M183.65,761.63c0.47,0.53,0.97,1.07,1.46,1.6C184.62,762.7,184.14,762.16,183.65,761.63z"/>
		
			<linearGradient id="SVGID_84_" gradientUnits="userSpaceOnUse" x1="457.4979" y1="-603.0173" x2="768.6093" y2="-603.0173" gradientTransform="matrix(0.8427 0.5384 0.5384 -0.8427 28.4829 -55.3988)">
			<stop  offset="0" style="stop-color:#11BAEE"/>
			<stop  offset="1" style="stop-color:#0054A3"/>
		</linearGradient>
		<path fill="url(#SVGID_84_)" d="M178.75,755.81c0.45,0.56,0.9,1.1,1.36,1.65C179.65,756.91,179.19,756.37,178.75,755.81z"/>
		
			<linearGradient id="SVGID_85_" gradientUnits="userSpaceOnUse" x1="317.6447" y1="-603.0173" x2="768.6093" y2="-603.0173" gradientTransform="matrix(0.8427 0.5384 0.5384 -0.8427 28.4829 -55.3988)">
			<stop  offset="0" style="stop-color:#00A2E9"/>
			<stop  offset="1" style="stop-color:#6E0082"/>
		</linearGradient>
		<path fill="url(#SVGID_85_)" d="M178.75,755.81c0.45,0.56,0.9,1.1,1.36,1.65C179.65,756.91,179.19,756.37,178.75,755.81z"/>
		
			<linearGradient id="SVGID_86_" gradientUnits="userSpaceOnUse" x1="457.4979" y1="-599.049" x2="768.6093" y2="-599.049" gradientTransform="matrix(0.8427 0.5384 0.5384 -0.8427 28.4829 -55.3988)">
			<stop  offset="0" style="stop-color:#11BAEE"/>
			<stop  offset="1" style="stop-color:#0054A3"/>
		</linearGradient>
		<path fill="url(#SVGID_86_)" d="M171.99,746.7c0.39,0.57,0.8,1.14,1.2,1.7C172.77,747.83,172.37,747.27,171.99,746.7z"/>
		
			<linearGradient id="SVGID_87_" gradientUnits="userSpaceOnUse" x1="317.6447" y1="-599.049" x2="768.6093" y2="-599.049" gradientTransform="matrix(0.8427 0.5384 0.5384 -0.8427 28.4829 -55.3988)">
			<stop  offset="0" style="stop-color:#00A2E9"/>
			<stop  offset="1" style="stop-color:#6E0082"/>
		</linearGradient>
		<path fill="url(#SVGID_87_)" d="M171.99,746.7c0.39,0.57,0.8,1.14,1.2,1.7C172.77,747.83,172.37,747.27,171.99,746.7z"/>
		
			<linearGradient id="SVGID_88_" gradientUnits="userSpaceOnUse" x1="457.4979" y1="-606.2119" x2="768.6093" y2="-606.2119" gradientTransform="matrix(0.8427 0.5384 0.5384 -0.8427 28.4829 -55.3988)">
			<stop  offset="0" style="stop-color:#11BAEE"/>
			<stop  offset="1" style="stop-color:#0054A3"/>
		</linearGradient>
		<path fill="url(#SVGID_88_)" d="M186.22,764.45c0.5,0.53,1.01,1.05,1.5,1.58C187.23,765.51,186.72,764.99,186.22,764.45z"/>
		
			<linearGradient id="SVGID_89_" gradientUnits="userSpaceOnUse" x1="317.6447" y1="-606.2119" x2="768.6093" y2="-606.2119" gradientTransform="matrix(0.8427 0.5384 0.5384 -0.8427 28.4829 -55.3988)">
			<stop  offset="0" style="stop-color:#00A2E9"/>
			<stop  offset="1" style="stop-color:#6E0082"/>
		</linearGradient>
		<path fill="url(#SVGID_89_)" d="M186.22,764.45c0.5,0.53,1.01,1.05,1.5,1.58C187.23,765.51,186.72,764.99,186.22,764.45z"/>
		
			<linearGradient id="SVGID_90_" gradientUnits="userSpaceOnUse" x1="457.4979" y1="-600.4576" x2="768.6093" y2="-600.4576" gradientTransform="matrix(0.8427 0.5384 0.5384 -0.8427 28.4829 -55.3988)">
			<stop  offset="0" style="stop-color:#11BAEE"/>
			<stop  offset="1" style="stop-color:#0054A3"/>
		</linearGradient>
		<path fill="url(#SVGID_90_)" d="M174.16,749.78c0.41,0.57,0.84,1.13,1.25,1.69C174.99,750.91,174.57,750.35,174.16,749.78z"/>
		
			<linearGradient id="SVGID_91_" gradientUnits="userSpaceOnUse" x1="317.6447" y1="-600.4576" x2="768.6093" y2="-600.4576" gradientTransform="matrix(0.8427 0.5384 0.5384 -0.8427 28.4829 -55.3988)">
			<stop  offset="0" style="stop-color:#00A2E9"/>
			<stop  offset="1" style="stop-color:#6E0082"/>
		</linearGradient>
		<path fill="url(#SVGID_91_)" d="M174.16,749.78c0.41,0.57,0.84,1.13,1.25,1.69C174.99,750.91,174.57,750.35,174.16,749.78z"/>
		
			<linearGradient id="SVGID_92_" gradientUnits="userSpaceOnUse" x1="457.4979" y1="-608.6036" x2="768.6093" y2="-608.6036" gradientTransform="matrix(0.8427 0.5384 0.5384 -0.8427 28.4829 -55.3988)">
			<stop  offset="0" style="stop-color:#11BAEE"/>
			<stop  offset="1" style="stop-color:#0054A3"/>
		</linearGradient>
		<path fill="url(#SVGID_92_)" d="M194.4,772.6c0.55,0.5,1.1,0.99,1.65,1.49C195.5,773.59,194.94,773.1,194.4,772.6z"/>
		
			<linearGradient id="SVGID_93_" gradientUnits="userSpaceOnUse" x1="317.6447" y1="-608.6036" x2="768.6093" y2="-608.6036" gradientTransform="matrix(0.8427 0.5384 0.5384 -0.8427 28.4829 -55.3988)">
			<stop  offset="0" style="stop-color:#00A2E9"/>
			<stop  offset="1" style="stop-color:#6E0082"/>
		</linearGradient>
		<path fill="url(#SVGID_93_)" d="M194.4,772.6c0.55,0.5,1.1,0.99,1.65,1.49C195.5,773.59,194.94,773.1,194.4,772.6z"/>
		
			<linearGradient id="SVGID_94_" gradientUnits="userSpaceOnUse" x1="457.4979" y1="-586.9378" x2="768.6093" y2="-586.9378" gradientTransform="matrix(0.8427 0.5384 0.5384 -0.8427 28.4829 -55.3988)">
			<stop  offset="0" style="stop-color:#11BAEE"/>
			<stop  offset="1" style="stop-color:#0054A3"/>
		</linearGradient>
		<path fill="url(#SVGID_94_)" d="M159.02,723.94c0.25,0.56,0.52,1.1,0.79,1.65C159.54,725.04,159.28,724.49,159.02,723.94z"/>
		
			<linearGradient id="SVGID_95_" gradientUnits="userSpaceOnUse" x1="317.6447" y1="-586.9378" x2="768.6093" y2="-586.9378" gradientTransform="matrix(0.8427 0.5384 0.5384 -0.8427 28.4829 -55.3988)">
			<stop  offset="0" style="stop-color:#00A2E9"/>
			<stop  offset="1" style="stop-color:#6E0082"/>
		</linearGradient>
		<path fill="url(#SVGID_95_)" d="M159.02,723.94c0.25,0.56,0.52,1.1,0.79,1.65C159.54,725.04,159.28,724.49,159.02,723.94z"/>
		
			<linearGradient id="SVGID_96_" gradientUnits="userSpaceOnUse" x1="457.4979" y1="-610.4685" x2="768.6093" y2="-610.4685" gradientTransform="matrix(0.8427 0.5384 0.5384 -0.8427 28.4829 -55.3988)">
			<stop  offset="0" style="stop-color:#11BAEE"/>
			<stop  offset="1" style="stop-color:#0054A3"/>
		</linearGradient>
		<path fill="url(#SVGID_96_)" d="M206.37,782.58c0.67,0.5,1.35,0.99,2.03,1.49C207.71,783.58,207.03,783.08,206.37,782.58z"/>
		
			<linearGradient id="SVGID_97_" gradientUnits="userSpaceOnUse" x1="317.6447" y1="-610.4685" x2="768.6093" y2="-610.4685" gradientTransform="matrix(0.8427 0.5384 0.5384 -0.8427 28.4829 -55.3988)">
			<stop  offset="0" style="stop-color:#00A2E9"/>
			<stop  offset="1" style="stop-color:#6E0082"/>
		</linearGradient>
		<path fill="url(#SVGID_97_)" d="M206.37,782.58c0.67,0.5,1.35,0.99,2.03,1.49C207.71,783.58,207.03,783.08,206.37,782.58z"/>
		
			<linearGradient id="SVGID_98_" gradientUnits="userSpaceOnUse" x1="457.4979" y1="-568.6758" x2="768.6093" y2="-568.6758" gradientTransform="matrix(0.8427 0.5384 0.5384 -0.8427 28.4829 -55.3988)">
			<stop  offset="0" style="stop-color:#11BAEE"/>
			<stop  offset="1" style="stop-color:#0054A3"/>
		</linearGradient>
		<path fill="url(#SVGID_98_)" d="M149.16,695.98c0.11,0.45,0.23,0.91,0.35,1.36C149.39,696.87,149.29,696.42,149.16,695.98z"/>
		
			<linearGradient id="SVGID_99_" gradientUnits="userSpaceOnUse" x1="317.6447" y1="-568.6758" x2="768.6093" y2="-568.6758" gradientTransform="matrix(0.8427 0.5384 0.5384 -0.8427 28.4829 -55.3988)">
			<stop  offset="0" style="stop-color:#00A2E9"/>
			<stop  offset="1" style="stop-color:#6E0082"/>
		</linearGradient>
		<path fill="url(#SVGID_99_)" d="M149.16,695.98c0.11,0.45,0.23,0.91,0.35,1.36C149.39,696.87,149.29,696.42,149.16,695.98z"/>
		
			<linearGradient id="SVGID_100_" gradientUnits="userSpaceOnUse" x1="457.4979" y1="-573.6519" x2="768.6093" y2="-573.6519" gradientTransform="matrix(0.8427 0.5384 0.5384 -0.8427 28.4829 -55.3988)">
			<stop  offset="0" style="stop-color:#11BAEE"/>
			<stop  offset="1" style="stop-color:#0054A3"/>
		</linearGradient>
		<path fill="url(#SVGID_100_)" d="M151.13,703.12c0.15,0.49,0.3,0.97,0.45,1.46C151.43,704.08,151.27,703.6,151.13,703.12z"/>
		
			<linearGradient id="SVGID_101_" gradientUnits="userSpaceOnUse" x1="317.6447" y1="-573.6519" x2="768.6093" y2="-573.6519" gradientTransform="matrix(0.8427 0.5384 0.5384 -0.8427 28.4829 -55.3988)">
			<stop  offset="0" style="stop-color:#00A2E9"/>
			<stop  offset="1" style="stop-color:#6E0082"/>
		</linearGradient>
		<path fill="url(#SVGID_101_)" d="M151.13,703.12c0.15,0.49,0.3,0.97,0.45,1.46C151.43,704.08,151.27,703.6,151.13,703.12z"/>
		
			<linearGradient id="SVGID_102_" gradientUnits="userSpaceOnUse" x1="457.4979" y1="-610.6864" x2="768.6093" y2="-610.6864" gradientTransform="matrix(0.8427 0.5384 0.5384 -0.8427 28.4829 -55.3988)">
			<stop  offset="0" style="stop-color:#11BAEE"/>
			<stop  offset="1" style="stop-color:#0054A3"/>
		</linearGradient>
		<path fill="url(#SVGID_102_)" d="M209.54,784.91c0.73,0.52,1.47,1.03,2.21,1.53C211.01,785.93,210.27,785.43,209.54,784.91z"/>
		
			<linearGradient id="SVGID_103_" gradientUnits="userSpaceOnUse" x1="317.6447" y1="-610.6864" x2="768.6093" y2="-610.6864" gradientTransform="matrix(0.8427 0.5384 0.5384 -0.8427 28.4829 -55.3988)">
			<stop  offset="0" style="stop-color:#00A2E9"/>
			<stop  offset="1" style="stop-color:#6E0082"/>
		</linearGradient>
		<path fill="url(#SVGID_103_)" d="M209.54,784.91c0.73,0.52,1.47,1.03,2.21,1.53C211.01,785.93,210.27,785.43,209.54,784.91z"/>
		
			<linearGradient id="SVGID_104_" gradientUnits="userSpaceOnUse" x1="457.4979" y1="-560.7347" x2="768.6093" y2="-560.7347" gradientTransform="matrix(0.8427 0.5384 0.5384 -0.8427 28.4829 -55.3988)">
			<stop  offset="0" style="stop-color:#11BAEE"/>
			<stop  offset="1" style="stop-color:#0054A3"/>
		</linearGradient>
		<path fill="url(#SVGID_104_)" d="M146.86,685.12c0.07,0.4,0.15,0.8,0.22,1.19C147.01,685.92,146.93,685.52,146.86,685.12z"/>
		
			<linearGradient id="SVGID_105_" gradientUnits="userSpaceOnUse" x1="317.6447" y1="-560.7347" x2="768.6093" y2="-560.7347" gradientTransform="matrix(0.8427 0.5384 0.5384 -0.8427 28.4829 -55.3988)">
			<stop  offset="0" style="stop-color:#00A2E9"/>
			<stop  offset="1" style="stop-color:#6E0082"/>
		</linearGradient>
		<path fill="url(#SVGID_105_)" d="M146.86,685.12c0.07,0.4,0.15,0.8,0.22,1.19C147.01,685.92,146.93,685.52,146.86,685.12z"/>
		
			<linearGradient id="SVGID_106_" gradientUnits="userSpaceOnUse" x1="457.4979" y1="-610.8068" x2="768.6093" y2="-610.8068" gradientTransform="matrix(0.8427 0.5384 0.5384 -0.8427 28.4829 -55.3988)">
			<stop  offset="0" style="stop-color:#11BAEE"/>
			<stop  offset="1" style="stop-color:#0054A3"/>
		</linearGradient>
		<path fill="url(#SVGID_106_)" d="M212.8,787.17c1.09,0.74,2.19,1.47,3.32,2.18C215,788.64,213.9,787.91,212.8,787.17z"/>
		
			<linearGradient id="SVGID_107_" gradientUnits="userSpaceOnUse" x1="317.6447" y1="-610.8068" x2="768.6093" y2="-610.8068" gradientTransform="matrix(0.8427 0.5384 0.5384 -0.8427 28.4829 -55.3988)">
			<stop  offset="0" style="stop-color:#00A2E9"/>
			<stop  offset="1" style="stop-color:#6E0082"/>
		</linearGradient>
		<path fill="url(#SVGID_107_)" d="M212.8,787.17c1.09,0.74,2.19,1.47,3.32,2.18C215,788.64,213.9,787.91,212.8,787.17z"/>
		
			<linearGradient id="SVGID_108_" gradientUnits="userSpaceOnUse" x1="457.4979" y1="-563.4505" x2="768.6093" y2="-563.4505" gradientTransform="matrix(0.8427 0.5384 0.5384 -0.8427 28.4829 -55.3988)">
			<stop  offset="0" style="stop-color:#11BAEE"/>
			<stop  offset="1" style="stop-color:#0054A3"/>
		</linearGradient>
		<path fill="url(#SVGID_108_)" d="M147.54,688.76c0.08,0.41,0.17,0.84,0.25,1.25C147.72,689.58,147.62,689.17,147.54,688.76z"/>
		
			<linearGradient id="SVGID_109_" gradientUnits="userSpaceOnUse" x1="317.6447" y1="-563.4505" x2="768.6093" y2="-563.4505" gradientTransform="matrix(0.8427 0.5384 0.5384 -0.8427 28.4829 -55.3988)">
			<stop  offset="0" style="stop-color:#00A2E9"/>
			<stop  offset="1" style="stop-color:#6E0082"/>
		</linearGradient>
		<path fill="url(#SVGID_109_)" d="M147.54,688.76c0.08,0.41,0.17,0.84,0.25,1.25C147.72,689.58,147.62,689.17,147.54,688.76z"/>
		
			<linearGradient id="SVGID_110_" gradientUnits="userSpaceOnUse" x1="457.4979" y1="-571.1936" x2="768.6093" y2="-571.1936" gradientTransform="matrix(0.8427 0.5384 0.5384 -0.8427 28.4829 -55.3988)">
			<stop  offset="0" style="stop-color:#11BAEE"/>
			<stop  offset="1" style="stop-color:#0054A3"/>
		</linearGradient>
		<path fill="url(#SVGID_110_)" d="M150.11,699.55c0.13,0.47,0.27,0.95,0.4,1.42C150.38,700.5,150.23,700.03,150.11,699.55z"/>
		
			<linearGradient id="SVGID_111_" gradientUnits="userSpaceOnUse" x1="317.6447" y1="-571.1936" x2="768.6093" y2="-571.1936" gradientTransform="matrix(0.8427 0.5384 0.5384 -0.8427 28.4829 -55.3988)">
			<stop  offset="0" style="stop-color:#00A2E9"/>
			<stop  offset="1" style="stop-color:#6E0082"/>
		</linearGradient>
		<path fill="url(#SVGID_111_)" d="M150.11,699.55c0.13,0.47,0.27,0.95,0.4,1.42C150.38,700.5,150.23,700.03,150.11,699.55z"/>
		
			<linearGradient id="SVGID_112_" gradientUnits="userSpaceOnUse" x1="457.4979" y1="-580.5994" x2="768.6093" y2="-580.5994" gradientTransform="matrix(0.8427 0.5384 0.5384 -0.8427 28.4829 -55.3988)">
			<stop  offset="0" style="stop-color:#11BAEE"/>
			<stop  offset="1" style="stop-color:#0054A3"/>
		</linearGradient>
		<path fill="url(#SVGID_112_)" d="M154.71,713.64c0.19,0.52,0.4,1.04,0.61,1.56C155.11,714.7,154.9,714.18,154.71,713.64z"/>
		
			<linearGradient id="SVGID_113_" gradientUnits="userSpaceOnUse" x1="317.6447" y1="-580.5994" x2="768.6093" y2="-580.5994" gradientTransform="matrix(0.8427 0.5384 0.5384 -0.8427 28.4829 -55.3988)">
			<stop  offset="0" style="stop-color:#00A2E9"/>
			<stop  offset="1" style="stop-color:#6E0082"/>
		</linearGradient>
		<path fill="url(#SVGID_113_)" d="M154.71,713.64c0.19,0.52,0.4,1.04,0.61,1.56C155.11,714.7,154.9,714.18,154.71,713.64z"/>
		
			<linearGradient id="SVGID_114_" gradientUnits="userSpaceOnUse" x1="457.4979" y1="-582.7898" x2="768.6093" y2="-582.7898" gradientTransform="matrix(0.8427 0.5384 0.5384 -0.8427 28.4829 -55.3988)">
			<stop  offset="0" style="stop-color:#11BAEE"/>
			<stop  offset="1" style="stop-color:#0054A3"/>
		</linearGradient>
		<path fill="url(#SVGID_114_)" d="M156.06,717.11c0.22,0.53,0.45,1.07,0.67,1.6C156.5,718.18,156.28,717.65,156.06,717.11z"/>
		
			<linearGradient id="SVGID_115_" gradientUnits="userSpaceOnUse" x1="317.6447" y1="-582.7898" x2="768.6093" y2="-582.7898" gradientTransform="matrix(0.8427 0.5384 0.5384 -0.8427 28.4829 -55.3988)">
			<stop  offset="0" style="stop-color:#00A2E9"/>
			<stop  offset="1" style="stop-color:#6E0082"/>
		</linearGradient>
		<path fill="url(#SVGID_115_)" d="M156.06,717.11c0.22,0.53,0.45,1.07,0.67,1.6C156.5,718.18,156.28,717.65,156.06,717.11z"/>
		
			<linearGradient id="SVGID_116_" gradientUnits="userSpaceOnUse" x1="457.4979" y1="-609.7188" x2="768.6093" y2="-609.7188" gradientTransform="matrix(0.8427 0.5384 0.5384 -0.8427 28.4829 -55.3988)">
			<stop  offset="0" style="stop-color:#11BAEE"/>
			<stop  offset="1" style="stop-color:#0054A3"/>
		</linearGradient>
		<path fill="url(#SVGID_116_)" d="M200.23,777.72c0.57,0.47,1.16,0.95,1.75,1.42C201.39,778.67,200.81,778.19,200.23,777.72z"/>
		
			<linearGradient id="SVGID_117_" gradientUnits="userSpaceOnUse" x1="317.6447" y1="-609.7188" x2="768.6093" y2="-609.7188" gradientTransform="matrix(0.8427 0.5384 0.5384 -0.8427 28.4829 -55.3988)">
			<stop  offset="0" style="stop-color:#00A2E9"/>
			<stop  offset="1" style="stop-color:#6E0082"/>
		</linearGradient>
		<path fill="url(#SVGID_117_)" d="M200.23,777.72c0.57,0.47,1.16,0.95,1.75,1.42C201.39,778.67,200.81,778.19,200.23,777.72z"/>
		
			<linearGradient id="SVGID_118_" gradientUnits="userSpaceOnUse" x1="457.4979" y1="-584.9001" x2="768.6093" y2="-584.9001" gradientTransform="matrix(0.8427 0.5384 0.5384 -0.8427 28.4829 -55.3988)">
			<stop  offset="0" style="stop-color:#11BAEE"/>
			<stop  offset="1" style="stop-color:#0054A3"/>
		</linearGradient>
		<path fill="url(#SVGID_118_)" d="M157.5,720.53c0.24,0.55,0.49,1.09,0.73,1.64C157.98,721.62,157.74,721.08,157.5,720.53z"/>
		
			<linearGradient id="SVGID_119_" gradientUnits="userSpaceOnUse" x1="317.6447" y1="-584.9001" x2="768.6093" y2="-584.9001" gradientTransform="matrix(0.8427 0.5384 0.5384 -0.8427 28.4829 -55.3988)">
			<stop  offset="0" style="stop-color:#00A2E9"/>
			<stop  offset="1" style="stop-color:#6E0082"/>
		</linearGradient>
		<path fill="url(#SVGID_119_)" d="M157.5,720.53c0.24,0.55,0.49,1.09,0.73,1.64C157.98,721.62,157.74,721.08,157.5,720.53z"/>
		
			<linearGradient id="SVGID_120_" gradientUnits="userSpaceOnUse" x1="457.4979" y1="-576.0355" x2="768.6093" y2="-576.0355" gradientTransform="matrix(0.8427 0.5384 0.5384 -0.8427 28.4829 -55.3988)">
			<stop  offset="0" style="stop-color:#11BAEE"/>
			<stop  offset="1" style="stop-color:#0054A3"/>
		</linearGradient>
		<path fill="url(#SVGID_120_)" d="M152.23,706.65c0.17,0.5,0.34,1.01,0.51,1.5C152.57,707.65,152.4,707.16,152.23,706.65z"/>
		
			<linearGradient id="SVGID_121_" gradientUnits="userSpaceOnUse" x1="317.6447" y1="-576.0355" x2="768.6093" y2="-576.0355" gradientTransform="matrix(0.8427 0.5384 0.5384 -0.8427 28.4829 -55.3988)">
			<stop  offset="0" style="stop-color:#00A2E9"/>
			<stop  offset="1" style="stop-color:#6E0082"/>
		</linearGradient>
		<path fill="url(#SVGID_121_)" d="M152.23,706.65c0.17,0.5,0.34,1.01,0.51,1.5C152.57,707.65,152.4,707.16,152.23,706.65z"/>
		
			<linearGradient id="SVGID_122_" gradientUnits="userSpaceOnUse" x1="457.4979" y1="-610.1331" x2="768.6093" y2="-610.1331" gradientTransform="matrix(0.8427 0.5384 0.5384 -0.8427 28.4829 -55.3988)">
			<stop  offset="0" style="stop-color:#11BAEE"/>
			<stop  offset="1" style="stop-color:#0054A3"/>
		</linearGradient>
		<path fill="url(#SVGID_122_)" d="M203.26,780.18c0.61,0.47,1.21,0.95,1.83,1.41C204.49,781.13,203.87,780.67,203.26,780.18z"/>
		
			<linearGradient id="SVGID_123_" gradientUnits="userSpaceOnUse" x1="317.6447" y1="-610.1331" x2="768.6093" y2="-610.1331" gradientTransform="matrix(0.8427 0.5384 0.5384 -0.8427 28.4829 -55.3988)">
			<stop  offset="0" style="stop-color:#00A2E9"/>
			<stop  offset="1" style="stop-color:#6E0082"/>
		</linearGradient>
		<path fill="url(#SVGID_123_)" d="M203.26,780.18c0.61,0.47,1.21,0.95,1.83,1.41C204.49,781.13,203.87,780.67,203.26,780.18z"/>
		
			<linearGradient id="SVGID_124_" gradientUnits="userSpaceOnUse" x1="457.4979" y1="-578.3615" x2="768.6093" y2="-578.3615" gradientTransform="matrix(0.8427 0.5384 0.5384 -0.8427 28.4829 -55.3988)">
			<stop  offset="0" style="stop-color:#11BAEE"/>
			<stop  offset="1" style="stop-color:#0054A3"/>
		</linearGradient>
		<path fill="url(#SVGID_124_)" d="M153.42,710.16c0.18,0.52,0.38,1.03,0.56,1.54C153.8,711.19,153.6,710.67,153.42,710.16z"/>
		
			<linearGradient id="SVGID_125_" gradientUnits="userSpaceOnUse" x1="317.6447" y1="-578.3615" x2="768.6093" y2="-578.3615" gradientTransform="matrix(0.8427 0.5384 0.5384 -0.8427 28.4829 -55.3988)">
			<stop  offset="0" style="stop-color:#00A2E9"/>
			<stop  offset="1" style="stop-color:#6E0082"/>
		</linearGradient>
		<path fill="url(#SVGID_125_)" d="M153.42,710.16c0.18,0.52,0.38,1.03,0.56,1.54C153.8,711.19,153.6,710.67,153.42,710.16z"/>
	</g>
	<g>
		
			<linearGradient id="SVGID_126_" gradientUnits="userSpaceOnUse" x1="405.7074" y1="-327.7613" x2="594.2899" y2="-30.8616" gradientTransform="matrix(0.8427 0.5384 0.5384 -0.8427 28.4829 -55.3988)">
			<stop  offset="0" style="stop-color:#6E0082"/>
			<stop  offset="1" style="stop-color:#00A2E9"/>
		</linearGradient>
		<path fill-rule="evenodd" clip-rule="evenodd" fill="url(#SVGID_126_)" d="M536.6,409.82c2.45,4.95,4.41,10.22,5.66,15.86
			l-3.36-15.23c-1.24-5.64-3.2-10.91-5.65-15.86l-23.34-105.97c-8.23-37.4-45.24-61.06-82.64-52.81l-213.15,46.95
			c-37.4,8.23-61.05,45.24-52.8,82.64c4.23,19.22,16.1,34.77,31.69,44.26c15.16,10.15,34.25,14.39,53.47,10.16l213.15-46.95
			c18.18-4,36.22-0.42,50.96,8.55c14.33,9.59,25.16,24.48,29.16,42.65L536.6,409.82z"/>
		
			<linearGradient id="SVGID_127_" gradientUnits="userSpaceOnUse" x1="544.853" y1="-205.9633" x2="768.5408" y2="-205.9633" gradientTransform="matrix(0.8427 0.5384 0.5384 -0.8427 28.4829 -55.3988)">
			<stop  offset="0" style="stop-color:#11BAEE"/>
			<stop  offset="1" style="stop-color:#0054A3"/>
		</linearGradient>
		<path fill-rule="evenodd" clip-rule="evenodd" fill="url(#SVGID_127_)" d="M391.89,387.8l32.04,145.43
			c8.23,37.4,45.24,61.05,82.64,52.81s61.05-45.24,52.81-82.64l-17.12-77.71c-8.23-37.4-45.24-61.05-82.64-52.81L391.89,387.8z"/>
	</g>
</g>
</svg>
