<?xml version="1.0" encoding="utf-8"?>
<!-- Generator: Adobe Illustrator 24.0.1, SVG Export Plug-In . SVG Version: 6.00 Build 0)  -->
<svg version="1.1" id="Layer_1" xmlns="http://www.w3.org/2000/svg" xmlns:xlink="http://www.w3.org/1999/xlink" x="0px" y="0px"
	 viewBox="0 0 1080 1080" enable-background="new 0 0 1080 1080" xml:space="preserve">
<g>
	<g>
		<path fill="none" d="M357.49,920.19c0.63,0.73,1.23,1.44,1.88,2.18C358.72,921.63,358.12,920.92,357.49,920.19z"/>
		<path fill="none" d="M310.48,842.29c0.42,1.09,0.86,2.18,1.3,3.26C311.31,844.47,310.89,843.38,310.48,842.29z"/>
		<path fill="none" d="M308.17,836.23c0.4,1.13,0.82,2.24,1.23,3.35C308.99,838.46,308.59,837.36,308.17,836.23z"/>
		<path fill="none" d="M315.5,854.28c0.46,1.03,0.9,2.03,1.38,3.05C316.4,856.31,315.96,855.31,315.5,854.28z"/>
		<path fill="none" d="M318.22,860.18c0.46,0.98,0.94,1.97,1.42,2.95C319.16,862.15,318.7,861.17,318.22,860.18z"/>
		<path fill="none" d="M312.9,848.32c0.44,1.05,0.88,2.09,1.34,3.14C313.78,850.41,313.34,849.37,312.9,848.32z"/>
		<path fill="none" d="M302.17,817.69c0.36,1.23,0.71,2.47,1.07,3.7C302.88,820.18,302.52,818.94,302.17,817.69z"/>
		<path fill="none" d="M300.47,811.43c0.33,1.28,0.67,2.55,1,3.83C301.12,813.98,300.81,812.71,300.47,811.43z"/>
		<path fill="none" d="M298.93,805.13c0.31,1.32,0.63,2.64,0.94,3.95C299.53,807.77,299.22,806.45,298.93,805.13z"/>
		<path fill="none" d="M306.02,830.1c0.4,1.15,0.77,2.32,1.19,3.47C306.81,832.42,306.42,831.25,306.02,830.1z"/>
		<path fill="none" d="M304.03,823.9c0.38,1.19,0.75,2.41,1.13,3.6C304.76,826.31,304.39,825.12,304.03,823.9z"/>
		<path fill="none" d="M345.14,904.83c0.59,0.77,1.15,1.55,1.74,2.32C346.3,906.4,345.73,905.61,345.14,904.83z"/>
		<path fill="none" d="M324.12,871.79c0.5,0.92,0.98,1.86,1.51,2.78C325.1,873.64,324.62,872.71,324.12,871.79z"/>
		<path fill="none" d="M353.24,915.17c0.61,0.73,1.21,1.49,1.82,2.22C354.46,916.65,353.85,915.9,353.24,915.17z"/>
		<path fill="none" d="M341.29,899.54c0.56,0.8,1.11,1.59,1.69,2.39C342.4,901.13,341.86,900.33,341.29,899.54z"/>
		<path fill="none" d="M349.12,910.04c0.59,0.75,1.17,1.53,1.78,2.28C350.29,911.57,349.71,910.79,349.12,910.04z"/>
		<path fill="none" d="M337.59,894.14c0.54,0.82,1.09,1.63,1.65,2.45C338.68,895.79,338.14,894.96,337.59,894.14z"/>
		<path fill="none" d="M327.28,877.49c0.5,0.9,1.03,1.8,1.53,2.68C328.28,879.28,327.78,878.38,327.28,877.49z"/>
		<path fill="none" d="M330.56,883.11c0.52,0.88,1.05,1.76,1.59,2.62C331.61,884.87,331.08,883.99,330.56,883.11z"/>
		<path fill="none" d="M333.99,888.66c0.54,0.86,1.07,1.69,1.61,2.53C335.08,890.35,334.54,889.52,333.99,888.66z"/>
		<path fill="none" d="M321.1,866.02c0.48,0.96,0.96,1.92,1.46,2.87C322.07,867.92,321.59,866.96,321.1,866.02z"/>
		<path fill="none" d="M295.01,701.8c-0.31,1.95-0.59,3.91-0.86,5.86C294.41,705.71,294.7,703.76,295.01,701.8z"/>
		<path fill="none" d="M293.3,714.75c-0.21,1.88-0.38,3.77-0.54,5.67C292.92,718.53,293.11,716.63,293.3,714.75z"/>
		<path fill="none" d="M294.07,708.28c-0.25,1.92-0.48,3.83-0.69,5.75C293.59,712.11,293.82,710.19,294.07,708.28z"/>
		<path fill="none" d="M292.69,721.23c-0.15,1.86-0.29,3.7-0.4,5.57C292.4,724.94,292.54,723.1,292.69,721.23z"/>
		<path fill="none" d="M296.1,695.35c-0.36,1.99-0.69,3.95-1,5.94C295.39,699.33,295.72,697.34,296.1,695.35z"/>
		<path fill="none" d="M302.06,669.78c-0.59,2.07-1.17,4.16-1.69,6.23C300.89,673.95,301.46,671.86,302.06,669.78z"/>
		<path fill="none" d="M292.23,727.74c-0.1,1.82-0.19,3.62-0.27,5.44C292.04,731.36,292.13,729.56,292.23,727.74z"/>
		<path fill="none" d="M300.33,676.15c-0.52,2.05-1.05,4.12-1.53,6.19C299.28,680.27,299.78,678.2,300.33,676.15z"/>
		<path fill="none" d="M298.76,682.53c-0.48,2.03-0.92,4.08-1.34,6.11C297.84,686.59,298.28,684.56,298.76,682.53z"/>
		<path fill="none" d="M291.94,734.25c-0.06,1.78-0.1,3.56-0.13,5.34C291.83,737.8,291.88,736.03,291.94,734.25z"/>
		<path fill="none" d="M294.22,779.61c0.21,1.49,0.42,2.97,0.63,4.46C294.64,782.58,294.43,781.09,294.22,779.61z"/>
		<path fill="none" d="M293.42,773.16c0.17,1.53,0.36,3.05,0.54,4.6C293.78,776.22,293.59,774.69,293.42,773.16z"/>
		<path fill="none" d="M295.16,786.03c0.23,1.44,0.46,2.89,0.71,4.33C295.64,788.92,295.39,787.48,295.16,786.03z"/>
		<path fill="none" d="M292.8,766.7c0.15,1.57,0.27,3.16,0.44,4.73C293.07,769.86,292.92,768.27,292.8,766.7z"/>
		<path fill="none" d="M291.81,747.24c0.02,1.69,0.06,3.39,0.13,5.11C291.88,750.65,291.83,748.94,291.81,747.24z"/>
		<path fill="none" d="M292.31,760.21c0.1,1.61,0.21,3.24,0.33,4.85C292.52,763.46,292.4,761.84,292.31,760.21z"/>
		<path fill="none" d="M296.27,792.41c0.25,1.4,0.52,2.8,0.8,4.21C296.79,795.24,296.52,793.84,296.27,792.41z"/>
		<path fill="none" d="M291.79,740.75c-0.02,1.74-0.02,3.47,0,5.21C291.77,744.23,291.77,742.49,291.79,740.75z"/>
		<path fill="none" d="M291.98,753.75c0.06,1.65,0.15,3.33,0.23,4.98C292.13,757.05,292.04,755.4,291.98,753.75z"/>
		<path fill="none" d="M297.34,688.93c-0.42,2.01-0.82,4.02-1.17,6.03C296.54,692.95,296.94,690.94,297.34,688.93z"/>
		<path fill="none" d="M780.61,896.82c0.42-0.61,0.86-1.21,1.28-1.84C781.47,895.6,781.03,896.21,780.61,896.82z"/>
		<path fill="none" d="M375.82,939.31c0.69,0.65,1.38,1.32,2.09,1.97C377.2,940.63,376.53,939.98,375.82,939.31z"/>
		<path fill="none" d="M407.85,965.17c0.61,0.42,1.19,0.84,1.8,1.26C409.04,966.03,408.46,965.59,407.85,965.17z"/>
		<path fill="none" d="M371.07,934.71c0.67,0.67,1.34,1.34,2.01,1.99C372.39,936.05,371.74,935.38,371.07,934.71z"/>
		<path fill="none" d="M415.4,970.22l-0.02-0.02L415.4,970.22z"/>
		<path fill="none" d="M776.01,903.26c0.46-0.63,0.94-1.28,1.4-1.9C776.95,901.99,776.47,902.61,776.01,903.26z"/>
		<path fill="none" d="M402.05,961.07c0.67,0.48,1.32,0.98,1.99,1.44C403.37,962.06,402.72,961.55,402.05,961.07z"/>
		<path fill="none" d="M298.38,802.87c-0.31-1.36-0.59-2.72-0.88-4.08C297.8,800.15,298.09,801.51,298.38,802.87z"/>
		<path fill="none" d="M380.76,943.85c0.71,0.63,1.4,1.28,2.11,1.9C382.16,945.13,381.47,944.5,380.76,943.85z"/>
		<path fill="none" d="M390.97,952.58c0.75,0.61,1.49,1.21,2.22,1.8C392.45,953.79,391.72,953.18,390.97,952.58z"/>
		<path fill="none" d="M766.74,915.13c0.1-0.13,0.19-0.25,0.29-0.38C766.95,914.87,766.84,915,766.74,915.13z"/>
		<path fill="none" d="M361.88,925.13c0.65,0.71,1.28,1.42,1.92,2.11C363.16,926.55,362.51,925.84,361.88,925.13z"/>
		<path fill="none" d="M771.43,909.31c0.4-0.5,0.8-1.03,1.17-1.53C772.2,908.28,771.8,908.81,771.43,909.31z"/>
		<path fill="none" d="M385.84,948.29c0.71,0.61,1.42,1.23,2.13,1.82C387.24,949.52,386.55,948.92,385.84,948.29z"/>
		<path fill="none" d="M366.4,929.98c0.65,0.69,1.3,1.38,1.97,2.05C367.7,931.34,367.05,930.65,366.4,929.98z"/>
		<path fill="none" d="M396.36,956.82c0.73,0.57,1.46,1.13,2.2,1.69C397.81,957.95,397.1,957.39,396.36,956.82z"/>
		
			<linearGradient id="SVGID_1_" gradientUnits="userSpaceOnUse" x1="536.906" y1="1175.123" x2="842.371" y2="1175.123" gradientTransform="matrix(0.8427 0.5384 0.5384 -0.8427 -428.5651 1508.7614)">
			<stop  offset="0" style="stop-color:#11BAEE"/>
			<stop  offset="1" style="stop-color:#0054A3"/>
		</linearGradient>
		<path fill="url(#SVGID_1_)" d="M786.11,888.55L786.11,888.55c-0.52,0.84-1.09,1.65-1.63,2.49
			C785.03,890.23,785.59,889.41,786.11,888.55z"/>
		
			<linearGradient id="SVGID_2_" gradientUnits="userSpaceOnUse" x1="152.9111" y1="1172.4508" x2="689.5533" y2="1172.4508" gradientTransform="matrix(0.8427 0.5384 0.5384 -0.8427 -428.5651 1508.7614)">
			<stop  offset="0" style="stop-color:#11BAEE"/>
			<stop  offset="1" style="stop-color:#0054A3"/>
		</linearGradient>
		<path fill="url(#SVGID_2_)" d="M722.84,539.58L582.85,758.66c-21.8,34.1-55.74,56.26-92.83,64.44l0.06,0.33
			c-36.97,8.06-77.08,2.11-111.37-19.79c-30.15-19.27-50.99-47.79-61.18-79.46c-12.7-39.63-7.55-85.28,14.12-121.29
			c-13.18,21.32-23.02,43.83-29.61,66.89v0.02c-0.59,2.07-1.17,4.16-1.69,6.23c0,0.04-0.02,0.06-0.02,0.1
			c-0.54,2.05-1.05,4.12-1.53,6.19c-0.02,0.06-0.02,0.13-0.04,0.19c-0.48,2.03-0.92,4.08-1.34,6.11c-0.02,0.1-0.04,0.21-0.06,0.29
			c-0.42,2.01-0.82,4.02-1.17,6.03c-0.02,0.13-0.04,0.27-0.08,0.4c-0.36,1.99-0.69,3.95-1,5.94c-0.02,0.17-0.04,0.33-0.08,0.48
			c-0.31,1.95-0.59,3.91-0.86,5.86c-0.02,0.21-0.06,0.42-0.08,0.61c-0.25,1.92-0.48,3.83-0.69,5.75c-0.02,0.23-0.04,0.48-0.08,0.71
			c-0.21,1.88-0.38,3.77-0.54,5.67c-0.02,0.27-0.04,0.54-0.06,0.82c-0.15,1.86-0.29,3.7-0.4,5.57c-0.02,0.31-0.04,0.63-0.06,0.94
			c-0.1,1.82-0.19,3.62-0.27,5.44c-0.02,0.36-0.02,0.71-0.04,1.07c-0.06,1.78-0.1,3.56-0.13,5.34c0,0.4,0,0.77-0.02,1.17
			c-0.02,1.74-0.02,3.47,0,5.21c0,0.42,0.02,0.86,0.02,1.28c0.02,1.69,0.06,3.39,0.13,5.11c0.02,0.46,0.04,0.94,0.06,1.4
			c0.06,1.65,0.15,3.33,0.23,4.98c0.02,0.5,0.06,1,0.08,1.51c0.1,1.61,0.21,3.24,0.33,4.85c0.04,0.54,0.08,1.09,0.15,1.63
			c0.15,1.57,0.27,3.16,0.44,4.73c0.06,0.59,0.13,1.15,0.19,1.74c0.17,1.53,0.36,3.05,0.54,4.6c0.08,0.63,0.17,1.23,0.25,1.86
			c0.21,1.49,0.42,2.97,0.63,4.46c0.1,0.65,0.21,1.3,0.31,1.97c0.23,1.44,0.46,2.89,0.71,4.33c0.13,0.69,0.25,1.38,0.38,2.05
			c0.25,1.4,0.52,2.8,0.8,4.21c0.15,0.71,0.29,1.44,0.44,2.16c0.29,1.36,0.56,2.72,0.88,4.08c0.17,0.75,0.36,1.51,0.52,2.26
			c0.31,1.32,0.63,2.64,0.94,3.95c0.19,0.77,0.4,1.57,0.61,2.34c0.33,1.28,0.67,2.55,1,3.83c0.23,0.82,0.46,1.63,0.69,2.45
			c0.36,1.23,0.71,2.47,1.07,3.7c0.25,0.84,0.52,1.67,0.77,2.51c0.38,1.19,0.75,2.41,1.13,3.6c0.27,0.86,0.59,1.74,0.88,2.59
			c0.4,1.15,0.77,2.32,1.19,3.47c0.31,0.9,0.65,1.78,0.96,2.66c0.4,1.13,0.82,2.24,1.23,3.35c0.33,0.9,0.69,1.8,1.05,2.7
			c0.42,1.09,0.86,2.18,1.3,3.26c0.38,0.92,0.77,1.84,1.15,2.76c0.44,1.05,0.88,2.09,1.34,3.14c0.42,0.94,0.84,1.88,1.26,2.82
			c0.46,1.03,0.9,2.03,1.38,3.05c0.44,0.96,0.9,1.9,1.36,2.85c0.46,0.98,0.94,1.97,1.42,2.95c0.48,0.96,0.96,1.92,1.44,2.89
			c0.48,0.96,0.96,1.92,1.46,2.87c0.5,0.96,1.03,1.95,1.55,2.91c0.5,0.92,0.98,1.86,1.51,2.78c0.54,0.98,1.11,1.95,1.65,2.93
			c0.5,0.9,1.03,1.8,1.53,2.68c0.56,0.98,1.17,1.95,1.76,2.93c0.52,0.88,1.05,1.76,1.59,2.62c0.61,0.98,1.23,1.95,1.86,2.93
			c0.54,0.86,1.07,1.69,1.61,2.53c0.65,0.98,1.3,1.97,1.97,2.95c0.54,0.82,1.09,1.63,1.65,2.45c0.67,0.98,1.38,1.97,2.07,2.93
			c0.56,0.8,1.11,1.59,1.69,2.39c0.71,0.98,1.44,1.95,2.16,2.91c0.59,0.77,1.15,1.55,1.74,2.32c0.73,0.96,1.49,1.92,2.24,2.89
			c0.59,0.75,1.17,1.53,1.78,2.28c0.77,0.96,1.55,1.9,2.34,2.85c0.61,0.73,1.21,1.49,1.82,2.22c0.8,0.94,1.61,1.88,2.43,2.8
			c0.63,0.73,1.23,1.44,1.88,2.18c0.82,0.92,1.67,1.84,2.51,2.76c0.65,0.71,1.28,1.42,1.92,2.11c0.86,0.92,1.74,1.82,2.59,2.72
			c0.65,0.69,1.3,1.38,1.97,2.05c0.88,0.9,1.8,1.8,2.7,2.68c0.67,0.67,1.34,1.34,2.01,1.99c0.9,0.88,1.84,1.74,2.76,2.62
			c0.69,0.65,1.38,1.32,2.09,1.97c0.94,0.86,1.9,1.72,2.85,2.57c0.71,0.63,1.4,1.28,2.11,1.9c0.98,0.86,1.97,1.69,2.95,2.53
			c0.71,0.61,1.42,1.23,2.13,1.82c0.98,0.82,2.01,1.63,3.01,2.45c0.75,0.61,1.49,1.21,2.22,1.8c1.05,0.82,2.09,1.63,3.16,2.43
			c0.73,0.56,1.46,1.13,2.2,1.69c1.15,0.86,2.32,1.72,3.49,2.57c0.67,0.48,1.32,0.98,1.99,1.44c1.26,0.9,2.53,1.78,3.81,2.64
			c0.61,0.42,1.19,0.84,1.8,1.26c1.88,1.28,3.81,2.53,5.73,3.77c0,0,0,0,0.02,0c4.92,3.14,9.9,6.03,14.94,8.81
			c1.38,0.77,2.78,1.51,4.18,2.24c4.12,2.18,8.29,4.25,12.49,6.19c1.05,0.48,2.09,1,3.14,1.49c5.11,2.28,10.27,4.39,15.46,6.34
			c1.26,0.48,2.53,0.9,3.81,1.34c4.18,1.49,8.37,2.87,12.6,4.14c1.42,0.44,2.87,0.88,4.29,1.28c5.29,1.51,10.61,2.87,15.96,4.04
			c0.65,0.15,1.3,0.25,1.95,0.38c4.77,1,9.56,1.84,14.37,2.59c1.55,0.23,3.12,0.46,4.67,0.67c4.6,0.63,9.21,1.13,13.81,1.51
			c0.9,0.06,1.78,0.19,2.68,0.25c5.38,0.4,10.75,0.59,16.13,0.65c1.46,0.02,2.91,0,4.35-0.02c4.25-0.02,8.49-0.13,12.72-0.36
			c1.4-0.06,2.82-0.13,4.23-0.21c5.34-0.36,10.65-0.84,15.96-1.51c1.05-0.13,2.09-0.31,3.14-0.46c4.39-0.61,8.77-1.32,13.14-2.16
			c1.55-0.29,3.1-0.59,4.64-0.9c4.81-1,9.62-2.09,14.37-3.35c0.48-0.13,0.98-0.23,1.49-0.36c5.17-1.4,10.27-2.99,15.36-4.69
			c1.49-0.5,2.95-1.03,4.41-1.55c4-1.4,7.95-2.91,11.88-4.52c1.23-0.5,2.47-0.96,3.68-1.49c4.9-2.07,9.73-4.31,14.5-6.67
			c1.19-0.59,2.36-1.23,3.56-1.84c3.77-1.92,7.47-3.95,11.13-6.07c27.01-15.57,51.62-35.95,72.27-60.89
			c0.1-0.13,0.19-0.25,0.29-0.38c1.49-1.8,2.93-3.62,4.37-5.44c0.4-0.5,0.8-1.03,1.17-1.53c1.15-1.49,2.28-2.99,3.41-4.52
			c0.46-0.63,0.94-1.28,1.4-1.9c1.09-1.49,2.16-3.01,3.2-4.54c0.42-0.61,0.86-1.21,1.28-1.84c1.44-2.11,2.87-4.25,4.25-6.42l0,0
			l138.99-217.53c-44.02,9-88.98,0.71-126.94-23.56C759.48,622.73,732.74,584.42,722.84,539.58z"/>
		
			<linearGradient id="SVGID_3_" gradientUnits="userSpaceOnUse" x1="-88.2611" y1="1111.6477" x2="689.7632" y2="1111.6477" gradientTransform="matrix(0.8427 0.5384 0.5384 -0.8427 -428.5651 1508.7614)">
			<stop  offset="0" style="stop-color:#00A2E9"/>
			<stop  offset="1" style="stop-color:#6E0082"/>
		</linearGradient>
		<path fill="url(#SVGID_3_)" d="M780.61,896.82c-1.05,1.53-2.11,3.03-3.2,4.54c-0.46,0.65-0.94,1.28-1.4,1.9
			c-1.13,1.53-2.26,3.03-3.41,4.52c-0.4,0.5-0.8,1.03-1.17,1.53c-1.44,1.84-2.89,3.66-4.37,5.44c-0.1,0.13-0.19,0.25-0.29,0.38
			c-84.99,102.71-236.3,128.59-351.34,55.09l0,0l0,0c0,0,0,0-0.02,0c-1.92-1.23-3.85-2.49-5.73-3.77c-0.61-0.42-1.21-0.84-1.8-1.26
			c-1.28-0.88-2.55-1.76-3.81-2.64c-0.67-0.48-1.32-0.96-1.99-1.44c-1.17-0.86-2.34-1.69-3.49-2.57c-0.73-0.56-1.46-1.13-2.2-1.69
			c-1.05-0.82-2.11-1.61-3.16-2.43c-0.75-0.59-1.49-1.21-2.22-1.8c-1-0.82-2.01-1.61-3.01-2.45c-0.73-0.61-1.42-1.21-2.13-1.82
			c-0.98-0.84-1.99-1.67-2.95-2.53c-0.71-0.63-1.4-1.28-2.11-1.9c-0.94-0.86-1.9-1.69-2.85-2.57c-0.71-0.65-1.38-1.32-2.09-1.97
			c-0.92-0.88-1.84-1.74-2.76-2.62c-0.67-0.65-1.34-1.34-2.01-1.99c-0.9-0.9-1.8-1.78-2.7-2.68c-0.67-0.67-1.32-1.36-1.97-2.05
			c-0.88-0.9-1.74-1.82-2.59-2.72c-0.65-0.69-1.28-1.4-1.92-2.11c-0.84-0.92-1.67-1.84-2.51-2.76c-0.63-0.71-1.26-1.44-1.88-2.18
			c-0.82-0.94-1.63-1.86-2.43-2.8c-0.61-0.73-1.21-1.49-1.82-2.22c-0.77-0.94-1.57-1.9-2.34-2.85c-0.61-0.75-1.19-1.51-1.78-2.28
			c-0.75-0.96-1.51-1.9-2.24-2.89c-0.59-0.77-1.15-1.55-1.74-2.32c-0.73-0.96-1.44-1.95-2.16-2.91c-0.56-0.8-1.13-1.59-1.69-2.39
			c-0.69-0.98-1.38-1.95-2.07-2.93c-0.56-0.82-1.11-1.63-1.65-2.45c-0.65-0.98-1.32-1.95-1.97-2.95c-0.54-0.84-1.09-1.69-1.61-2.53
			c-0.63-0.98-1.26-1.95-1.86-2.93c-0.54-0.88-1.07-1.74-1.59-2.62c-0.59-0.98-1.17-1.95-1.76-2.93c-0.52-0.9-1.03-1.8-1.53-2.68
			c-0.56-0.98-1.11-1.95-1.65-2.93c-0.5-0.92-1-1.84-1.51-2.78c-0.52-0.96-1.05-1.92-1.55-2.91c-0.5-0.96-0.98-1.9-1.46-2.87
			c-0.48-0.96-0.98-1.92-1.44-2.89c-0.48-0.98-0.94-1.97-1.42-2.95c-0.46-0.94-0.92-1.9-1.36-2.85c-0.46-1-0.92-2.03-1.38-3.05
			c-0.42-0.94-0.84-1.88-1.26-2.82c-0.46-1.05-0.88-2.09-1.34-3.14c-0.38-0.92-0.77-1.84-1.15-2.76c-0.44-1.09-0.86-2.18-1.3-3.26
			c-0.36-0.9-0.71-1.8-1.05-2.7c-0.42-1.11-0.84-2.24-1.23-3.35c-0.31-0.88-0.65-1.78-0.96-2.66c-0.4-1.15-0.8-2.3-1.19-3.47
			c-0.29-0.86-0.59-1.72-0.88-2.59c-0.4-1.19-0.75-2.39-1.13-3.6c-0.25-0.84-0.52-1.67-0.77-2.51c-0.38-1.23-0.73-2.47-1.07-3.7
			c-0.23-0.82-0.46-1.63-0.69-2.45c-0.36-1.28-0.69-2.55-1-3.83c-0.21-0.77-0.42-1.57-0.61-2.34c-0.33-1.32-0.65-2.64-0.94-3.95
			c-0.17-0.75-0.36-1.51-0.52-2.26c-0.31-1.36-0.59-2.72-0.88-4.08c-0.15-0.71-0.31-1.44-0.44-2.16c-0.27-1.4-0.54-2.8-0.8-4.21
			c-0.13-0.69-0.25-1.38-0.38-2.05c-0.25-1.44-0.48-2.89-0.71-4.33c-0.1-0.65-0.21-1.3-0.31-1.97c-0.23-1.49-0.44-2.97-0.63-4.46
			c-0.08-0.63-0.17-1.23-0.25-1.86c-0.19-1.53-0.38-3.05-0.54-4.6c-0.06-0.59-0.13-1.15-0.19-1.74c-0.17-1.57-0.31-3.16-0.44-4.73
			c-0.04-0.54-0.1-1.09-0.15-1.63c-0.13-1.61-0.25-3.24-0.33-4.85c-0.02-0.5-0.06-1-0.08-1.51c-0.1-1.65-0.17-3.33-0.23-4.98
			c-0.02-0.46-0.04-0.94-0.06-1.4c-0.06-1.69-0.08-3.39-0.13-5.11c0-0.42-0.02-0.86-0.02-1.28c-0.02-1.74-0.02-3.47,0-5.21
			c0-0.4,0-0.77,0.02-1.17c0.02-1.78,0.06-3.56,0.13-5.34c0.02-0.36,0.02-0.71,0.04-1.07c0.06-1.82,0.17-3.62,0.27-5.44
			c0.02-0.31,0.04-0.63,0.06-0.94c0.1-1.86,0.25-3.7,0.4-5.57c0.02-0.27,0.04-0.54,0.06-0.82c0.17-1.88,0.33-3.77,0.54-5.67
			c0.02-0.23,0.04-0.48,0.08-0.71c0.21-1.92,0.44-3.83,0.69-5.75c0.02-0.21,0.06-0.42,0.08-0.61c0.27-1.95,0.54-3.91,0.86-5.86
			c0.02-0.17,0.04-0.33,0.08-0.48c0.31-1.99,0.65-3.98,1-5.94c0.02-0.13,0.04-0.27,0.08-0.4c0.38-2.01,0.75-4.02,1.17-6.03
			c0.02-0.1,0.04-0.21,0.06-0.29c0.42-2.05,0.88-4.08,1.34-6.11c0.02-0.06,0.02-0.13,0.04-0.19c0.48-2.07,0.98-4.12,1.53-6.19
			c0-0.04,0.02-0.06,0.02-0.1c0.54-2.09,1.11-4.16,1.69-6.23v-0.02c6.95-24.29,17.45-47.96,31.7-70.28l136.81-214.1
			c-42.08,7.13-84.76-1.53-121.08-24.75c-0.73-0.46-1.46-0.94-2.18-1.42c-0.73-0.46-1.46-0.92-2.2-1.38
			c-38.39-24.54-65.01-62.37-75.09-106.62L130.54,469.72c-57.66,90.26-73.21,195.82-51.76,293.09l0.4,0.25
			c21.42,97.29,79.74,186.46,169.73,243.96c89.97,57.5,195.38,72.94,292.67,51.49l0.42,0.27c96.39-21.24,184.87-78.82,242.56-167.61
			c-0.86,1.32-1.72,2.64-2.62,3.93C781.47,895.6,781.03,896.21,780.61,896.82z"/>
		
			<linearGradient id="SVGID_4_" gradientUnits="userSpaceOnUse" x1="152.8984" y1="1024.7468" x2="689.6767" y2="1024.7468" gradientTransform="matrix(0.8427 0.5384 0.5384 -0.8427 -428.5651 1508.7614)">
			<stop  offset="0" style="stop-color:#11BAEE"/>
			<stop  offset="1" style="stop-color:#0054A3"/>
		</linearGradient>
		<path fill="url(#SVGID_4_)" d="M291.92,752.35c0.02,0.46,0.04,0.94,0.06,1.4C291.96,753.27,291.94,752.81,291.92,752.35z"/>
		
			<linearGradient id="SVGID_5_" gradientUnits="userSpaceOnUse" x1="-88.3982" y1="1024.7468" x2="689.6767" y2="1024.7468" gradientTransform="matrix(0.8427 0.5384 0.5384 -0.8427 -428.5651 1508.7614)">
			<stop  offset="0" style="stop-color:#00A2E9"/>
			<stop  offset="1" style="stop-color:#6E0082"/>
		</linearGradient>
		<path fill="url(#SVGID_5_)" d="M291.92,752.35c0.02,0.46,0.04,0.94,0.06,1.4C291.96,753.27,291.94,752.81,291.92,752.35z"/>
		
			<linearGradient id="SVGID_6_" gradientUnits="userSpaceOnUse" x1="152.8984" y1="1009.2694" x2="689.6767" y2="1009.2694" gradientTransform="matrix(0.8427 0.5384 0.5384 -0.8427 -428.5651 1508.7614)">
			<stop  offset="0" style="stop-color:#11BAEE"/>
			<stop  offset="1" style="stop-color:#0054A3"/>
		</linearGradient>
		<path fill="url(#SVGID_6_)" d="M293.24,771.43c0.06,0.59,0.13,1.15,0.19,1.74C293.36,772.58,293.3,772.01,293.24,771.43z"/>
		
			<linearGradient id="SVGID_7_" gradientUnits="userSpaceOnUse" x1="-88.3982" y1="1009.2694" x2="689.6767" y2="1009.2694" gradientTransform="matrix(0.8427 0.5384 0.5384 -0.8427 -428.5651 1508.7614)">
			<stop  offset="0" style="stop-color:#00A2E9"/>
			<stop  offset="1" style="stop-color:#6E0082"/>
		</linearGradient>
		<path fill="url(#SVGID_7_)" d="M293.24,771.43c0.06,0.59,0.13,1.15,0.19,1.74C293.36,772.58,293.3,772.01,293.24,771.43z"/>
		
			<linearGradient id="SVGID_8_" gradientUnits="userSpaceOnUse" x1="152.8984" y1="1030.0984" x2="689.6767" y2="1030.0984" gradientTransform="matrix(0.8427 0.5384 0.5384 -0.8427 -428.5651 1508.7614)">
			<stop  offset="0" style="stop-color:#11BAEE"/>
			<stop  offset="1" style="stop-color:#0054A3"/>
		</linearGradient>
		<path fill="url(#SVGID_8_)" d="M291.79,745.96c0,0.42,0.02,0.86,0.02,1.28C291.79,746.82,291.79,746.38,291.79,745.96z"/>
		
			<linearGradient id="SVGID_9_" gradientUnits="userSpaceOnUse" x1="-88.3982" y1="1030.0984" x2="689.6767" y2="1030.0984" gradientTransform="matrix(0.8427 0.5384 0.5384 -0.8427 -428.5651 1508.7614)">
			<stop  offset="0" style="stop-color:#00A2E9"/>
			<stop  offset="1" style="stop-color:#6E0082"/>
		</linearGradient>
		<path fill="url(#SVGID_9_)" d="M291.79,745.96c0,0.42,0.02,0.86,0.02,1.28C291.79,746.82,291.79,746.38,291.79,745.96z"/>
		
			<linearGradient id="SVGID_10_" gradientUnits="userSpaceOnUse" x1="152.8984" y1="1163.9272" x2="689.6767" y2="1163.9272" gradientTransform="matrix(0.8427 0.5384 0.5384 -0.8427 -428.5651 1508.7614)">
			<stop  offset="0" style="stop-color:#11BAEE"/>
			<stop  offset="1" style="stop-color:#0054A3"/>
		</linearGradient>
		<path fill="url(#SVGID_10_)" d="M777.41,901.34c1.09-1.49,2.16-3.01,3.2-4.54C779.54,898.35,778.48,899.85,777.41,901.34z"/>
		
			<linearGradient id="SVGID_11_" gradientUnits="userSpaceOnUse" x1="-88.3982" y1="1163.9272" x2="689.6767" y2="1163.9272" gradientTransform="matrix(0.8427 0.5384 0.5384 -0.8427 -428.5651 1508.7614)">
			<stop  offset="0" style="stop-color:#00A2E9"/>
			<stop  offset="1" style="stop-color:#6E0082"/>
		</linearGradient>
		<path fill="url(#SVGID_11_)" d="M777.41,901.34c1.09-1.49,2.16-3.01,3.2-4.54C779.54,898.35,778.48,899.85,777.41,901.34z"/>
		
			<linearGradient id="SVGID_12_" gradientUnits="userSpaceOnUse" x1="152.8984" y1="1155.9535" x2="689.6767" y2="1155.9535" gradientTransform="matrix(0.8427 0.5384 0.5384 -0.8427 -428.5651 1508.7614)">
			<stop  offset="0" style="stop-color:#11BAEE"/>
			<stop  offset="1" style="stop-color:#0054A3"/>
		</linearGradient>
		<path fill="url(#SVGID_12_)" d="M772.6,907.78c1.15-1.49,2.28-2.99,3.41-4.52C774.88,904.79,773.75,906.3,772.6,907.78z"/>
		
			<linearGradient id="SVGID_13_" gradientUnits="userSpaceOnUse" x1="-88.3982" y1="1155.9535" x2="689.6767" y2="1155.9535" gradientTransform="matrix(0.8427 0.5384 0.5384 -0.8427 -428.5651 1508.7614)">
			<stop  offset="0" style="stop-color:#00A2E9"/>
			<stop  offset="1" style="stop-color:#6E0082"/>
		</linearGradient>
		<path fill="url(#SVGID_13_)" d="M772.6,907.78c1.15-1.49,2.28-2.99,3.41-4.52C774.88,904.79,773.75,906.3,772.6,907.78z"/>
		
			<linearGradient id="SVGID_14_" gradientUnits="userSpaceOnUse" x1="152.8984" y1="1004.303" x2="689.6767" y2="1004.303" gradientTransform="matrix(0.8427 0.5384 0.5384 -0.8427 -428.5651 1508.7614)">
			<stop  offset="0" style="stop-color:#11BAEE"/>
			<stop  offset="1" style="stop-color:#0054A3"/>
		</linearGradient>
		<path fill="url(#SVGID_14_)" d="M293.97,777.75c0.08,0.63,0.17,1.23,0.25,1.86C294.13,779,294.05,778.37,293.97,777.75z"/>
		
			<linearGradient id="SVGID_15_" gradientUnits="userSpaceOnUse" x1="-88.3982" y1="1004.303" x2="689.6767" y2="1004.303" gradientTransform="matrix(0.8427 0.5384 0.5384 -0.8427 -428.5651 1508.7614)">
			<stop  offset="0" style="stop-color:#00A2E9"/>
			<stop  offset="1" style="stop-color:#6E0082"/>
		</linearGradient>
		<path fill="url(#SVGID_15_)" d="M293.97,777.75c0.08,0.63,0.17,1.23,0.25,1.86C294.13,779,294.05,778.37,293.97,777.75z"/>
		
			<linearGradient id="SVGID_16_" gradientUnits="userSpaceOnUse" x1="152.8984" y1="1019.4885" x2="689.6767" y2="1019.4885" gradientTransform="matrix(0.8427 0.5384 0.5384 -0.8427 -428.5651 1508.7614)">
			<stop  offset="0" style="stop-color:#11BAEE"/>
			<stop  offset="1" style="stop-color:#0054A3"/>
		</linearGradient>
		<path fill="url(#SVGID_16_)" d="M292.21,758.73c0.02,0.5,0.06,1,0.08,1.51C292.27,759.71,292.25,759.21,292.21,758.73z"/>
		
			<linearGradient id="SVGID_17_" gradientUnits="userSpaceOnUse" x1="-88.3982" y1="1019.4885" x2="689.6767" y2="1019.4885" gradientTransform="matrix(0.8427 0.5384 0.5384 -0.8427 -428.5651 1508.7614)">
			<stop  offset="0" style="stop-color:#00A2E9"/>
			<stop  offset="1" style="stop-color:#6E0082"/>
		</linearGradient>
		<path fill="url(#SVGID_17_)" d="M292.21,758.73c0.02,0.5,0.06,1,0.08,1.51C292.27,759.71,292.25,759.21,292.21,758.73z"/>
		
			<linearGradient id="SVGID_18_" gradientUnits="userSpaceOnUse" x1="152.8984" y1="1014.3467" x2="689.6767" y2="1014.3467" gradientTransform="matrix(0.8427 0.5384 0.5384 -0.8427 -428.5651 1508.7614)">
			<stop  offset="0" style="stop-color:#11BAEE"/>
			<stop  offset="1" style="stop-color:#0054A3"/>
		</linearGradient>
		<path fill="url(#SVGID_18_)" d="M292.65,765.07c0.04,0.54,0.08,1.09,0.15,1.63C292.73,766.15,292.69,765.61,292.65,765.07z"/>
		
			<linearGradient id="SVGID_19_" gradientUnits="userSpaceOnUse" x1="-88.3982" y1="1014.3467" x2="689.6767" y2="1014.3467" gradientTransform="matrix(0.8427 0.5384 0.5384 -0.8427 -428.5651 1508.7614)">
			<stop  offset="0" style="stop-color:#00A2E9"/>
			<stop  offset="1" style="stop-color:#6E0082"/>
		</linearGradient>
		<path fill="url(#SVGID_19_)" d="M292.65,765.07c0.04,0.54,0.08,1.09,0.15,1.63C292.73,766.15,292.69,765.61,292.65,765.07z"/>
		
			<linearGradient id="SVGID_20_" gradientUnits="userSpaceOnUse" x1="152.8984" y1="919.7132" x2="689.6767" y2="919.7132" gradientTransform="matrix(0.8427 0.5384 0.5384 -0.8427 -428.5651 1508.7614)">
			<stop  offset="0" style="stop-color:#11BAEE"/>
			<stop  offset="1" style="stop-color:#0054A3"/>
		</linearGradient>
		<path fill="url(#SVGID_20_)" d="M355.06,917.39c0.8,0.94,1.61,1.88,2.43,2.8C356.67,919.25,355.86,918.33,355.06,917.39z"/>
		
			<linearGradient id="SVGID_21_" gradientUnits="userSpaceOnUse" x1="-88.3982" y1="919.7132" x2="689.6767" y2="919.7132" gradientTransform="matrix(0.8427 0.5384 0.5384 -0.8427 -428.5651 1508.7614)">
			<stop  offset="0" style="stop-color:#00A2E9"/>
			<stop  offset="1" style="stop-color:#6E0082"/>
		</linearGradient>
		<path fill="url(#SVGID_21_)" d="M355.06,917.39c0.8,0.94,1.61,1.88,2.43,2.8C356.67,919.25,355.86,918.33,355.06,917.39z"/>
		
			<linearGradient id="SVGID_22_" gradientUnits="userSpaceOnUse" x1="152.8984" y1="1075.78" x2="689.6767" y2="1075.78" gradientTransform="matrix(0.8427 0.5384 0.5384 -0.8427 -428.5651 1508.7614)">
			<stop  offset="0" style="stop-color:#11BAEE"/>
			<stop  offset="1" style="stop-color:#0054A3"/>
		</linearGradient>
		<path fill="url(#SVGID_22_)" d="M296.16,694.95c-0.02,0.13-0.04,0.27-0.08,0.4C296.12,695.23,296.14,695.1,296.16,694.95z"/>
		
			<linearGradient id="SVGID_23_" gradientUnits="userSpaceOnUse" x1="-88.3982" y1="1075.78" x2="689.6767" y2="1075.78" gradientTransform="matrix(0.8427 0.5384 0.5384 -0.8427 -428.5651 1508.7614)">
			<stop  offset="0" style="stop-color:#00A2E9"/>
			<stop  offset="1" style="stop-color:#6E0082"/>
		</linearGradient>
		<path fill="url(#SVGID_23_)" d="M296.16,694.95c-0.02,0.13-0.04,0.27-0.08,0.4C296.12,695.23,296.14,695.1,296.16,694.95z"/>
		
			<linearGradient id="SVGID_24_" gradientUnits="userSpaceOnUse" x1="152.8984" y1="1172.7905" x2="689.6767" y2="1172.7905" gradientTransform="matrix(0.8427 0.5384 0.5384 -0.8427 -428.5651 1508.7614)">
			<stop  offset="0" style="stop-color:#11BAEE"/>
			<stop  offset="1" style="stop-color:#0054A3"/>
		</linearGradient>
		<path fill="url(#SVGID_24_)" d="M784.48,891.04c0.54-0.84,1.11-1.65,1.65-2.51c-1.38,2.18-2.8,4.31-4.25,6.42
			C782.77,893.68,783.62,892.36,784.48,891.04z"/>
		
			<linearGradient id="SVGID_25_" gradientUnits="userSpaceOnUse" x1="-88.3982" y1="1172.7905" x2="689.6767" y2="1172.7905" gradientTransform="matrix(0.8427 0.5384 0.5384 -0.8427 -428.5651 1508.7614)">
			<stop  offset="0" style="stop-color:#00A2E9"/>
			<stop  offset="1" style="stop-color:#6E0082"/>
		</linearGradient>
		<path fill="url(#SVGID_25_)" d="M784.48,891.04c0.54-0.84,1.11-1.65,1.65-2.51c-1.38,2.18-2.8,4.31-4.25,6.42
			C782.77,893.68,783.62,892.36,784.48,891.04z"/>
		
			<linearGradient id="SVGID_26_" gradientUnits="userSpaceOnUse" x1="152.8984" y1="1069.7991" x2="689.6767" y2="1069.7991" gradientTransform="matrix(0.8427 0.5384 0.5384 -0.8427 -428.5651 1508.7614)">
			<stop  offset="0" style="stop-color:#11BAEE"/>
			<stop  offset="1" style="stop-color:#0054A3"/>
		</linearGradient>
		<path fill="url(#SVGID_26_)" d="M295.08,701.32c-0.02,0.17-0.04,0.33-0.08,0.48C295.03,701.63,295.06,701.48,295.08,701.32z"/>
		
			<linearGradient id="SVGID_27_" gradientUnits="userSpaceOnUse" x1="-88.3982" y1="1069.7991" x2="689.6767" y2="1069.7991" gradientTransform="matrix(0.8427 0.5384 0.5384 -0.8427 -428.5651 1508.7614)">
			<stop  offset="0" style="stop-color:#00A2E9"/>
			<stop  offset="1" style="stop-color:#6E0082"/>
		</linearGradient>
		<path fill="url(#SVGID_27_)" d="M295.08,701.32c-0.02,0.17-0.04,0.33-0.08,0.48C295.03,701.63,295.06,701.48,295.08,701.32z"/>
		
			<linearGradient id="SVGID_28_" gradientUnits="userSpaceOnUse" x1="152.8984" y1="1081.819" x2="689.6767" y2="1081.819" gradientTransform="matrix(0.8427 0.5384 0.5384 -0.8427 -428.5651 1508.7614)">
			<stop  offset="0" style="stop-color:#11BAEE"/>
			<stop  offset="1" style="stop-color:#0054A3"/>
		</linearGradient>
		<path fill="url(#SVGID_28_)" d="M297.4,688.64c-0.02,0.1-0.04,0.21-0.06,0.29C297.36,688.82,297.38,688.74,297.4,688.64z"/>
		
			<linearGradient id="SVGID_29_" gradientUnits="userSpaceOnUse" x1="-88.3982" y1="1081.819" x2="689.6767" y2="1081.819" gradientTransform="matrix(0.8427 0.5384 0.5384 -0.8427 -428.5651 1508.7614)">
			<stop  offset="0" style="stop-color:#00A2E9"/>
			<stop  offset="1" style="stop-color:#6E0082"/>
		</linearGradient>
		<path fill="url(#SVGID_29_)" d="M297.4,688.64c-0.02,0.1-0.04,0.21-0.06,0.29C297.36,688.82,297.38,688.74,297.4,688.64z"/>
		
			<linearGradient id="SVGID_30_" gradientUnits="userSpaceOnUse" x1="152.8984" y1="1100.366" x2="205.0012" y2="1100.366" gradientTransform="matrix(0.8427 0.5384 0.5384 -0.8427 -428.5651 1508.7614)">
			<stop  offset="0" style="stop-color:#11BAEE"/>
			<stop  offset="1" style="stop-color:#0054A3"/>
		</linearGradient>
		<path fill="url(#SVGID_30_)" d="M302.06,669.76v0.02C302.06,669.78,302.06,669.78,302.06,669.76z"/>
		
			<linearGradient id="SVGID_31_" gradientUnits="userSpaceOnUse" x1="137.9202" y1="1100.366" x2="190.0228" y2="1100.366" gradientTransform="matrix(0.8427 0.5384 0.5384 -0.8427 -428.5651 1508.7614)">
			<stop  offset="0" style="stop-color:#00A2E9"/>
			<stop  offset="1" style="stop-color:#6E0082"/>
		</linearGradient>
		<path fill="url(#SVGID_31_)" d="M302.06,669.76v0.02C302.06,669.78,302.06,669.78,302.06,669.76z"/>
		
			<linearGradient id="SVGID_32_" gradientUnits="userSpaceOnUse" x1="152.8984" y1="1094.1119" x2="427.7148" y2="1094.1119" gradientTransform="matrix(0.8427 0.5384 0.5384 -0.8427 -428.5651 1508.7614)">
			<stop  offset="0" style="stop-color:#11BAEE"/>
			<stop  offset="1" style="stop-color:#0054A3"/>
		</linearGradient>
		<path fill="url(#SVGID_32_)" d="M300.35,676.04c0,0.04-0.02,0.06-0.02,0.1C300.33,676.1,300.35,676.06,300.35,676.04z"/>
		
			<linearGradient id="SVGID_33_" gradientUnits="userSpaceOnUse" x1="-88.3982" y1="1094.1119" x2="186.418" y2="1094.1119" gradientTransform="matrix(0.8427 0.5384 0.5384 -0.8427 -428.5651 1508.7614)">
			<stop  offset="0" style="stop-color:#00A2E9"/>
			<stop  offset="1" style="stop-color:#6E0082"/>
		</linearGradient>
		<path fill="url(#SVGID_33_)" d="M300.35,676.04c0,0.04-0.02,0.06-0.02,0.1C300.33,676.1,300.35,676.06,300.35,676.04z"/>
		
			<linearGradient id="SVGID_34_" gradientUnits="userSpaceOnUse" x1="152.8984" y1="1087.948" x2="682.2483" y2="1087.948" gradientTransform="matrix(0.8427 0.5384 0.5384 -0.8427 -428.5651 1508.7614)">
			<stop  offset="0" style="stop-color:#11BAEE"/>
			<stop  offset="1" style="stop-color:#0054A3"/>
		</linearGradient>
		<path fill="url(#SVGID_34_)" d="M298.8,682.32c-0.02,0.06-0.02,0.13-0.04,0.19C298.78,682.46,298.78,682.38,298.8,682.32z"/>
		
			<linearGradient id="SVGID_35_" gradientUnits="userSpaceOnUse" x1="-88.3982" y1="1087.948" x2="440.9517" y2="1087.948" gradientTransform="matrix(0.8427 0.5384 0.5384 -0.8427 -428.5651 1508.7614)">
			<stop  offset="0" style="stop-color:#00A2E9"/>
			<stop  offset="1" style="stop-color:#6E0082"/>
		</linearGradient>
		<path fill="url(#SVGID_35_)" d="M298.8,682.32c-0.02,0.06-0.02,0.13-0.04,0.19C298.78,682.46,298.78,682.38,298.8,682.32z"/>
		
			<linearGradient id="SVGID_36_" gradientUnits="userSpaceOnUse" x1="152.8984" y1="1041.0325" x2="689.6767" y2="1041.0325" gradientTransform="matrix(0.8427 0.5384 0.5384 -0.8427 -428.5651 1508.7614)">
			<stop  offset="0" style="stop-color:#11BAEE"/>
			<stop  offset="1" style="stop-color:#0054A3"/>
		</linearGradient>
		<path fill="url(#SVGID_36_)" d="M291.96,733.18c-0.02,0.36-0.02,0.71-0.04,1.07C291.94,733.89,291.96,733.54,291.96,733.18z"/>
		
			<linearGradient id="SVGID_37_" gradientUnits="userSpaceOnUse" x1="-88.3982" y1="1041.0325" x2="689.6767" y2="1041.0325" gradientTransform="matrix(0.8427 0.5384 0.5384 -0.8427 -428.5651 1508.7614)">
			<stop  offset="0" style="stop-color:#00A2E9"/>
			<stop  offset="1" style="stop-color:#6E0082"/>
		</linearGradient>
		<path fill="url(#SVGID_37_)" d="M291.96,733.18c-0.02,0.36-0.02,0.71-0.04,1.07C291.94,733.89,291.96,733.54,291.96,733.18z"/>
		
			<linearGradient id="SVGID_38_" gradientUnits="userSpaceOnUse" x1="152.8984" y1="985.4216" x2="689.6767" y2="985.4216" gradientTransform="matrix(0.8427 0.5384 0.5384 -0.8427 -428.5651 1508.7614)">
			<stop  offset="0" style="stop-color:#11BAEE"/>
			<stop  offset="1" style="stop-color:#0054A3"/>
		</linearGradient>
		<path fill="url(#SVGID_38_)" d="M298.93,805.13c-0.17-0.75-0.36-1.51-0.52-2.26C298.57,803.63,298.74,804.38,298.93,805.13z"/>
		
			<linearGradient id="SVGID_39_" gradientUnits="userSpaceOnUse" x1="-88.3982" y1="985.4216" x2="689.6767" y2="985.4216" gradientTransform="matrix(0.8427 0.5384 0.5384 -0.8427 -428.5651 1508.7614)">
			<stop  offset="0" style="stop-color:#00A2E9"/>
			<stop  offset="1" style="stop-color:#6E0082"/>
		</linearGradient>
		<path fill="url(#SVGID_39_)" d="M298.93,805.13c-0.17-0.75-0.36-1.51-0.52-2.26C298.57,803.63,298.74,804.38,298.93,805.13z"/>
		
			<linearGradient id="SVGID_40_" gradientUnits="userSpaceOnUse" x1="152.8984" y1="1025.9958" x2="689.6767" y2="1025.9958" gradientTransform="matrix(0.8427 0.5384 0.5384 -0.8427 -428.5651 1508.7614)">
			<stop  offset="0" style="stop-color:#11BAEE"/>
			<stop  offset="1" style="stop-color:#0054A3"/>
		</linearGradient>
		<path fill="url(#SVGID_40_)" d="M766.74,915.13c-20.67,24.94-45.26,45.32-72.27,60.89c-3.66,2.11-7.39,4.14-11.13,6.07
			c-1.19,0.61-2.36,1.26-3.56,1.84c-4.77,2.36-9.62,4.58-14.5,6.67c-1.21,0.52-2.47,0.98-3.68,1.49c-3.93,1.59-7.89,3.1-11.88,4.52
			c-1.46,0.52-2.93,1.05-4.41,1.55c-5.08,1.69-10.19,3.28-15.36,4.69c-0.48,0.13-0.98,0.23-1.49,0.36
			c-4.77,1.26-9.56,2.36-14.37,3.35c-1.55,0.31-3.1,0.61-4.64,0.9c-4.35,0.82-8.75,1.55-13.14,2.16c-1.05,0.15-2.09,0.33-3.14,0.46
			c-5.29,0.67-10.63,1.15-15.96,1.51c-1.4,0.08-2.82,0.15-4.23,0.21c-4.23,0.21-8.47,0.33-12.72,0.36c-1.44,0-2.91,0.02-4.35,0.02
			c-5.38-0.06-10.75-0.27-16.13-0.65c-0.9-0.06-1.78-0.17-2.68-0.25c-4.6-0.38-9.21-0.9-13.81-1.51c-1.55-0.21-3.12-0.44-4.67-0.67
			c-4.81-0.73-9.6-1.59-14.37-2.59c-0.65-0.13-1.3-0.23-1.95-0.38c-5.36-1.17-10.67-2.53-15.96-4.04c-1.44-0.4-2.87-0.86-4.29-1.28
			c-4.23-1.28-8.43-2.66-12.6-4.14c-1.28-0.46-2.55-0.88-3.81-1.34c-5.19-1.95-10.36-4.06-15.46-6.34c-1.05-0.48-2.09-1-3.14-1.49
			c-4.21-1.95-8.35-4.02-12.49-6.19c-1.4-0.73-2.8-1.49-4.18-2.24c-5.02-2.78-10.02-5.67-14.94-8.81l0,0
			C530.46,1043.72,681.75,1017.84,766.74,915.13z"/>
		
			<linearGradient id="SVGID_41_" gradientUnits="userSpaceOnUse" x1="-88.3982" y1="1025.9958" x2="689.6767" y2="1025.9958" gradientTransform="matrix(0.8427 0.5384 0.5384 -0.8427 -428.5651 1508.7614)">
			<stop  offset="0" style="stop-color:#00A2E9"/>
			<stop  offset="1" style="stop-color:#6E0082"/>
		</linearGradient>
		<path fill="url(#SVGID_41_)" d="M766.74,915.13c-20.67,24.94-45.26,45.32-72.27,60.89c-3.66,2.11-7.39,4.14-11.13,6.07
			c-1.19,0.61-2.36,1.26-3.56,1.84c-4.77,2.36-9.62,4.58-14.5,6.67c-1.21,0.52-2.47,0.98-3.68,1.49c-3.93,1.59-7.89,3.1-11.88,4.52
			c-1.46,0.52-2.93,1.05-4.41,1.55c-5.08,1.69-10.19,3.28-15.36,4.69c-0.48,0.13-0.98,0.23-1.49,0.36
			c-4.77,1.26-9.56,2.36-14.37,3.35c-1.55,0.31-3.1,0.61-4.64,0.9c-4.35,0.82-8.75,1.55-13.14,2.16c-1.05,0.15-2.09,0.33-3.14,0.46
			c-5.29,0.67-10.63,1.15-15.96,1.51c-1.4,0.08-2.82,0.15-4.23,0.21c-4.23,0.21-8.47,0.33-12.72,0.36c-1.44,0-2.91,0.02-4.35,0.02
			c-5.38-0.06-10.75-0.27-16.13-0.65c-0.9-0.06-1.78-0.17-2.68-0.25c-4.6-0.38-9.21-0.9-13.81-1.51c-1.55-0.21-3.12-0.44-4.67-0.67
			c-4.81-0.73-9.6-1.59-14.37-2.59c-0.65-0.13-1.3-0.23-1.95-0.38c-5.36-1.17-10.67-2.53-15.96-4.04c-1.44-0.4-2.87-0.86-4.29-1.28
			c-4.23-1.28-8.43-2.66-12.6-4.14c-1.28-0.46-2.55-0.88-3.81-1.34c-5.19-1.95-10.36-4.06-15.46-6.34c-1.05-0.48-2.09-1-3.14-1.49
			c-4.21-1.95-8.35-4.02-12.49-6.19c-1.4-0.73-2.8-1.49-4.18-2.24c-5.02-2.78-10.02-5.67-14.94-8.81l0,0
			C530.46,1043.72,681.75,1017.84,766.74,915.13z"/>
		
			<linearGradient id="SVGID_42_" gradientUnits="userSpaceOnUse" x1="152.8984" y1="1063.9082" x2="689.6767" y2="1063.9082" gradientTransform="matrix(0.8427 0.5384 0.5384 -0.8427 -428.5651 1508.7614)">
			<stop  offset="0" style="stop-color:#11BAEE"/>
			<stop  offset="1" style="stop-color:#0054A3"/>
		</linearGradient>
		<path fill="url(#SVGID_42_)" d="M294.16,707.65c-0.02,0.21-0.06,0.42-0.08,0.61C294.09,708.07,294.13,707.86,294.16,707.65z"/>
		
			<linearGradient id="SVGID_43_" gradientUnits="userSpaceOnUse" x1="-88.3982" y1="1063.9082" x2="689.6767" y2="1063.9082" gradientTransform="matrix(0.8427 0.5384 0.5384 -0.8427 -428.5651 1508.7614)">
			<stop  offset="0" style="stop-color:#00A2E9"/>
			<stop  offset="1" style="stop-color:#6E0082"/>
		</linearGradient>
		<path fill="url(#SVGID_43_)" d="M294.16,707.65c-0.02,0.21-0.06,0.42-0.08,0.61C294.09,708.07,294.13,707.86,294.16,707.65z"/>
		
			<linearGradient id="SVGID_44_" gradientUnits="userSpaceOnUse" x1="152.8984" y1="1035.52" x2="689.6767" y2="1035.52" gradientTransform="matrix(0.8427 0.5384 0.5384 -0.8427 -428.5651 1508.7614)">
			<stop  offset="0" style="stop-color:#11BAEE"/>
			<stop  offset="1" style="stop-color:#0054A3"/>
		</linearGradient>
		<path fill="url(#SVGID_44_)" d="M291.81,739.58c0,0.4,0,0.77-0.02,1.17C291.79,740.36,291.79,739.96,291.81,739.58z"/>
		
			<linearGradient id="SVGID_45_" gradientUnits="userSpaceOnUse" x1="-88.3982" y1="1035.52" x2="689.6767" y2="1035.52" gradientTransform="matrix(0.8427 0.5384 0.5384 -0.8427 -428.5651 1508.7614)">
			<stop  offset="0" style="stop-color:#00A2E9"/>
			<stop  offset="1" style="stop-color:#6E0082"/>
		</linearGradient>
		<path fill="url(#SVGID_45_)" d="M291.81,739.58c0,0.4,0,0.77-0.02,1.17C291.79,740.36,291.79,739.96,291.81,739.58z"/>
		
			<linearGradient id="SVGID_46_" gradientUnits="userSpaceOnUse" x1="152.8984" y1="1147.7441" x2="689.6767" y2="1147.7441" gradientTransform="matrix(0.8427 0.5384 0.5384 -0.8427 -428.5651 1508.7614)">
			<stop  offset="0" style="stop-color:#11BAEE"/>
			<stop  offset="1" style="stop-color:#0054A3"/>
		</linearGradient>
		<path fill="url(#SVGID_46_)" d="M767.05,914.75c1.49-1.8,2.93-3.6,4.37-5.44C769.98,911.15,768.52,912.97,767.05,914.75z"/>
		
			<linearGradient id="SVGID_47_" gradientUnits="userSpaceOnUse" x1="-88.3982" y1="1147.7441" x2="689.6767" y2="1147.7441" gradientTransform="matrix(0.8427 0.5384 0.5384 -0.8427 -428.5651 1508.7614)">
			<stop  offset="0" style="stop-color:#00A2E9"/>
			<stop  offset="1" style="stop-color:#6E0082"/>
		</linearGradient>
		<path fill="url(#SVGID_47_)" d="M767.05,914.75c1.49-1.8,2.93-3.6,4.37-5.44C769.98,911.15,768.52,912.97,767.05,914.75z"/>
		
			<linearGradient id="SVGID_48_" gradientUnits="userSpaceOnUse" x1="152.8984" y1="1052.3158" x2="689.6767" y2="1052.3158" gradientTransform="matrix(0.8427 0.5384 0.5384 -0.8427 -428.5651 1508.7614)">
			<stop  offset="0" style="stop-color:#11BAEE"/>
			<stop  offset="1" style="stop-color:#0054A3"/>
		</linearGradient>
		<path fill="url(#SVGID_48_)" d="M292.75,720.42c-0.02,0.27-0.04,0.54-0.06,0.82C292.71,720.96,292.73,720.69,292.75,720.42z"/>
		
			<linearGradient id="SVGID_49_" gradientUnits="userSpaceOnUse" x1="-88.3982" y1="1052.3158" x2="689.6767" y2="1052.3158" gradientTransform="matrix(0.8427 0.5384 0.5384 -0.8427 -428.5651 1508.7614)">
			<stop  offset="0" style="stop-color:#00A2E9"/>
			<stop  offset="1" style="stop-color:#6E0082"/>
		</linearGradient>
		<path fill="url(#SVGID_49_)" d="M292.75,720.42c-0.02,0.27-0.04,0.54-0.06,0.82C292.71,720.96,292.73,720.69,292.75,720.42z"/>
		
			<linearGradient id="SVGID_50_" gradientUnits="userSpaceOnUse" x1="152.8984" y1="1046.6376" x2="689.6767" y2="1046.6376" gradientTransform="matrix(0.8427 0.5384 0.5384 -0.8427 -428.5651 1508.7614)">
			<stop  offset="0" style="stop-color:#11BAEE"/>
			<stop  offset="1" style="stop-color:#0054A3"/>
		</linearGradient>
		<path fill="url(#SVGID_50_)" d="M292.29,726.8c-0.02,0.31-0.04,0.63-0.06,0.94C292.25,727.43,292.27,727.11,292.29,726.8z"/>
		
			<linearGradient id="SVGID_51_" gradientUnits="userSpaceOnUse" x1="-88.3982" y1="1046.6376" x2="689.6767" y2="1046.6376" gradientTransform="matrix(0.8427 0.5384 0.5384 -0.8427 -428.5651 1508.7614)">
			<stop  offset="0" style="stop-color:#00A2E9"/>
			<stop  offset="1" style="stop-color:#6E0082"/>
		</linearGradient>
		<path fill="url(#SVGID_51_)" d="M292.29,726.8c-0.02,0.31-0.04,0.63-0.06,0.94C292.25,727.43,292.27,727.11,292.29,726.8z"/>
		
			<linearGradient id="SVGID_52_" gradientUnits="userSpaceOnUse" x1="152.8984" y1="1058.0698" x2="689.6767" y2="1058.0698" gradientTransform="matrix(0.8427 0.5384 0.5384 -0.8427 -428.5651 1508.7614)">
			<stop  offset="0" style="stop-color:#11BAEE"/>
			<stop  offset="1" style="stop-color:#0054A3"/>
		</linearGradient>
		<path fill="url(#SVGID_52_)" d="M293.38,714.04c-0.02,0.23-0.04,0.48-0.08,0.71C293.32,714.52,293.36,714.27,293.38,714.04z"/>
		
			<linearGradient id="SVGID_53_" gradientUnits="userSpaceOnUse" x1="-88.3982" y1="1058.0698" x2="689.6767" y2="1058.0698" gradientTransform="matrix(0.8427 0.5384 0.5384 -0.8427 -428.5651 1508.7614)">
			<stop  offset="0" style="stop-color:#00A2E9"/>
			<stop  offset="1" style="stop-color:#6E0082"/>
		</linearGradient>
		<path fill="url(#SVGID_53_)" d="M293.38,714.04c-0.02,0.23-0.04,0.48-0.08,0.71C293.32,714.52,293.36,714.27,293.38,714.04z"/>
		
			<linearGradient id="SVGID_54_" gradientUnits="userSpaceOnUse" x1="152.8984" y1="936.6915" x2="689.6767" y2="936.6915" gradientTransform="matrix(0.8427 0.5384 0.5384 -0.8427 -428.5651 1508.7614)">
			<stop  offset="0" style="stop-color:#11BAEE"/>
			<stop  offset="1" style="stop-color:#0054A3"/>
		</linearGradient>
		<path fill="url(#SVGID_54_)" d="M328.8,880.18c0.56,0.98,1.17,1.95,1.76,2.93C329.98,882.13,329.39,881.17,328.8,880.18z"/>
		
			<linearGradient id="SVGID_55_" gradientUnits="userSpaceOnUse" x1="-88.3982" y1="936.6915" x2="689.6767" y2="936.6915" gradientTransform="matrix(0.8427 0.5384 0.5384 -0.8427 -428.5651 1508.7614)">
			<stop  offset="0" style="stop-color:#00A2E9"/>
			<stop  offset="1" style="stop-color:#6E0082"/>
		</linearGradient>
		<path fill="url(#SVGID_55_)" d="M328.8,880.18c0.56,0.98,1.17,1.95,1.76,2.93C329.98,882.13,329.39,881.17,328.8,880.18z"/>
		
			<linearGradient id="SVGID_56_" gradientUnits="userSpaceOnUse" x1="152.8984" y1="911.0312" x2="689.6767" y2="911.0312" gradientTransform="matrix(0.8427 0.5384 0.5384 -0.8427 -428.5651 1508.7614)">
			<stop  offset="0" style="stop-color:#11BAEE"/>
			<stop  offset="1" style="stop-color:#0054A3"/>
		</linearGradient>
		<path fill="url(#SVGID_56_)" d="M382.87,945.76c0.98,0.86,1.97,1.69,2.95,2.53C384.84,947.45,383.85,946.61,382.87,945.76z"/>
		
			<linearGradient id="SVGID_57_" gradientUnits="userSpaceOnUse" x1="-88.3982" y1="911.0312" x2="689.6767" y2="911.0312" gradientTransform="matrix(0.8427 0.5384 0.5384 -0.8427 -428.5651 1508.7614)">
			<stop  offset="0" style="stop-color:#00A2E9"/>
			<stop  offset="1" style="stop-color:#6E0082"/>
		</linearGradient>
		<path fill="url(#SVGID_57_)" d="M382.87,945.76c0.98,0.86,1.97,1.69,2.95,2.53C384.84,947.45,383.85,946.61,382.87,945.76z"/>
		
			<linearGradient id="SVGID_58_" gradientUnits="userSpaceOnUse" x1="152.8984" y1="931.1196" x2="689.6767" y2="931.1196" gradientTransform="matrix(0.8427 0.5384 0.5384 -0.8427 -428.5651 1508.7614)">
			<stop  offset="0" style="stop-color:#11BAEE"/>
			<stop  offset="1" style="stop-color:#0054A3"/>
		</linearGradient>
		<path fill="url(#SVGID_58_)" d="M335.62,891.21c0.65,0.98,1.3,1.97,1.97,2.95C336.92,893.16,336.25,892.19,335.62,891.21z"/>
		
			<linearGradient id="SVGID_59_" gradientUnits="userSpaceOnUse" x1="-88.3982" y1="931.1196" x2="689.6767" y2="931.1196" gradientTransform="matrix(0.8427 0.5384 0.5384 -0.8427 -428.5651 1508.7614)">
			<stop  offset="0" style="stop-color:#00A2E9"/>
			<stop  offset="1" style="stop-color:#6E0082"/>
		</linearGradient>
		<path fill="url(#SVGID_59_)" d="M335.62,891.21c0.65,0.98,1.3,1.97,1.97,2.95C336.92,893.16,336.25,892.19,335.62,891.21z"/>
		
			<linearGradient id="SVGID_60_" gradientUnits="userSpaceOnUse" x1="152.8984" y1="939.6827" x2="689.6767" y2="939.6827" gradientTransform="matrix(0.8427 0.5384 0.5384 -0.8427 -428.5651 1508.7614)">
			<stop  offset="0" style="stop-color:#11BAEE"/>
			<stop  offset="1" style="stop-color:#0054A3"/>
		</linearGradient>
		<path fill="url(#SVGID_60_)" d="M325.6,874.56c0.54,0.98,1.11,1.95,1.65,2.93C326.71,876.52,326.15,875.54,325.6,874.56z"/>
		
			<linearGradient id="SVGID_61_" gradientUnits="userSpaceOnUse" x1="-88.3982" y1="939.6827" x2="689.6767" y2="939.6827" gradientTransform="matrix(0.8427 0.5384 0.5384 -0.8427 -428.5651 1508.7614)">
			<stop  offset="0" style="stop-color:#00A2E9"/>
			<stop  offset="1" style="stop-color:#6E0082"/>
		</linearGradient>
		<path fill="url(#SVGID_61_)" d="M325.6,874.56c0.54,0.98,1.11,1.95,1.65,2.93C326.71,876.52,326.15,875.54,325.6,874.56z"/>
		
			<linearGradient id="SVGID_62_" gradientUnits="userSpaceOnUse" x1="152.8984" y1="933.8497" x2="689.6767" y2="933.8497" gradientTransform="matrix(0.8427 0.5384 0.5384 -0.8427 -428.5651 1508.7614)">
			<stop  offset="0" style="stop-color:#11BAEE"/>
			<stop  offset="1" style="stop-color:#0054A3"/>
		</linearGradient>
		<path fill="url(#SVGID_62_)" d="M332.15,885.73c0.61,0.98,1.23,1.95,1.86,2.93C333.39,887.7,332.76,886.71,332.15,885.73z"/>
		
			<linearGradient id="SVGID_63_" gradientUnits="userSpaceOnUse" x1="-88.3982" y1="933.8497" x2="689.6767" y2="933.8497" gradientTransform="matrix(0.8427 0.5384 0.5384 -0.8427 -428.5651 1508.7614)">
			<stop  offset="0" style="stop-color:#00A2E9"/>
			<stop  offset="1" style="stop-color:#6E0082"/>
		</linearGradient>
		<path fill="url(#SVGID_63_)" d="M332.15,885.73c0.61,0.98,1.23,1.95,1.86,2.93C333.39,887.7,332.76,886.71,332.15,885.73z"/>
		
			<linearGradient id="SVGID_64_" gradientUnits="userSpaceOnUse" x1="152.8984" y1="999.4243" x2="689.6767" y2="999.4243" gradientTransform="matrix(0.8427 0.5384 0.5384 -0.8427 -428.5651 1508.7614)">
			<stop  offset="0" style="stop-color:#11BAEE"/>
			<stop  offset="1" style="stop-color:#0054A3"/>
		</linearGradient>
		<path fill="url(#SVGID_64_)" d="M294.85,784.06c0.1,0.65,0.21,1.3,0.31,1.97C295.06,785.38,294.95,784.71,294.85,784.06z"/>
		
			<linearGradient id="SVGID_65_" gradientUnits="userSpaceOnUse" x1="-88.3982" y1="999.4243" x2="689.6767" y2="999.4243" gradientTransform="matrix(0.8427 0.5384 0.5384 -0.8427 -428.5651 1508.7614)">
			<stop  offset="0" style="stop-color:#00A2E9"/>
			<stop  offset="1" style="stop-color:#6E0082"/>
		</linearGradient>
		<path fill="url(#SVGID_65_)" d="M294.85,784.06c0.1,0.65,0.21,1.3,0.31,1.97C295.06,785.38,294.95,784.71,294.85,784.06z"/>
		
			<linearGradient id="SVGID_66_" gradientUnits="userSpaceOnUse" x1="152.8984" y1="946.0602" x2="689.6767" y2="946.0602" gradientTransform="matrix(0.8427 0.5384 0.5384 -0.8427 -428.5651 1508.7614)">
			<stop  offset="0" style="stop-color:#11BAEE"/>
			<stop  offset="1" style="stop-color:#0054A3"/>
		</linearGradient>
		<path fill="url(#SVGID_66_)" d="M319.64,863.13c0.48,0.96,0.96,1.92,1.44,2.89C320.6,865.06,320.12,864.09,319.64,863.13z"/>
		
			<linearGradient id="SVGID_67_" gradientUnits="userSpaceOnUse" x1="-88.3982" y1="946.0602" x2="689.6767" y2="946.0602" gradientTransform="matrix(0.8427 0.5384 0.5384 -0.8427 -428.5651 1508.7614)">
			<stop  offset="0" style="stop-color:#00A2E9"/>
			<stop  offset="1" style="stop-color:#6E0082"/>
		</linearGradient>
		<path fill="url(#SVGID_67_)" d="M319.64,863.13c0.48,0.96,0.96,1.92,1.44,2.89C320.6,865.06,320.12,864.09,319.64,863.13z"/>
		
			<linearGradient id="SVGID_68_" gradientUnits="userSpaceOnUse" x1="152.8984" y1="942.808" x2="689.6767" y2="942.808" gradientTransform="matrix(0.8427 0.5384 0.5384 -0.8427 -428.5651 1508.7614)">
			<stop  offset="0" style="stop-color:#11BAEE"/>
			<stop  offset="1" style="stop-color:#0054A3"/>
		</linearGradient>
		<path fill="url(#SVGID_68_)" d="M322.57,868.89c0.5,0.96,1.03,1.95,1.55,2.91C323.59,870.81,323.07,869.85,322.57,868.89z"/>
		
			<linearGradient id="SVGID_69_" gradientUnits="userSpaceOnUse" x1="-88.3982" y1="942.808" x2="689.6767" y2="942.808" gradientTransform="matrix(0.8427 0.5384 0.5384 -0.8427 -428.5651 1508.7614)">
			<stop  offset="0" style="stop-color:#00A2E9"/>
			<stop  offset="1" style="stop-color:#6E0082"/>
		</linearGradient>
		<path fill="url(#SVGID_69_)" d="M322.57,868.89c0.5,0.96,1.03,1.95,1.55,2.91C323.59,870.81,323.07,869.85,322.57,868.89z"/>
		
			<linearGradient id="SVGID_70_" gradientUnits="userSpaceOnUse" x1="152.8984" y1="913.2902" x2="689.6767" y2="913.2902" gradientTransform="matrix(0.8427 0.5384 0.5384 -0.8427 -428.5651 1508.7614)">
			<stop  offset="0" style="stop-color:#11BAEE"/>
			<stop  offset="1" style="stop-color:#0054A3"/>
		</linearGradient>
		<path fill="url(#SVGID_70_)" d="M373.08,936.72c0.9,0.88,1.84,1.74,2.76,2.62C374.9,938.45,373.98,937.6,373.08,936.72z"/>
		
			<linearGradient id="SVGID_71_" gradientUnits="userSpaceOnUse" x1="-88.3982" y1="913.2902" x2="689.6767" y2="913.2902" gradientTransform="matrix(0.8427 0.5384 0.5384 -0.8427 -428.5651 1508.7614)">
			<stop  offset="0" style="stop-color:#00A2E9"/>
			<stop  offset="1" style="stop-color:#6E0082"/>
		</linearGradient>
		<path fill="url(#SVGID_71_)" d="M373.08,936.72c0.9,0.88,1.84,1.74,2.76,2.62C374.9,938.45,373.98,937.6,373.08,936.72z"/>
		
			<linearGradient id="SVGID_72_" gradientUnits="userSpaceOnUse" x1="152.8984" y1="923.8445" x2="689.6767" y2="923.8445" gradientTransform="matrix(0.8427 0.5384 0.5384 -0.8427 -428.5651 1508.7614)">
			<stop  offset="0" style="stop-color:#11BAEE"/>
			<stop  offset="1" style="stop-color:#0054A3"/>
		</linearGradient>
		<path fill="url(#SVGID_72_)" d="M346.88,907.15c0.73,0.96,1.49,1.92,2.24,2.89C348.37,909.08,347.61,908.14,346.88,907.15z"/>
		
			<linearGradient id="SVGID_73_" gradientUnits="userSpaceOnUse" x1="-88.3982" y1="923.8445" x2="689.6767" y2="923.8445" gradientTransform="matrix(0.8427 0.5384 0.5384 -0.8427 -428.5651 1508.7614)">
			<stop  offset="0" style="stop-color:#00A2E9"/>
			<stop  offset="1" style="stop-color:#6E0082"/>
		</linearGradient>
		<path fill="url(#SVGID_73_)" d="M346.88,907.15c0.73,0.96,1.49,1.92,2.24,2.89C348.37,909.08,347.61,908.14,346.88,907.15z"/>
		
			<linearGradient id="SVGID_74_" gradientUnits="userSpaceOnUse" x1="152.8984" y1="914.6617" x2="689.6767" y2="914.6617" gradientTransform="matrix(0.8427 0.5384 0.5384 -0.8427 -428.5651 1508.7614)">
			<stop  offset="0" style="stop-color:#11BAEE"/>
			<stop  offset="1" style="stop-color:#0054A3"/>
		</linearGradient>
		<path fill="url(#SVGID_74_)" d="M368.37,932.03c0.88,0.9,1.8,1.8,2.7,2.68C370.17,933.81,369.25,932.93,368.37,932.03z"/>
		
			<linearGradient id="SVGID_75_" gradientUnits="userSpaceOnUse" x1="-88.3982" y1="914.6617" x2="689.6767" y2="914.6617" gradientTransform="matrix(0.8427 0.5384 0.5384 -0.8427 -428.5651 1508.7614)">
			<stop  offset="0" style="stop-color:#00A2E9"/>
			<stop  offset="1" style="stop-color:#6E0082"/>
		</linearGradient>
		<path fill="url(#SVGID_75_)" d="M368.37,932.03c0.88,0.9,1.8,1.8,2.7,2.68C370.17,933.81,369.25,932.93,368.37,932.03z"/>
		
			<linearGradient id="SVGID_76_" gradientUnits="userSpaceOnUse" x1="152.8984" y1="917.8776" x2="689.6767" y2="917.8776" gradientTransform="matrix(0.8427 0.5384 0.5384 -0.8427 -428.5651 1508.7614)">
			<stop  offset="0" style="stop-color:#11BAEE"/>
			<stop  offset="1" style="stop-color:#0054A3"/>
		</linearGradient>
		<path fill="url(#SVGID_76_)" d="M359.37,922.36c0.82,0.92,1.67,1.84,2.51,2.76C361.02,924.21,360.19,923.29,359.37,922.36z"/>
		
			<linearGradient id="SVGID_77_" gradientUnits="userSpaceOnUse" x1="-88.3982" y1="917.8776" x2="689.6767" y2="917.8776" gradientTransform="matrix(0.8427 0.5384 0.5384 -0.8427 -428.5651 1508.7614)">
			<stop  offset="0" style="stop-color:#00A2E9"/>
			<stop  offset="1" style="stop-color:#6E0082"/>
		</linearGradient>
		<path fill="url(#SVGID_77_)" d="M359.37,922.36c0.82,0.92,1.67,1.84,2.51,2.76C361.02,924.21,360.19,923.29,359.37,922.36z"/>
		
			<linearGradient id="SVGID_78_" gradientUnits="userSpaceOnUse" x1="152.8984" y1="921.6981" x2="689.6767" y2="921.6981" gradientTransform="matrix(0.8427 0.5384 0.5384 -0.8427 -428.5651 1508.7614)">
			<stop  offset="0" style="stop-color:#11BAEE"/>
			<stop  offset="1" style="stop-color:#0054A3"/>
		</linearGradient>
		<path fill="url(#SVGID_78_)" d="M350.9,912.32c0.77,0.96,1.55,1.9,2.34,2.85C352.47,914.23,351.67,913.28,350.9,912.32z"/>
		
			<linearGradient id="SVGID_79_" gradientUnits="userSpaceOnUse" x1="-88.3982" y1="921.6981" x2="689.6767" y2="921.6981" gradientTransform="matrix(0.8427 0.5384 0.5384 -0.8427 -428.5651 1508.7614)">
			<stop  offset="0" style="stop-color:#00A2E9"/>
			<stop  offset="1" style="stop-color:#6E0082"/>
		</linearGradient>
		<path fill="url(#SVGID_79_)" d="M350.9,912.32c0.77,0.96,1.55,1.9,2.34,2.85C352.47,914.23,351.67,913.28,350.9,912.32z"/>
		
			<linearGradient id="SVGID_80_" gradientUnits="userSpaceOnUse" x1="152.8984" y1="928.5451" x2="689.6767" y2="928.5451" gradientTransform="matrix(0.8427 0.5384 0.5384 -0.8427 -428.5651 1508.7614)">
			<stop  offset="0" style="stop-color:#11BAEE"/>
			<stop  offset="1" style="stop-color:#0054A3"/>
		</linearGradient>
		<path fill="url(#SVGID_80_)" d="M339.22,896.61c0.67,0.98,1.38,1.97,2.07,2.93C340.6,898.55,339.91,897.59,339.22,896.61z"/>
		
			<linearGradient id="SVGID_81_" gradientUnits="userSpaceOnUse" x1="-88.3982" y1="928.5451" x2="689.6767" y2="928.5451" gradientTransform="matrix(0.8427 0.5384 0.5384 -0.8427 -428.5651 1508.7614)">
			<stop  offset="0" style="stop-color:#00A2E9"/>
			<stop  offset="1" style="stop-color:#6E0082"/>
		</linearGradient>
		<path fill="url(#SVGID_81_)" d="M339.22,896.61c0.67,0.98,1.38,1.97,2.07,2.93C340.6,898.55,339.91,897.59,339.22,896.61z"/>
		
			<linearGradient id="SVGID_82_" gradientUnits="userSpaceOnUse" x1="152.8984" y1="916.1978" x2="689.6767" y2="916.1978" gradientTransform="matrix(0.8427 0.5384 0.5384 -0.8427 -428.5651 1508.7614)">
			<stop  offset="0" style="stop-color:#11BAEE"/>
			<stop  offset="1" style="stop-color:#0054A3"/>
		</linearGradient>
		<path fill="url(#SVGID_82_)" d="M363.81,927.24c0.86,0.92,1.74,1.82,2.59,2.72C365.54,929.06,364.67,928.16,363.81,927.24z"/>
		
			<linearGradient id="SVGID_83_" gradientUnits="userSpaceOnUse" x1="-88.3982" y1="916.1978" x2="689.6767" y2="916.1978" gradientTransform="matrix(0.8427 0.5384 0.5384 -0.8427 -428.5651 1508.7614)">
			<stop  offset="0" style="stop-color:#00A2E9"/>
			<stop  offset="1" style="stop-color:#6E0082"/>
		</linearGradient>
		<path fill="url(#SVGID_83_)" d="M363.81,927.24c0.86,0.92,1.74,1.82,2.59,2.72C365.54,929.06,364.67,928.16,363.81,927.24z"/>
		
			<linearGradient id="SVGID_84_" gradientUnits="userSpaceOnUse" x1="152.8984" y1="926.1258" x2="689.6767" y2="926.1258" gradientTransform="matrix(0.8427 0.5384 0.5384 -0.8427 -428.5651 1508.7614)">
			<stop  offset="0" style="stop-color:#11BAEE"/>
			<stop  offset="1" style="stop-color:#0054A3"/>
		</linearGradient>
		<path fill="url(#SVGID_84_)" d="M342.99,901.92c0.71,0.98,1.44,1.95,2.16,2.91C344.41,903.87,343.7,902.91,342.99,901.92z"/>
		
			<linearGradient id="SVGID_85_" gradientUnits="userSpaceOnUse" x1="-88.3982" y1="926.1258" x2="689.6767" y2="926.1258" gradientTransform="matrix(0.8427 0.5384 0.5384 -0.8427 -428.5651 1508.7614)">
			<stop  offset="0" style="stop-color:#00A2E9"/>
			<stop  offset="1" style="stop-color:#6E0082"/>
		</linearGradient>
		<path fill="url(#SVGID_85_)" d="M342.99,901.92c0.71,0.98,1.44,1.95,2.16,2.91C344.41,903.87,343.7,902.91,342.99,901.92z"/>
		
			<linearGradient id="SVGID_86_" gradientUnits="userSpaceOnUse" x1="152.8984" y1="912.0712" x2="689.6767" y2="912.0712" gradientTransform="matrix(0.8427 0.5384 0.5384 -0.8427 -428.5651 1508.7614)">
			<stop  offset="0" style="stop-color:#11BAEE"/>
			<stop  offset="1" style="stop-color:#0054A3"/>
		</linearGradient>
		<path fill="url(#SVGID_86_)" d="M377.91,941.3c0.94,0.86,1.9,1.72,2.85,2.57C379.81,942.99,378.85,942.16,377.91,941.3z"/>
		
			<linearGradient id="SVGID_87_" gradientUnits="userSpaceOnUse" x1="-88.3982" y1="912.0712" x2="689.6767" y2="912.0712" gradientTransform="matrix(0.8427 0.5384 0.5384 -0.8427 -428.5651 1508.7614)">
			<stop  offset="0" style="stop-color:#00A2E9"/>
			<stop  offset="1" style="stop-color:#6E0082"/>
		</linearGradient>
		<path fill="url(#SVGID_87_)" d="M377.91,941.3c0.94,0.86,1.9,1.72,2.85,2.57C379.81,942.99,378.85,942.16,377.91,941.3z"/>
		
			<linearGradient id="SVGID_88_" gradientUnits="userSpaceOnUse" x1="152.8984" y1="949.4523" x2="689.6767" y2="949.4523" gradientTransform="matrix(0.8427 0.5384 0.5384 -0.8427 -428.5651 1508.7614)">
			<stop  offset="0" style="stop-color:#11BAEE"/>
			<stop  offset="1" style="stop-color:#0054A3"/>
		</linearGradient>
		<path fill="url(#SVGID_88_)" d="M316.88,857.34c0.44,0.96,0.9,1.9,1.36,2.85C317.78,859.24,317.32,858.28,316.88,857.34z"/>
		
			<linearGradient id="SVGID_89_" gradientUnits="userSpaceOnUse" x1="-88.3982" y1="949.4523" x2="689.6767" y2="949.4523" gradientTransform="matrix(0.8427 0.5384 0.5384 -0.8427 -428.5651 1508.7614)">
			<stop  offset="0" style="stop-color:#00A2E9"/>
			<stop  offset="1" style="stop-color:#6E0082"/>
		</linearGradient>
		<path fill="url(#SVGID_89_)" d="M316.88,857.34c0.44,0.96,0.9,1.9,1.36,2.85C317.78,859.24,317.32,858.28,316.88,857.34z"/>
		
			<linearGradient id="SVGID_90_" gradientUnits="userSpaceOnUse" x1="152.8984" y1="908.8535" x2="689.6767" y2="908.8535" gradientTransform="matrix(0.8427 0.5384 0.5384 -0.8427 -428.5651 1508.7614)">
			<stop  offset="0" style="stop-color:#11BAEE"/>
			<stop  offset="1" style="stop-color:#0054A3"/>
		</linearGradient>
		<path fill="url(#SVGID_90_)" d="M398.56,958.52c1.15,0.86,2.32,1.72,3.49,2.57C400.88,960.24,399.71,959.38,398.56,958.52z"/>
		
			<linearGradient id="SVGID_91_" gradientUnits="userSpaceOnUse" x1="-88.3982" y1="908.8535" x2="689.6767" y2="908.8535" gradientTransform="matrix(0.8427 0.5384 0.5384 -0.8427 -428.5651 1508.7614)">
			<stop  offset="0" style="stop-color:#00A2E9"/>
			<stop  offset="1" style="stop-color:#6E0082"/>
		</linearGradient>
		<path fill="url(#SVGID_91_)" d="M398.56,958.52c1.15,0.86,2.32,1.72,3.49,2.57C400.88,960.24,399.71,959.38,398.56,958.52z"/>
		
			<linearGradient id="SVGID_92_" gradientUnits="userSpaceOnUse" x1="152.8984" y1="980.9609" x2="689.6767" y2="980.9609" gradientTransform="matrix(0.8427 0.5384 0.5384 -0.8427 -428.5651 1508.7614)">
			<stop  offset="0" style="stop-color:#11BAEE"/>
			<stop  offset="1" style="stop-color:#0054A3"/>
		</linearGradient>
		<path fill="url(#SVGID_92_)" d="M299.87,809.09c0.19,0.77,0.4,1.57,0.61,2.34C300.27,810.64,300.06,809.86,299.87,809.09z"/>
		
			<linearGradient id="SVGID_93_" gradientUnits="userSpaceOnUse" x1="-88.3982" y1="980.9609" x2="689.6767" y2="980.9609" gradientTransform="matrix(0.8427 0.5384 0.5384 -0.8427 -428.5651 1508.7614)">
			<stop  offset="0" style="stop-color:#00A2E9"/>
			<stop  offset="1" style="stop-color:#6E0082"/>
		</linearGradient>
		<path fill="url(#SVGID_93_)" d="M299.87,809.09c0.19,0.77,0.4,1.57,0.61,2.34C300.27,810.64,300.06,809.86,299.87,809.09z"/>
		
			<linearGradient id="SVGID_94_" gradientUnits="userSpaceOnUse" x1="152.8984" y1="972.3754" x2="689.6767" y2="972.3754" gradientTransform="matrix(0.8427 0.5384 0.5384 -0.8427 -428.5651 1508.7614)">
			<stop  offset="0" style="stop-color:#11BAEE"/>
			<stop  offset="1" style="stop-color:#0054A3"/>
		</linearGradient>
		<path fill="url(#SVGID_94_)" d="M303.26,821.41c0.25,0.84,0.52,1.67,0.77,2.51C303.76,823.07,303.51,822.25,303.26,821.41z"/>
		
			<linearGradient id="SVGID_95_" gradientUnits="userSpaceOnUse" x1="-88.3982" y1="972.3754" x2="689.6767" y2="972.3754" gradientTransform="matrix(0.8427 0.5384 0.5384 -0.8427 -428.5651 1508.7614)">
			<stop  offset="0" style="stop-color:#00A2E9"/>
			<stop  offset="1" style="stop-color:#6E0082"/>
		</linearGradient>
		<path fill="url(#SVGID_95_)" d="M303.26,821.41c0.25,0.84,0.52,1.67,0.77,2.51C303.76,823.07,303.51,822.25,303.26,821.41z"/>
		
			<linearGradient id="SVGID_96_" gradientUnits="userSpaceOnUse" x1="152.8984" y1="908.4775" x2="689.6767" y2="908.4775" gradientTransform="matrix(0.8427 0.5384 0.5384 -0.8427 -428.5651 1508.7614)">
			<stop  offset="0" style="stop-color:#11BAEE"/>
			<stop  offset="1" style="stop-color:#0054A3"/>
		</linearGradient>
		<path fill="url(#SVGID_96_)" d="M404.04,962.54c1.26,0.9,2.53,1.78,3.81,2.64C406.57,964.29,405.3,963.44,404.04,962.54z"/>
		
			<linearGradient id="SVGID_97_" gradientUnits="userSpaceOnUse" x1="-88.3982" y1="908.4775" x2="689.6767" y2="908.4775" gradientTransform="matrix(0.8427 0.5384 0.5384 -0.8427 -428.5651 1508.7614)">
			<stop  offset="0" style="stop-color:#00A2E9"/>
			<stop  offset="1" style="stop-color:#6E0082"/>
		</linearGradient>
		<path fill="url(#SVGID_97_)" d="M404.04,962.54c1.26,0.9,2.53,1.78,3.81,2.64C406.57,964.29,405.3,963.44,404.04,962.54z"/>
		
			<linearGradient id="SVGID_98_" gradientUnits="userSpaceOnUse" x1="152.8984" y1="994.6621" x2="689.6767" y2="994.6621" gradientTransform="matrix(0.8427 0.5384 0.5384 -0.8427 -428.5651 1508.7614)">
			<stop  offset="0" style="stop-color:#11BAEE"/>
			<stop  offset="1" style="stop-color:#0054A3"/>
		</linearGradient>
		<path fill="url(#SVGID_98_)" d="M295.89,790.36c0.13,0.69,0.25,1.38,0.38,2.05C296.14,791.74,296.02,791.05,295.89,790.36z"/>
		
			<linearGradient id="SVGID_99_" gradientUnits="userSpaceOnUse" x1="-88.3982" y1="994.6621" x2="689.6767" y2="994.6621" gradientTransform="matrix(0.8427 0.5384 0.5384 -0.8427 -428.5651 1508.7614)">
			<stop  offset="0" style="stop-color:#00A2E9"/>
			<stop  offset="1" style="stop-color:#6E0082"/>
		</linearGradient>
		<path fill="url(#SVGID_99_)" d="M295.89,790.36c0.13,0.69,0.25,1.38,0.38,2.05C296.14,791.74,296.02,791.05,295.89,790.36z"/>
		
			<linearGradient id="SVGID_100_" gradientUnits="userSpaceOnUse" x1="152.8984" y1="908.2587" x2="689.6767" y2="908.2587" gradientTransform="matrix(0.8427 0.5384 0.5384 -0.8427 -428.5651 1508.7614)">
			<stop  offset="0" style="stop-color:#11BAEE"/>
			<stop  offset="1" style="stop-color:#0054A3"/>
		</linearGradient>
		<path fill="url(#SVGID_100_)" d="M409.65,966.43c1.88,1.28,3.79,2.53,5.73,3.77C413.46,968.96,411.55,967.7,409.65,966.43z"/>
		
			<linearGradient id="SVGID_101_" gradientUnits="userSpaceOnUse" x1="-88.3982" y1="908.2587" x2="689.6767" y2="908.2587" gradientTransform="matrix(0.8427 0.5384 0.5384 -0.8427 -428.5651 1508.7614)">
			<stop  offset="0" style="stop-color:#00A2E9"/>
			<stop  offset="1" style="stop-color:#6E0082"/>
		</linearGradient>
		<path fill="url(#SVGID_101_)" d="M409.65,966.43c1.88,1.28,3.79,2.53,5.73,3.77C413.46,968.96,411.55,967.7,409.65,966.43z"/>
		
			<linearGradient id="SVGID_102_" gradientUnits="userSpaceOnUse" x1="152.8984" y1="989.9763" x2="689.6767" y2="989.9763" gradientTransform="matrix(0.8427 0.5384 0.5384 -0.8427 -428.5651 1508.7614)">
			<stop  offset="0" style="stop-color:#11BAEE"/>
			<stop  offset="1" style="stop-color:#0054A3"/>
		</linearGradient>
		<path fill="url(#SVGID_102_)" d="M297.06,796.64c0.15,0.71,0.29,1.44,0.44,2.16C297.36,798.06,297.21,797.35,297.06,796.64z"/>
		
			<linearGradient id="SVGID_103_" gradientUnits="userSpaceOnUse" x1="-88.3982" y1="989.9763" x2="689.6767" y2="989.9763" gradientTransform="matrix(0.8427 0.5384 0.5384 -0.8427 -428.5651 1508.7614)">
			<stop  offset="0" style="stop-color:#00A2E9"/>
			<stop  offset="1" style="stop-color:#6E0082"/>
		</linearGradient>
		<path fill="url(#SVGID_103_)" d="M297.06,796.64c0.15,0.71,0.29,1.44,0.44,2.16C297.36,798.06,297.21,797.35,297.06,796.64z"/>
		
			<linearGradient id="SVGID_104_" gradientUnits="userSpaceOnUse" x1="152.8984" y1="976.6055" x2="689.6767" y2="976.6055" gradientTransform="matrix(0.8427 0.5384 0.5384 -0.8427 -428.5651 1508.7614)">
			<stop  offset="0" style="stop-color:#11BAEE"/>
			<stop  offset="1" style="stop-color:#0054A3"/>
		</linearGradient>
		<path fill="url(#SVGID_104_)" d="M301.48,815.26c0.23,0.82,0.46,1.63,0.69,2.45C301.94,816.89,301.71,816.08,301.48,815.26z"/>
		
			<linearGradient id="SVGID_105_" gradientUnits="userSpaceOnUse" x1="-88.3982" y1="976.6055" x2="689.6767" y2="976.6055" gradientTransform="matrix(0.8427 0.5384 0.5384 -0.8427 -428.5651 1508.7614)">
			<stop  offset="0" style="stop-color:#00A2E9"/>
			<stop  offset="1" style="stop-color:#6E0082"/>
		</linearGradient>
		<path fill="url(#SVGID_105_)" d="M301.48,815.26c0.23,0.82,0.46,1.63,0.69,2.45C301.94,816.89,301.71,816.08,301.48,815.26z"/>
		
			<linearGradient id="SVGID_106_" gradientUnits="userSpaceOnUse" x1="152.8984" y1="960.3771" x2="689.6767" y2="960.3771" gradientTransform="matrix(0.8427 0.5384 0.5384 -0.8427 -428.5651 1508.7614)">
			<stop  offset="0" style="stop-color:#11BAEE"/>
			<stop  offset="1" style="stop-color:#0054A3"/>
		</linearGradient>
		<path fill="url(#SVGID_106_)" d="M309.41,839.57c0.33,0.9,0.69,1.8,1.05,2.7C310.12,841.39,309.76,840.49,309.41,839.57z"/>
		
			<linearGradient id="SVGID_107_" gradientUnits="userSpaceOnUse" x1="-88.3982" y1="960.3771" x2="689.6767" y2="960.3771" gradientTransform="matrix(0.8427 0.5384 0.5384 -0.8427 -428.5651 1508.7614)">
			<stop  offset="0" style="stop-color:#00A2E9"/>
			<stop  offset="1" style="stop-color:#6E0082"/>
		</linearGradient>
		<path fill="url(#SVGID_107_)" d="M309.41,839.57c0.33,0.9,0.69,1.8,1.05,2.7C310.12,841.39,309.76,840.49,309.41,839.57z"/>
		
			<linearGradient id="SVGID_108_" gradientUnits="userSpaceOnUse" x1="152.8984" y1="956.5979" x2="689.6767" y2="956.5979" gradientTransform="matrix(0.8427 0.5384 0.5384 -0.8427 -428.5651 1508.7614)">
			<stop  offset="0" style="stop-color:#11BAEE"/>
			<stop  offset="1" style="stop-color:#0054A3"/>
		</linearGradient>
		<path fill="url(#SVGID_108_)" d="M311.75,845.56c0.38,0.92,0.77,1.84,1.15,2.76C312.53,847.4,312.13,846.48,311.75,845.56z"/>
		
			<linearGradient id="SVGID_109_" gradientUnits="userSpaceOnUse" x1="-88.3982" y1="956.5979" x2="689.6767" y2="956.5979" gradientTransform="matrix(0.8427 0.5384 0.5384 -0.8427 -428.5651 1508.7614)">
			<stop  offset="0" style="stop-color:#00A2E9"/>
			<stop  offset="1" style="stop-color:#6E0082"/>
		</linearGradient>
		<path fill="url(#SVGID_109_)" d="M311.75,845.56c0.38,0.92,0.77,1.84,1.15,2.76C312.53,847.4,312.13,846.48,311.75,845.56z"/>
		
			<linearGradient id="SVGID_110_" gradientUnits="userSpaceOnUse" x1="152.8984" y1="910.147" x2="689.6767" y2="910.147" gradientTransform="matrix(0.8427 0.5384 0.5384 -0.8427 -428.5651 1508.7614)">
			<stop  offset="0" style="stop-color:#11BAEE"/>
			<stop  offset="1" style="stop-color:#0054A3"/>
		</linearGradient>
		<path fill="url(#SVGID_110_)" d="M387.97,950.13c0.98,0.82,2.01,1.63,3.01,2.45C389.96,951.76,388.96,950.95,387.97,950.13z"/>
		
			<linearGradient id="SVGID_111_" gradientUnits="userSpaceOnUse" x1="-88.3982" y1="910.147" x2="689.6767" y2="910.147" gradientTransform="matrix(0.8427 0.5384 0.5384 -0.8427 -428.5651 1508.7614)">
			<stop  offset="0" style="stop-color:#00A2E9"/>
			<stop  offset="1" style="stop-color:#6E0082"/>
		</linearGradient>
		<path fill="url(#SVGID_111_)" d="M387.97,950.13c0.98,0.82,2.01,1.63,3.01,2.45C389.96,951.76,388.96,950.95,387.97,950.13z"/>
		
			<linearGradient id="SVGID_112_" gradientUnits="userSpaceOnUse" x1="152.8984" y1="952.9681" x2="689.6767" y2="952.9681" gradientTransform="matrix(0.8427 0.5384 0.5384 -0.8427 -428.5651 1508.7614)">
			<stop  offset="0" style="stop-color:#11BAEE"/>
			<stop  offset="1" style="stop-color:#0054A3"/>
		</linearGradient>
		<path fill="url(#SVGID_112_)" d="M314.24,851.46c0.42,0.94,0.84,1.88,1.26,2.82C315.08,853.34,314.66,852.4,314.24,851.46z"/>
		
			<linearGradient id="SVGID_113_" gradientUnits="userSpaceOnUse" x1="-88.3982" y1="952.9681" x2="689.6767" y2="952.9681" gradientTransform="matrix(0.8427 0.5384 0.5384 -0.8427 -428.5651 1508.7614)">
			<stop  offset="0" style="stop-color:#00A2E9"/>
			<stop  offset="1" style="stop-color:#6E0082"/>
		</linearGradient>
		<path fill="url(#SVGID_113_)" d="M314.24,851.46c0.42,0.94,0.84,1.88,1.26,2.82C315.08,853.34,314.66,852.4,314.24,851.46z"/>
		
			<linearGradient id="SVGID_114_" gradientUnits="userSpaceOnUse" x1="152.8984" y1="968.2627" x2="689.6767" y2="968.2627" gradientTransform="matrix(0.8427 0.5384 0.5384 -0.8427 -428.5651 1508.7614)">
			<stop  offset="0" style="stop-color:#11BAEE"/>
			<stop  offset="1" style="stop-color:#0054A3"/>
		</linearGradient>
		<path fill="url(#SVGID_114_)" d="M305.16,827.5c0.27,0.86,0.59,1.74,0.88,2.59C305.73,829.24,305.43,828.38,305.16,827.5z"/>
		
			<linearGradient id="SVGID_115_" gradientUnits="userSpaceOnUse" x1="-88.3982" y1="968.2627" x2="689.6767" y2="968.2627" gradientTransform="matrix(0.8427 0.5384 0.5384 -0.8427 -428.5651 1508.7614)">
			<stop  offset="0" style="stop-color:#00A2E9"/>
			<stop  offset="1" style="stop-color:#6E0082"/>
		</linearGradient>
		<path fill="url(#SVGID_115_)" d="M305.16,827.5c0.27,0.86,0.59,1.74,0.88,2.59C305.73,829.24,305.43,828.38,305.16,827.5z"/>
		
			<linearGradient id="SVGID_116_" gradientUnits="userSpaceOnUse" x1="152.8984" y1="909.4323" x2="689.6767" y2="909.4323" gradientTransform="matrix(0.8427 0.5384 0.5384 -0.8427 -428.5651 1508.7614)">
			<stop  offset="0" style="stop-color:#11BAEE"/>
			<stop  offset="1" style="stop-color:#0054A3"/>
		</linearGradient>
		<path fill="url(#SVGID_116_)" d="M393.2,954.38c1.05,0.82,2.09,1.63,3.16,2.43C395.3,956.01,394.25,955.21,393.2,954.38z"/>
		
			<linearGradient id="SVGID_117_" gradientUnits="userSpaceOnUse" x1="-88.3982" y1="909.4323" x2="689.6767" y2="909.4323" gradientTransform="matrix(0.8427 0.5384 0.5384 -0.8427 -428.5651 1508.7614)">
			<stop  offset="0" style="stop-color:#00A2E9"/>
			<stop  offset="1" style="stop-color:#6E0082"/>
		</linearGradient>
		<path fill="url(#SVGID_117_)" d="M393.2,954.38c1.05,0.82,2.09,1.63,3.16,2.43C395.3,956.01,394.25,955.21,393.2,954.38z"/>
		
			<linearGradient id="SVGID_118_" gradientUnits="userSpaceOnUse" x1="152.8984" y1="964.2496" x2="689.6767" y2="964.2496" gradientTransform="matrix(0.8427 0.5384 0.5384 -0.8427 -428.5651 1508.7614)">
			<stop  offset="0" style="stop-color:#11BAEE"/>
			<stop  offset="1" style="stop-color:#0054A3"/>
		</linearGradient>
		<path fill="url(#SVGID_118_)" d="M307.21,833.57c0.31,0.9,0.65,1.78,0.96,2.66C307.86,835.35,307.53,834.45,307.21,833.57z"/>
		
			<linearGradient id="SVGID_119_" gradientUnits="userSpaceOnUse" x1="-88.3982" y1="964.2496" x2="689.6767" y2="964.2496" gradientTransform="matrix(0.8427 0.5384 0.5384 -0.8427 -428.5651 1508.7614)">
			<stop  offset="0" style="stop-color:#00A2E9"/>
			<stop  offset="1" style="stop-color:#6E0082"/>
		</linearGradient>
		<path fill="url(#SVGID_119_)" d="M307.21,833.57c0.31,0.9,0.65,1.78,0.96,2.66C307.86,835.35,307.53,834.45,307.21,833.57z"/>
	</g>
	<g>
		
			<linearGradient id="SVGID_120_" gradientUnits="userSpaceOnUse" x1="63.7069" y1="1396.6244" x2="389.0791" y2="1908.8826" gradientTransform="matrix(0.8427 0.5384 0.5384 -0.8427 -428.5651 1508.7614)">
			<stop  offset="0" style="stop-color:#6E0082"/>
			<stop  offset="1" style="stop-color:#00A2E9"/>
		</linearGradient>
		<path fill-rule="evenodd" clip-rule="evenodd" fill="url(#SVGID_120_)" d="M968.33,315.37c4.23,8.54,7.62,17.64,9.77,27.37
			l-5.8-26.28c-2.13-9.73-5.52-18.83-9.75-27.37l-40.28-182.84C908.07,41.72,844.22,0.9,779.69,15.13L411.93,96.14
			c-64.53,14.21-105.33,78.06-91.1,142.59c7.3,33.16,27.79,59.99,54.67,76.37c26.15,17.51,59.09,24.84,92.25,17.53l367.76-81.01
			c31.36-6.9,62.5-0.73,87.92,14.75c24.73,16.55,43.41,42.24,50.32,73.59L968.33,315.37z"/>
		
			<linearGradient id="SVGID_121_" gradientUnits="userSpaceOnUse" x1="303.7828" y1="1606.7695" x2="689.7242" y2="1606.7695" gradientTransform="matrix(0.8427 0.5384 0.5384 -0.8427 -428.5651 1508.7614)">
			<stop  offset="0" style="stop-color:#11BAEE"/>
			<stop  offset="1" style="stop-color:#0054A3"/>
		</linearGradient>
		<path fill-rule="evenodd" clip-rule="evenodd" fill="url(#SVGID_121_)" d="M718.66,277.38l55.28,250.93
			c14.21,64.53,78.06,105.33,142.59,91.12c64.53-14.21,105.33-78.06,91.12-142.59L978.1,342.76
			c-14.21-64.53-78.06-105.33-142.59-91.12L718.66,277.38z"/>
	</g>
</g>
</svg>
